<?xml version="1.0" encoding="UTF-8" standalone="no"?>
<!DOCTYPE svg PUBLIC "-//W3C//DTD SVG 1.1//EN"
 "http://www.w3.org/Graphics/SVG/1.1/DTD/svg11.dtd">
<!-- Generated by graphviz version 2.43.0 (0)
 -->
<!-- Title: src_cpp_kokkos_host/boundary.hpp Pages: 1 -->
<svg width="320pt" height="148pt"
 viewBox="0.00 0.00 319.50 148.00" xmlns="http://www.w3.org/2000/svg" xmlns:xlink="http://www.w3.org/1999/xlink">
<g id="graph0" class="graph" transform="scale(1 1) rotate(0) translate(4 144)">
<title>src_cpp_kokkos_host/boundary.hpp</title>
<!-- Node1 -->
<g id="Node000001" class="node">
<title>Node1</title>
<g id="a_Node000001"><a xlink:title=" ">
<polygon fill="#999999" stroke="#666666" points="143,-140 24,-140 24,-110 143,-110 143,-140"/>
<text text-anchor="start" x="32" y="-128" font-family="Helvetica,sans-Serif" font-size="10.00">src_cpp_kokkos_host</text>
<text text-anchor="middle" x="83.5" y="-117" font-family="Helvetica,sans-Serif" font-size="10.00">/boundary.hpp</text>
</a>
</g>
</g>
<!-- Node2 -->
<g id="Node000002" class="node">
<title>Node2</title>
<g id="a_Node000002"><a xlink:href="config_8hpp.html" target="_top" xlink:title=" ">
<polygon fill="white" stroke="#666666" points="77,-74 10,-74 10,-55 77,-55 77,-74"/>
<text text-anchor="middle" x="43.5" y="-62" font-family="Helvetica,sans-Serif" font-size="10.00">config.hpp</text>
</a>
</g>
</g>
<!-- Node1&#45;&gt;Node2 -->
<g id="edge1_Node000001_Node000002" class="edge">
<title>Node1&#45;&gt;Node2</title>
<g id="a_edge1_Node000001_Node000002"><a xlink:title=" ">
<path fill="none" stroke="#63b8ff" d="M73.82,-109.84C68.25,-101.69 61.21,-91.4 55.32,-82.78"/>
<polygon fill="#63b8ff" stroke="#63b8ff" points="58.03,-80.55 49.49,-74.27 52.25,-84.5 58.03,-80.55"/>
</a>
</g>
</g>
<!-- Node3 -->
<g id="Node000003" class="node">
<title>Node3</title>
<g id="a_Node000003"><a xlink:href="mhd_8hpp.html" target="_top" xlink:title=" ">
<polygon fill="white" stroke="#666666" points="154,-74 95,-74 95,-55 154,-55 154,-74"/>
<text text-anchor="middle" x="124.5" y="-62" font-family="Helvetica,sans-Serif" font-size="10.00">mhd.hpp</text>
</a>
</g>
</g>
<!-- Node1&#45;&gt;Node3 -->
<g id="edge2_Node000001_Node000003" class="edge">
<title>Node1&#45;&gt;Node3</title>
<g id="a_edge2_Node000001_Node000003"><a xlink:title=" ">
<path fill="none" stroke="#63b8ff" d="M93.42,-109.84C99.19,-101.61 106.5,-91.18 112.58,-82.51"/>
<polygon fill="#63b8ff" stroke="#63b8ff" points="115.48,-84.46 118.36,-74.27 109.75,-80.45 115.48,-84.46"/>
</a>
</g>
</g>
<!-- Node4 -->
<g id="Node000004" class="node">
<title>Node4</title>
<g id="a_Node000004"><a xlink:title=" ">
<polygon fill="#e0e0e0" stroke="#999999" points="47,-19 0,-19 0,0 47,0 47,-19"/>
<text text-anchor="middle" x="23.5" y="-7" font-family="Helvetica,sans-Serif" font-size="10.00">cmath</text>
</a>
</g>
</g>
<!-- Node3&#45;&gt;Node4 -->
<g id="edge3_Node000003_Node000004" class="edge">
<title>Node3&#45;&gt;Node4</title>
<g id="a_edge3_Node000003_Node000004"><a xlink:title=" ">
<path fill="none" stroke="#63b8ff" d="M108.27,-54.98C92.32,-46.61 67.72,-33.7 49.12,-23.95"/>
<polygon fill="#63b8ff" stroke="#63b8ff" points="50.5,-20.72 40.02,-19.17 47.25,-26.92 50.5,-20.72"/>
</a>
</g>
</g>
<!-- Node5 -->
<g id="Node000005" class="node">
<title>Node5</title>
<g id="a_Node000005"><a xlink:title=" ">
<polygon fill="#e0e0e0" stroke="#999999" points="111.5,-19 65.5,-19 65.5,0 111.5,0 111.5,-19"/>
<text text-anchor="middle" x="88.5" y="-7" font-family="Helvetica,sans-Serif" font-size="10.00">cstdio</text>
</a>
</g>
</g>
<!-- Node3&#45;&gt;Node5 -->
<g id="edge4_Node000003_Node000005" class="edge">
<title>Node3&#45;&gt;Node5</title>
<g id="a_edge4_Node000003_Node000005"><a xlink:title=" ">
<path fill="none" stroke="#63b8ff" d="M118.56,-54.75C113.52,-47.34 106.16,-36.5 99.99,-27.41"/>
<polygon fill="#63b8ff" stroke="#63b8ff" points="102.85,-25.39 94.33,-19.09 97.06,-29.33 102.85,-25.39"/>
</a>
</g>
</g>
<!-- Node6 -->
<g id="Node000006" class="node">
<title>Node6</title>
<g id="a_Node000006"><a xlink:title=" ">
<polygon fill="#e0e0e0" stroke="#999999" points="193.5,-19 129.5,-19 129.5,0 193.5,0 193.5,-19"/>
<text text-anchor="middle" x="161.5" y="-7" font-family="Helvetica,sans-Serif" font-size="10.00">algorithm</text>
</a>
</g>
</g>
<!-- Node3&#45;&gt;Node6 -->
<g id="edge5_Node000003_Node000006" class="edge">
<title>Node3&#45;&gt;Node6</title>
<g id="a_edge5_Node000003_Node000006"><a xlink:title=" ">
<path fill="none" stroke="#63b8ff" d="M130.61,-54.75C135.78,-47.34 143.35,-36.5 149.69,-27.41"/>
<polygon fill="#63b8ff" stroke="#63b8ff" points="152.65,-29.29 155.5,-19.09 146.91,-25.29 152.65,-29.29"/>
</a>
</g>
</g>
<!-- Node7 -->
<g id="Node000007" class="node">
<title>Node7</title>
<g id="a_Node000007"><a xlink:title=" ">
<polygon fill="#e0e0e0" stroke="#999999" points="311.5,-19 211.5,-19 211.5,0 311.5,0 311.5,-19"/>
<text text-anchor="middle" x="261.5" y="-7" font-family="Helvetica,sans-Serif" font-size="10.00">Kokkos_Core.hpp</text>
</a>
</g>
</g>
<!-- Node3&#45;&gt;Node7 -->
<g id="edge6_Node000003_Node000007" class="edge">
<title>Node3&#45;&gt;Node7</title>
<g id="a_edge6_Node000003_Node000007"><a xlink:title=" ">
<path fill="none" stroke="#63b8ff" d="M146.51,-54.98C168.95,-46.3 203.98,-32.75 229.49,-22.88"/>
<polygon fill="#63b8ff" stroke="#63b8ff" points="231.02,-26.04 239.09,-19.17 228.5,-19.51 231.02,-26.04"/>
</a>
</g>
</g>
</g>
</svg>
