<?xml version="1.0" encoding="UTF-8" standalone="no"?>
<!DOCTYPE svg PUBLIC "-//W3C//DTD SVG 1.1//EN"
 "http://www.w3.org/Graphics/SVG/1.1/DTD/svg11.dtd">
<!-- Generated by graphviz version 2.43.0 (0)
 -->
<!-- Title: hydro_arrays_mod::Array4D&lt; T &gt; Pages: 1 -->
<svg width="159pt" height="137pt"
 viewBox="0.00 0.00 158.50 137.00" xmlns="http://www.w3.org/2000/svg" xmlns:xlink="http://www.w3.org/1999/xlink">
<g id="graph0" class="graph" transform="scale(1 1) rotate(0) translate(4 133)">
<title>hydro_arrays_mod::Array4D&lt; T &gt;</title>
<!-- Node1 -->
<g id="Node000001" class="node">
<title>Node1</title>
<g id="a_Node000001"><a xlink:title=" ">
<polygon fill="#999999" stroke="#666666" points="146,-30 0,-30 0,0 146,0 146,-30"/>
<text text-anchor="start" x="8" y="-18" font-family="Helvetica,sans-Serif" font-size="10.00">hydro_arrays_mod::Array4</text>
<text text-anchor="middle" x="73" y="-7" font-family="Helvetica,sans-Serif" font-size="10.00">D&lt; T &gt;</text>
</a>
</g>
</g>
<!-- Node2 -->
<g id="Node000002" class="node">
<title>Node2</title>
<g id="a_Node000002"><a xlink:title=" ">
<polygon fill="white" stroke="#666666" points="40.5,-129 9.5,-129 9.5,-110 40.5,-110 40.5,-129"/>
<text text-anchor="middle" x="25" y="-117" font-family="Helvetica,sans-Serif" font-size="10.00">T *</text>
</a>
</g>
</g>
<!-- Node2&#45;&gt;Node1 -->
<g id="edge1_Node000001_Node000002" class="edge">
<title>Node2&#45;&gt;Node1</title>
<g id="a_edge1_Node000001_Node000002"><a xlink:title=" ">
<path fill="none" stroke="#9a32cd" stroke-dasharray="5,2" d="M27.56,-99.82C30.16,-85.07 35.09,-64.31 44,-48 47.52,-41.55 52.6,-35.35 57.52,-30.15"/>
<polygon fill="#9a32cd" stroke="#9a32cd" points="24.1,-99.34 26.01,-109.76 31.01,-100.42 24.1,-99.34"/>
</a>
</g>
<text text-anchor="middle" x="56.5" y="-67.5" font-family="Helvetica,sans-Serif" font-size="10.00" fill="grey"> data</text>
</g>
<!-- Node3 -->
<g id="Node000003" class="node">
<title>Node3</title>
<g id="a_Node000003"><a xlink:title=" ">
<polygon fill="white" stroke="#666666" points="87.5,-129 58.5,-129 58.5,-110 87.5,-110 87.5,-129"/>
<text text-anchor="middle" x="73" y="-117" font-family="Helvetica,sans-Serif" font-size="10.00">int</text>
</a>
</g>
</g>
<!-- Node3&#45;&gt;Node1 -->
<g id="edge2_Node000001_Node000003" class="edge">
<title>Node3&#45;&gt;Node1</title>
<g id="a_edge2_Node000001_Node000003"><a xlink:title=" ">
<path fill="none" stroke="#9a32cd" stroke-dasharray="5,2" d="M73,-99.68C73,-79.61 73,-48.29 73,-30.2"/>
<polygon fill="#9a32cd" stroke="#9a32cd" points="69.5,-99.76 73,-109.76 76.5,-99.76 69.5,-99.76"/>
</a>
</g>
<text text-anchor="middle" x="81" y="-84" font-family="Helvetica,sans-Serif" font-size="10.00" fill="grey"> n1</text>
<text text-anchor="middle" x="81" y="-73" font-family="Helvetica,sans-Serif" font-size="10.00" fill="grey">n2</text>
<text text-anchor="middle" x="81" y="-62" font-family="Helvetica,sans-Serif" font-size="10.00" fill="grey">n3</text>
<text text-anchor="middle" x="81" y="-51" font-family="Helvetica,sans-Serif" font-size="10.00" fill="grey">nv</text>
</g>
<!-- Node4 -->
<g id="Node000004" class="node">
<title>Node4</title>
<g id="a_Node000004"><a xlink:title=" ">
<polygon fill="white" stroke="#666666" points="150.5,-129 105.5,-129 105.5,-110 150.5,-110 150.5,-129"/>
<text text-anchor="middle" x="128" y="-117" font-family="Helvetica,sans-Serif" font-size="10.00">size_t</text>
</a>
</g>
</g>
<!-- Node4&#45;&gt;Node1 -->
<g id="edge3_Node000001_Node000004" class="edge">
<title>Node4&#45;&gt;Node1</title>
<g id="a_edge3_Node000001_Node000004"><a xlink:title=" ">
<path fill="none" stroke="#9a32cd" stroke-dasharray="5,2" d="M119.62,-100.42C112.81,-86.02 102.76,-65.47 93,-48 89.68,-42.05 85.75,-35.66 82.26,-30.16"/>
<polygon fill="#9a32cd" stroke="#9a32cd" points="116.55,-102.1 123.96,-109.68 122.89,-99.13 116.55,-102.1"/>
</a>
</g>
<text text-anchor="middle" x="126.5" y="-67.5" font-family="Helvetica,sans-Serif" font-size="10.00" fill="grey"> size</text>
</g>
</g>
</svg>
