<?xml version="1.0" encoding="UTF-8" standalone="no"?>
<!DOCTYPE svg PUBLIC "-//W3C//DTD SVG 1.1//EN"
 "http://www.w3.org/Graphics/SVG/1.1/DTD/svg11.dtd">
<!-- Generated by graphviz version 2.43.0 (0)
 -->
<!-- Title: hydflux_mod::GridArray&lt; T &gt; Pages: 1 -->
<svg width="382pt" height="159pt"
 viewBox="0.00 0.00 381.50 159.00" xmlns="http://www.w3.org/2000/svg" xmlns:xlink="http://www.w3.org/1999/xlink">
<g id="graph0" class="graph" transform="scale(1 1) rotate(0) translate(4 155)">
<title>hydflux_mod::GridArray&lt; T &gt;</title>
<!-- Node1 -->
<g id="Node000001" class="node">
<title>Node1</title>
<g id="a_Node000001"><a xlink:title=" ">
<polygon fill="#999999" stroke="#666666" points="215,-19 54,-19 54,0 215,0 215,-19"/>
<text text-anchor="middle" x="134.5" y="-7" font-family="Helvetica,sans-Serif" font-size="10.00">hydflux_mod::GridArray&lt; T &gt;</text>
</a>
</g>
</g>
<!-- Node2 -->
<g id="Node000002" class="node">
<title>Node2</title>
<g id="a_Node000002"><a xlink:title=" ">
<polygon fill="white" stroke="#666666" points="31,-145.5 0,-145.5 0,-126.5 31,-126.5 31,-145.5"/>
<text text-anchor="middle" x="15.5" y="-133.5" font-family="Helvetica,sans-Serif" font-size="10.00">T *</text>
</a>
</g>
</g>
<!-- Node2&#45;&gt;Node1 -->
<g id="edge1_Node000001_Node000002" class="edge">
<title>Node2&#45;&gt;Node1</title>
<g id="a_edge1_Node000001_Node000002"><a xlink:title=" ">
<path fill="none" stroke="#9a32cd" stroke-dasharray="5,2" d="M14.12,-116.31C13.58,-94.41 16.21,-58.4 36.5,-37 44.26,-28.82 54.27,-23.07 64.91,-19.05"/>
<polygon fill="#9a32cd" stroke="#9a32cd" points="10.63,-116.51 14.62,-126.32 17.62,-116.16 10.63,-116.51"/>
</a>
</g>
<text text-anchor="middle" x="61" y="-95" font-family="Helvetica,sans-Serif" font-size="10.00" fill="grey"> x1a_data</text>
<text text-anchor="middle" x="61" y="-84" font-family="Helvetica,sans-Serif" font-size="10.00" fill="grey">x1b_data</text>
<text text-anchor="middle" x="61" y="-73" font-family="Helvetica,sans-Serif" font-size="10.00" fill="grey">x2a_data</text>
<text text-anchor="middle" x="61" y="-62" font-family="Helvetica,sans-Serif" font-size="10.00" fill="grey">x2b_data</text>
<text text-anchor="middle" x="61" y="-51" font-family="Helvetica,sans-Serif" font-size="10.00" fill="grey">x3a_data</text>
<text text-anchor="middle" x="61" y="-40" font-family="Helvetica,sans-Serif" font-size="10.00" fill="grey">x3b_data</text>
</g>
<!-- Node3 -->
<g id="Node000003" class="node">
<title>Node3</title>
<g id="a_Node000003"><a xlink:title=" ">
<polygon fill="white" stroke="#666666" points="94,-145.5 65,-145.5 65,-126.5 94,-126.5 94,-145.5"/>
<text text-anchor="middle" x="79.5" y="-133.5" font-family="Helvetica,sans-Serif" font-size="10.00">int</text>
</a>
</g>
</g>
<!-- Node3&#45;&gt;Node1 -->
<g id="edge2_Node000001_Node000003" class="edge">
<title>Node3&#45;&gt;Node1</title>
<g id="a_edge2_Node000001_Node000003"><a xlink:title=" ">
<path fill="none" stroke="#9a32cd" stroke-dasharray="5,2" d="M84.31,-116.43C89.96,-96.17 100.39,-63.16 114.5,-37 117.89,-30.71 122.69,-24.3 126.74,-19.35"/>
<polygon fill="#9a32cd" stroke="#9a32cd" points="80.88,-115.67 81.67,-126.24 87.64,-117.49 80.88,-115.67"/>
</a>
</g>
<text text-anchor="middle" x="122.5" y="-78.5" font-family="Helvetica,sans-Serif" font-size="10.00" fill="grey"> n1</text>
<text text-anchor="middle" x="122.5" y="-67.5" font-family="Helvetica,sans-Serif" font-size="10.00" fill="grey">n2</text>
<text text-anchor="middle" x="122.5" y="-56.5" font-family="Helvetica,sans-Serif" font-size="10.00" fill="grey">n3</text>
</g>
<!-- Node4 -->
<g id="Node000004" class="node">
<title>Node4</title>
<g id="a_Node000004"><a xlink:title=" ">
<polygon fill="white" stroke="#666666" points="157,-145.5 112,-145.5 112,-126.5 157,-126.5 157,-145.5"/>
<text text-anchor="middle" x="134.5" y="-133.5" font-family="Helvetica,sans-Serif" font-size="10.00">size_t</text>
</a>
</g>
</g>
<!-- Node4&#45;&gt;Node1 -->
<g id="edge3_Node000001_Node000004" class="edge">
<title>Node4&#45;&gt;Node1</title>
<g id="a_edge3_Node000001_Node000004"><a xlink:title=" ">
<path fill="none" stroke="#9a32cd" stroke-dasharray="5,2" d="M134.5,-116.24C134.5,-88.86 134.5,-39.08 134.5,-19.12"/>
<polygon fill="#9a32cd" stroke="#9a32cd" points="131,-116.44 134.5,-126.44 138,-116.44 131,-116.44"/>
</a>
</g>
<text text-anchor="middle" x="146" y="-67.5" font-family="Helvetica,sans-Serif" font-size="10.00" fill="grey"> size</text>
</g>
<!-- Node5 -->
<g id="Node000005" class="node">
<title>Node5</title>
<g id="a_Node000005"><a xlink:title=" ">
<polygon fill="white" stroke="#666666" points="287.5,-151 175.5,-151 175.5,-121 287.5,-121 287.5,-151"/>
<text text-anchor="start" x="183.5" y="-139" font-family="Helvetica,sans-Serif" font-size="10.00">View&lt; T **, Kokkos</text>
<text text-anchor="middle" x="231.5" y="-128" font-family="Helvetica,sans-Serif" font-size="10.00">::LayoutLeft &gt;</text>
</a>
</g>
</g>
<!-- Node5&#45;&gt;Node1 -->
<g id="edge4_Node000001_Node000005" class="edge">
<title>Node5&#45;&gt;Node1</title>
<g id="a_edge4_Node000001_Node000005"><a xlink:title=" ">
<path fill="none" stroke="#9a32cd" stroke-dasharray="5,2" d="M216.85,-112.18C203.37,-91.76 182.36,-61.39 161.5,-37 156.12,-30.71 149.5,-24.19 144.16,-19.19"/>
<polygon fill="#9a32cd" stroke="#9a32cd" points="214.09,-114.34 222.49,-120.8 219.94,-110.51 214.09,-114.34"/>
</a>
</g>
<text text-anchor="middle" x="217.5" y="-78.5" font-family="Helvetica,sans-Serif" font-size="10.00" fill="grey"> d1</text>
<text text-anchor="middle" x="217.5" y="-67.5" font-family="Helvetica,sans-Serif" font-size="10.00" fill="grey">d2</text>
<text text-anchor="middle" x="217.5" y="-56.5" font-family="Helvetica,sans-Serif" font-size="10.00" fill="grey">d3</text>
</g>
<!-- Node6 -->
<g id="Node000006" class="node">
<title>Node6</title>
<g id="a_Node000006"><a xlink:title=" ">
<polygon fill="white" stroke="#666666" points="373.5,-145.5 305.5,-145.5 305.5,-126.5 373.5,-126.5 373.5,-145.5"/>
<text text-anchor="middle" x="339.5" y="-133.5" font-family="Helvetica,sans-Serif" font-size="10.00">HostMirror</text>
</a>
</g>
</g>
<!-- Node6&#45;&gt;Node1 -->
<g id="edge5_Node000001_Node000006" class="edge">
<title>Node6&#45;&gt;Node1</title>
<g id="a_edge5_Node000001_Node000006"><a xlink:title=" ">
<path fill="none" stroke="#9a32cd" stroke-dasharray="5,2" d="M325.46,-118.47C306.05,-96.67 268.93,-58.54 229.5,-37 214.62,-28.87 197.04,-23.07 181.08,-19.01"/>
<polygon fill="#9a32cd" stroke="#9a32cd" points="323,-120.98 332.21,-126.22 328.27,-116.38 323,-120.98"/>
</a>
</g>
<text text-anchor="middle" x="318.5" y="-78.5" font-family="Helvetica,sans-Serif" font-size="10.00" fill="grey"> h1</text>
<text text-anchor="middle" x="318.5" y="-67.5" font-family="Helvetica,sans-Serif" font-size="10.00" fill="grey">h2</text>
<text text-anchor="middle" x="318.5" y="-56.5" font-family="Helvetica,sans-Serif" font-size="10.00" fill="grey">h3</text>
</g>
</g>
</svg>
