<?xml version="1.0" encoding="UTF-8" standalone="no"?>
<!DOCTYPE svg PUBLIC "-//W3C//DTD SVG 1.1//EN"
 "http://www.w3.org/Graphics/SVG/1.1/DTD/svg11.dtd">
<!-- Generated by graphviz version 2.43.0 (0)
 -->
<!-- Title: boundary_mod::BoundaryArray&lt; T &gt; Pages: 1 -->
<svg width="386pt" height="159pt"
 viewBox="0.00 0.00 385.50 159.00" xmlns="http://www.w3.org/2000/svg" xmlns:xlink="http://www.w3.org/1999/xlink">
<g id="graph0" class="graph" transform="scale(1 1) rotate(0) translate(4 155)">
<title>boundary_mod::BoundaryArray&lt; T &gt;</title>
<!-- Node1 -->
<g id="Node000001" class="node">
<title>Node1</title>
<g id="a_Node000001"><a xlink:title=" ">
<polygon fill="#999999" stroke="#666666" points="227,-19 30,-19 30,0 227,0 227,-19"/>
<text text-anchor="middle" x="128.5" y="-7" font-family="Helvetica,sans-Serif" font-size="10.00">boundary_mod::BoundaryArray&lt; T &gt;</text>
</a>
</g>
</g>
<!-- Node2 -->
<g id="Node000002" class="node">
<title>Node2</title>
<g id="a_Node000002"><a xlink:title=" ">
<polygon fill="white" stroke="#666666" points="31,-145.5 0,-145.5 0,-126.5 31,-126.5 31,-145.5"/>
<text text-anchor="middle" x="15.5" y="-133.5" font-family="Helvetica,sans-Serif" font-size="10.00">T *</text>
</a>
</g>
</g>
<!-- Node2&#45;&gt;Node1 -->
<g id="edge1_Node000001_Node000002" class="edge">
<title>Node2&#45;&gt;Node1</title>
<g id="a_edge1_Node000001_Node000002"><a xlink:title=" ">
<path fill="none" stroke="#9a32cd" stroke-dasharray="5,2" d="M14.17,-116.06C13.72,-94.19 16.48,-58.46 36.5,-37 44.21,-28.74 54.32,-22.99 65,-19.01"/>
<polygon fill="#9a32cd" stroke="#9a32cd" points="10.69,-116.52 14.65,-126.35 17.68,-116.2 10.69,-116.52"/>
</a>
</g>
<text text-anchor="middle" x="58" y="-95" font-family="Helvetica,sans-Serif" font-size="10.00" fill="grey"> Xe_data</text>
<text text-anchor="middle" x="58" y="-84" font-family="Helvetica,sans-Serif" font-size="10.00" fill="grey">Xs_data</text>
<text text-anchor="middle" x="58" y="-73" font-family="Helvetica,sans-Serif" font-size="10.00" fill="grey">Ye_data</text>
<text text-anchor="middle" x="58" y="-62" font-family="Helvetica,sans-Serif" font-size="10.00" fill="grey">Ys_data</text>
<text text-anchor="middle" x="58" y="-51" font-family="Helvetica,sans-Serif" font-size="10.00" fill="grey">Ze_data</text>
<text text-anchor="middle" x="58" y="-40" font-family="Helvetica,sans-Serif" font-size="10.00" fill="grey">Zs_data</text>
</g>
<!-- Node3 -->
<g id="Node000003" class="node">
<title>Node3</title>
<g id="a_Node000003"><a xlink:title=" ">
<polygon fill="white" stroke="#666666" points="88,-145.5 59,-145.5 59,-126.5 88,-126.5 88,-145.5"/>
<text text-anchor="middle" x="73.5" y="-133.5" font-family="Helvetica,sans-Serif" font-size="10.00">int</text>
</a>
</g>
</g>
<!-- Node3&#45;&gt;Node1 -->
<g id="edge2_Node000001_Node000003" class="edge">
<title>Node3&#45;&gt;Node1</title>
<g id="a_edge2_Node000001_Node000003"><a xlink:title=" ">
<path fill="none" stroke="#9a32cd" stroke-dasharray="5,2" d="M78.31,-116.43C83.96,-96.17 94.39,-63.16 108.5,-37 111.89,-30.71 116.69,-24.3 120.74,-19.35"/>
<polygon fill="#9a32cd" stroke="#9a32cd" points="74.88,-115.67 75.67,-126.24 81.64,-117.49 74.88,-115.67"/>
</a>
</g>
<text text-anchor="middle" x="116.5" y="-89.5" font-family="Helvetica,sans-Serif" font-size="10.00" fill="grey"> n1</text>
<text text-anchor="middle" x="116.5" y="-78.5" font-family="Helvetica,sans-Serif" font-size="10.00" fill="grey">n2</text>
<text text-anchor="middle" x="116.5" y="-67.5" font-family="Helvetica,sans-Serif" font-size="10.00" fill="grey">n3</text>
<text text-anchor="middle" x="116.5" y="-56.5" font-family="Helvetica,sans-Serif" font-size="10.00" fill="grey">ng</text>
<text text-anchor="middle" x="116.5" y="-45.5" font-family="Helvetica,sans-Serif" font-size="10.00" fill="grey">nv</text>
</g>
<!-- Node4 -->
<g id="Node000004" class="node">
<title>Node4</title>
<g id="a_Node000004"><a xlink:title=" ">
<polygon fill="white" stroke="#666666" points="151,-145.5 106,-145.5 106,-126.5 151,-126.5 151,-145.5"/>
<text text-anchor="middle" x="128.5" y="-133.5" font-family="Helvetica,sans-Serif" font-size="10.00">size_t</text>
</a>
</g>
</g>
<!-- Node4&#45;&gt;Node1 -->
<g id="edge3_Node000001_Node000004" class="edge">
<title>Node4&#45;&gt;Node1</title>
<g id="a_edge3_Node000001_Node000004"><a xlink:title=" ">
<path fill="none" stroke="#9a32cd" stroke-dasharray="5,2" d="M128.5,-116.24C128.5,-88.86 128.5,-39.08 128.5,-19.12"/>
<polygon fill="#9a32cd" stroke="#9a32cd" points="125,-116.44 128.5,-126.44 132,-116.44 125,-116.44"/>
</a>
</g>
<text text-anchor="middle" x="143" y="-78.5" font-family="Helvetica,sans-Serif" font-size="10.00" fill="grey"> size1</text>
<text text-anchor="middle" x="143" y="-67.5" font-family="Helvetica,sans-Serif" font-size="10.00" fill="grey">size2</text>
<text text-anchor="middle" x="143" y="-56.5" font-family="Helvetica,sans-Serif" font-size="10.00" fill="grey">size3</text>
</g>
<!-- Node5 -->
<g id="Node000005" class="node">
<title>Node5</title>
<g id="a_Node000005"><a xlink:title=" ">
<polygon fill="white" stroke="#666666" points="291.5,-151 169.5,-151 169.5,-121 291.5,-121 291.5,-151"/>
<text text-anchor="start" x="177.5" y="-139" font-family="Helvetica,sans-Serif" font-size="10.00">View&lt; T ****, Kokkos</text>
<text text-anchor="middle" x="230.5" y="-128" font-family="Helvetica,sans-Serif" font-size="10.00">::LayoutLeft &gt;</text>
</a>
</g>
</g>
<!-- Node5&#45;&gt;Node1 -->
<g id="edge4_Node000001_Node000005" class="edge">
<title>Node5&#45;&gt;Node1</title>
<g id="a_edge4_Node000001_Node000005"><a xlink:title=" ">
<path fill="none" stroke="#9a32cd" stroke-dasharray="5,2" d="M216.9,-112C204.04,-91.22 183.48,-60.42 161.5,-37 155.26,-30.36 147.33,-23.93 140.8,-19.07"/>
<polygon fill="#9a32cd" stroke="#9a32cd" points="214.06,-114.05 222.25,-120.77 220.03,-110.41 214.06,-114.05"/>
</a>
</g>
<text text-anchor="middle" x="224.5" y="-95" font-family="Helvetica,sans-Serif" font-size="10.00" fill="grey"> d_Xe</text>
<text text-anchor="middle" x="224.5" y="-84" font-family="Helvetica,sans-Serif" font-size="10.00" fill="grey">d_Xs</text>
<text text-anchor="middle" x="224.5" y="-73" font-family="Helvetica,sans-Serif" font-size="10.00" fill="grey">d_Ye</text>
<text text-anchor="middle" x="224.5" y="-62" font-family="Helvetica,sans-Serif" font-size="10.00" fill="grey">d_Ys</text>
<text text-anchor="middle" x="224.5" y="-51" font-family="Helvetica,sans-Serif" font-size="10.00" fill="grey">d_Ze</text>
<text text-anchor="middle" x="224.5" y="-40" font-family="Helvetica,sans-Serif" font-size="10.00" fill="grey">d_Zs</text>
</g>
<!-- Node6 -->
<g id="Node000006" class="node">
<title>Node6</title>
<g id="a_Node000006"><a xlink:title=" ">
<polygon fill="white" stroke="#666666" points="377.5,-145.5 309.5,-145.5 309.5,-126.5 377.5,-126.5 377.5,-145.5"/>
<text text-anchor="middle" x="343.5" y="-133.5" font-family="Helvetica,sans-Serif" font-size="10.00">HostMirror</text>
</a>
</g>
</g>
<!-- Node6&#45;&gt;Node1 -->
<g id="edge5_Node000001_Node000006" class="edge">
<title>Node6&#45;&gt;Node1</title>
<g id="a_edge5_Node000001_Node000006"><a xlink:title=" ">
<path fill="none" stroke="#9a32cd" stroke-dasharray="5,2" d="M331.07,-118.22C313.75,-96.09 280.2,-57.57 242.5,-37 227.25,-28.68 209.47,-22.96 192.55,-19.04"/>
<polygon fill="#9a32cd" stroke="#9a32cd" points="328.42,-120.52 337.27,-126.34 333.98,-116.27 328.42,-120.52"/>
</a>
</g>
<text text-anchor="middle" x="331.5" y="-95" font-family="Helvetica,sans-Serif" font-size="10.00" fill="grey"> h_Xe</text>
<text text-anchor="middle" x="331.5" y="-84" font-family="Helvetica,sans-Serif" font-size="10.00" fill="grey">h_Xs</text>
<text text-anchor="middle" x="331.5" y="-73" font-family="Helvetica,sans-Serif" font-size="10.00" fill="grey">h_Ye</text>
<text text-anchor="middle" x="331.5" y="-62" font-family="Helvetica,sans-Serif" font-size="10.00" fill="grey">h_Ys</text>
<text text-anchor="middle" x="331.5" y="-51" font-family="Helvetica,sans-Serif" font-size="10.00" fill="grey">h_Ze</text>
<text text-anchor="middle" x="331.5" y="-40" font-family="Helvetica,sans-Serif" font-size="10.00" fill="grey">h_Zs</text>
</g>
</g>
</svg>
