<?xml version="1.0" encoding="UTF-8" standalone="no"?>
<!DOCTYPE svg PUBLIC "-//W3C//DTD SVG 1.1//EN"
 "http://www.w3.org/Graphics/SVG/1.1/DTD/svg11.dtd">
<!-- Generated by graphviz version 2.43.0 (0)
 -->
<!-- Title: hydflux_mod::FieldArray&lt; T &gt; Pages: 1 -->
<svg width="376pt" height="137pt"
 viewBox="0.00 0.00 375.50 137.00" xmlns="http://www.w3.org/2000/svg" xmlns:xlink="http://www.w3.org/1999/xlink">
<g id="graph0" class="graph" transform="scale(1 1) rotate(0) translate(4 133)">
<title>hydflux_mod::FieldArray&lt; T &gt;</title>
<!-- Node1 -->
<g id="Node000001" class="node">
<title>Node1</title>
<g id="a_Node000001"><a xlink:title=" ">
<polygon fill="#999999" stroke="#666666" points="324,-19 160,-19 160,0 324,0 324,-19"/>
<text text-anchor="middle" x="242" y="-7" font-family="Helvetica,sans-Serif" font-size="10.00">hydflux_mod::FieldArray&lt; T &gt;</text>
</a>
</g>
</g>
<!-- Node2 -->
<g id="Node000002" class="node">
<title>Node2</title>
<g id="a_Node000002"><a xlink:title=" ">
<polygon fill="white" stroke="#666666" points="122,-129 0,-129 0,-99 122,-99 122,-129"/>
<text text-anchor="start" x="8" y="-117" font-family="Helvetica,sans-Serif" font-size="10.00">View&lt; T ****, Kokkos</text>
<text text-anchor="middle" x="61" y="-106" font-family="Helvetica,sans-Serif" font-size="10.00">::LayoutLeft &gt;</text>
</a>
</g>
</g>
<!-- Node2&#45;&gt;Node1 -->
<g id="edge1_Node000001_Node000002" class="edge">
<title>Node2&#45;&gt;Node1</title>
<g id="a_edge1_Node000001_Node000002"><a xlink:title=" ">
<path fill="none" stroke="#9a32cd" stroke-dasharray="5,2" d="M77.68,-91.07C91.9,-73.88 113.83,-50.65 138,-37 152.68,-28.71 169.98,-22.97 186.21,-19.01"/>
<polygon fill="#9a32cd" stroke="#9a32cd" points="74.88,-88.97 71.34,-98.95 80.34,-93.35 74.88,-88.97"/>
</a>
</g>
<text text-anchor="middle" x="157" y="-56.5" font-family="Helvetica,sans-Serif" font-size="10.00" fill="grey"> d_view</text>
</g>
<!-- Node3 -->
<g id="Node000003" class="node">
<title>Node3</title>
<g id="a_Node000003"><a xlink:title=" ">
<polygon fill="white" stroke="#666666" points="208,-123.5 140,-123.5 140,-104.5 208,-104.5 208,-123.5"/>
<text text-anchor="middle" x="174" y="-111.5" font-family="Helvetica,sans-Serif" font-size="10.00">HostMirror</text>
</a>
</g>
</g>
<!-- Node3&#45;&gt;Node1 -->
<g id="edge2_Node000001_Node000003" class="edge">
<title>Node3&#45;&gt;Node1</title>
<g id="a_edge2_Node000001_Node000003"><a xlink:title=" ">
<path fill="none" stroke="#9a32cd" stroke-dasharray="5,2" d="M176.83,-94.04C180.09,-77.54 186.79,-53.71 200,-37 205.99,-29.42 214.77,-23.4 222.77,-19.03"/>
<polygon fill="#9a32cd" stroke="#9a32cd" points="173.34,-93.67 175.09,-104.12 180.24,-94.86 173.34,-93.67"/>
</a>
</g>
<text text-anchor="middle" x="219" y="-56.5" font-family="Helvetica,sans-Serif" font-size="10.00" fill="grey"> h_view</text>
</g>
<!-- Node4 -->
<g id="Node000004" class="node">
<title>Node4</title>
<g id="a_Node000004"><a xlink:title=" ">
<polygon fill="white" stroke="#666666" points="257.5,-123.5 226.5,-123.5 226.5,-104.5 257.5,-104.5 257.5,-123.5"/>
<text text-anchor="middle" x="242" y="-111.5" font-family="Helvetica,sans-Serif" font-size="10.00">T *</text>
</a>
</g>
</g>
<!-- Node4&#45;&gt;Node1 -->
<g id="edge3_Node000001_Node000004" class="edge">
<title>Node4&#45;&gt;Node1</title>
<g id="a_edge3_Node000001_Node000004"><a xlink:title=" ">
<path fill="none" stroke="#9a32cd" stroke-dasharray="5,2" d="M242,-94.03C242,-71.73 242,-35.69 242,-19.22"/>
<polygon fill="#9a32cd" stroke="#9a32cd" points="238.5,-94.26 242,-104.26 245.5,-94.26 238.5,-94.26"/>
</a>
</g>
<text text-anchor="middle" x="254.5" y="-56.5" font-family="Helvetica,sans-Serif" font-size="10.00" fill="grey"> data</text>
</g>
<!-- Node5 -->
<g id="Node000005" class="node">
<title>Node5</title>
<g id="a_Node000005"><a xlink:title=" ">
<polygon fill="white" stroke="#666666" points="304.5,-123.5 275.5,-123.5 275.5,-104.5 304.5,-104.5 304.5,-123.5"/>
<text text-anchor="middle" x="290" y="-111.5" font-family="Helvetica,sans-Serif" font-size="10.00">int</text>
</a>
</g>
</g>
<!-- Node5&#45;&gt;Node1 -->
<g id="edge4_Node000001_Node000005" class="edge">
<title>Node5&#45;&gt;Node1</title>
<g id="a_edge4_Node000001_Node000005"><a xlink:title=" ">
<path fill="none" stroke="#9a32cd" stroke-dasharray="5,2" d="M287.23,-94.26C284.26,-78.22 278.48,-54.94 268,-37 264.03,-30.21 257.94,-23.87 252.65,-19.1"/>
<polygon fill="#9a32cd" stroke="#9a32cd" points="283.84,-95.19 288.93,-104.48 290.74,-94.04 283.84,-95.19"/>
</a>
</g>
<text text-anchor="middle" x="292" y="-73" font-family="Helvetica,sans-Serif" font-size="10.00" fill="grey"> n1</text>
<text text-anchor="middle" x="292" y="-62" font-family="Helvetica,sans-Serif" font-size="10.00" fill="grey">n2</text>
<text text-anchor="middle" x="292" y="-51" font-family="Helvetica,sans-Serif" font-size="10.00" fill="grey">n3</text>
<text text-anchor="middle" x="292" y="-40" font-family="Helvetica,sans-Serif" font-size="10.00" fill="grey">nv</text>
</g>
<!-- Node6 -->
<g id="Node000006" class="node">
<title>Node6</title>
<g id="a_Node000006"><a xlink:title=" ">
<polygon fill="white" stroke="#666666" points="367.5,-123.5 322.5,-123.5 322.5,-104.5 367.5,-104.5 367.5,-123.5"/>
<text text-anchor="middle" x="345" y="-111.5" font-family="Helvetica,sans-Serif" font-size="10.00">size_t</text>
</a>
</g>
</g>
<!-- Node6&#45;&gt;Node1 -->
<g id="edge5_Node000001_Node000006" class="edge">
<title>Node6&#45;&gt;Node1</title>
<g id="a_edge5_Node000001_Node000006"><a xlink:title=" ">
<path fill="none" stroke="#9a32cd" stroke-dasharray="5,2" d="M339.01,-94.44C332.7,-77.5 321.26,-52.76 304,-37 295.27,-29.03 283.78,-23.22 273.06,-19.11"/>
<polygon fill="#9a32cd" stroke="#9a32cd" points="335.84,-95.98 342.42,-104.28 342.45,-93.69 335.84,-95.98"/>
</a>
</g>
<text text-anchor="middle" x="344.5" y="-56.5" font-family="Helvetica,sans-Serif" font-size="10.00" fill="grey"> size</text>
</g>
</g>
</svg>
