<?xml version="1.0" encoding="UTF-8" standalone="no"?>
<!DOCTYPE svg PUBLIC "-//W3C//DTD SVG 1.1//EN"
 "http://www.w3.org/Graphics/SVG/1.1/DTD/svg11.dtd">
<!-- Generated by graphviz version 2.43.0 (0)
 -->
<!-- Title: src_cpp_kokkos_host/config.hpp Pages: 1 -->
<svg width="646pt" height="170pt"
 viewBox="0.00 0.00 646.00 170.00" xmlns="http://www.w3.org/2000/svg" xmlns:xlink="http://www.w3.org/1999/xlink">
<g id="graph0" class="graph" transform="scale(1 1) rotate(0) translate(4 166)">
<title>src_cpp_kokkos_host/config.hpp</title>
<!-- Node1 -->
<g id="Node000001" class="node">
<title>Node1</title>
<g id="a_Node000001"><a xlink:title=" ">
<polygon fill="#999999" stroke="#666666" points="320,-162 201,-162 201,-132 320,-132 320,-162"/>
<text text-anchor="start" x="209" y="-150" font-family="Helvetica,sans-Serif" font-size="10.00">src_cpp_kokkos_host</text>
<text text-anchor="middle" x="260.5" y="-139" font-family="Helvetica,sans-Serif" font-size="10.00">/config.hpp</text>
</a>
</g>
</g>
<!-- Node2 -->
<g id="Node000002" class="node">
<title>Node2</title>
<g id="a_Node000002"><a xlink:href="boundary_8cpp.html" target="_top" xlink:title=" ">
<polygon fill="white" stroke="#666666" points="119,-30 0,-30 0,0 119,0 119,-30"/>
<text text-anchor="start" x="8" y="-18" font-family="Helvetica,sans-Serif" font-size="10.00">src_cpp_kokkos_host</text>
<text text-anchor="middle" x="59.5" y="-7" font-family="Helvetica,sans-Serif" font-size="10.00">/boundary.cpp</text>
</a>
</g>
</g>
<!-- Node1&#45;&gt;Node2 -->
<g id="edge1_Node000001_Node000002" class="edge">
<title>Node1&#45;&gt;Node2</title>
<g id="a_edge1_Node000001_Node000002"><a xlink:title=" ">
<path fill="none" stroke="#63b8ff" d="M190.77,-137.81C139.39,-130.17 75.75,-116.78 59.5,-96 44.79,-77.18 49.84,-47.54 54.75,-30.11"/>
<polygon fill="#63b8ff" stroke="#63b8ff" points="190.47,-141.3 200.86,-139.26 191.46,-134.37 190.47,-141.3"/>
</a>
</g>
</g>
<!-- Node3 -->
<g id="Node000003" class="node">
<title>Node3</title>
<g id="a_Node000003"><a xlink:href="boundary_8hpp.html" target="_top" xlink:title=" ">
<polygon fill="white" stroke="#666666" points="188,-96 69,-96 69,-66 188,-66 188,-96"/>
<text text-anchor="start" x="77" y="-84" font-family="Helvetica,sans-Serif" font-size="10.00">src_cpp_kokkos_host</text>
<text text-anchor="middle" x="128.5" y="-73" font-family="Helvetica,sans-Serif" font-size="10.00">/boundary.hpp</text>
</a>
</g>
</g>
<!-- Node1&#45;&gt;Node3 -->
<g id="edge2_Node000001_Node000003" class="edge">
<title>Node1&#45;&gt;Node3</title>
<g id="a_edge2_Node000001_Node000003"><a xlink:title=" ">
<path fill="none" stroke="#63b8ff" d="M222.37,-127.51C201.66,-117.47 176.47,-105.26 157.4,-96.01"/>
<polygon fill="#63b8ff" stroke="#63b8ff" points="221.01,-130.74 231.53,-131.95 224.06,-124.44 221.01,-130.74"/>
</a>
</g>
</g>
<!-- Node4 -->
<g id="Node000004" class="node">
<title>Node4</title>
<g id="a_Node000004"><a xlink:href="main_8cpp.html" target="_top" xlink:title=" ">
<polygon fill="white" stroke="#666666" points="266,-30 147,-30 147,0 266,0 266,-30"/>
<text text-anchor="start" x="155" y="-18" font-family="Helvetica,sans-Serif" font-size="10.00">src_cpp_kokkos_host</text>
<text text-anchor="middle" x="206.5" y="-7" font-family="Helvetica,sans-Serif" font-size="10.00">/main.cpp</text>
</a>
</g>
</g>
<!-- Node1&#45;&gt;Node4 -->
<g id="edge5_Node000001_Node000004" class="edge">
<title>Node1&#45;&gt;Node4</title>
<g id="a_edge5_Node000001_Node000004"><a xlink:title=" ">
<path fill="none" stroke="#63b8ff" d="M248.73,-122.59C244.69,-114.27 240.25,-104.78 236.5,-96 226.78,-73.21 216.98,-46.11 211.33,-30.02"/>
<polygon fill="#63b8ff" stroke="#63b8ff" points="245.67,-124.29 253.23,-131.71 251.95,-121.2 245.67,-124.29"/>
</a>
</g>
</g>
<!-- Node5 -->
<g id="Node000005" class="node">
<title>Node5</title>
<g id="a_Node000005"><a xlink:href="mhd_8cpp.html" target="_top" xlink:title=" ">
<polygon fill="white" stroke="#666666" points="364,-96 245,-96 245,-66 364,-66 364,-96"/>
<text text-anchor="start" x="253" y="-84" font-family="Helvetica,sans-Serif" font-size="10.00">src_cpp_kokkos_host</text>
<text text-anchor="middle" x="304.5" y="-73" font-family="Helvetica,sans-Serif" font-size="10.00">/mhd.cpp</text>
</a>
</g>
</g>
<!-- Node1&#45;&gt;Node5 -->
<g id="edge6_Node000001_Node000005" class="edge">
<title>Node1&#45;&gt;Node5</title>
<g id="a_edge6_Node000001_Node000005"><a xlink:title=" ">
<path fill="none" stroke="#63b8ff" d="M275.95,-123.53C282.21,-114.43 289.24,-104.19 294.76,-96.16"/>
<polygon fill="#63b8ff" stroke="#63b8ff" points="273.05,-121.57 270.27,-131.8 278.81,-125.54 273.05,-121.57"/>
</a>
</g>
</g>
<!-- Node6 -->
<g id="Node000006" class="node">
<title>Node6</title>
<g id="a_Node000006"><a xlink:href="mpi__config_8cpp.html" target="_top" xlink:title=" ">
<polygon fill="white" stroke="#666666" points="501,-96 382,-96 382,-66 501,-66 501,-96"/>
<text text-anchor="start" x="390" y="-84" font-family="Helvetica,sans-Serif" font-size="10.00">src_cpp_kokkos_host</text>
<text text-anchor="middle" x="441.5" y="-73" font-family="Helvetica,sans-Serif" font-size="10.00">/mpi_config.cpp</text>
</a>
</g>
</g>
<!-- Node1&#45;&gt;Node6 -->
<g id="edge7_Node000001_Node000006" class="edge">
<title>Node1&#45;&gt;Node6</title>
<g id="a_edge7_Node000001_Node000006"><a xlink:title=" ">
<path fill="none" stroke="#63b8ff" d="M309.74,-128.59C338.68,-118.36 374.78,-105.59 401.87,-96.01"/>
<polygon fill="#63b8ff" stroke="#63b8ff" points="308.48,-125.32 300.22,-131.95 310.82,-131.92 308.48,-125.32"/>
</a>
</g>
</g>
<!-- Node7 -->
<g id="Node000007" class="node">
<title>Node7</title>
<g id="a_Node000007"><a xlink:href="output_8cpp.html" target="_top" xlink:title=" ">
<polygon fill="white" stroke="#666666" points="638,-96 519,-96 519,-66 638,-66 638,-96"/>
<text text-anchor="start" x="527" y="-84" font-family="Helvetica,sans-Serif" font-size="10.00">src_cpp_kokkos_host</text>
<text text-anchor="middle" x="578.5" y="-73" font-family="Helvetica,sans-Serif" font-size="10.00">/output.cpp</text>
</a>
</g>
</g>
<!-- Node1&#45;&gt;Node7 -->
<g id="edge8_Node000001_Node000007" class="edge">
<title>Node1&#45;&gt;Node7</title>
<g id="a_edge8_Node000001_Node000007"><a xlink:title=" ">
<path fill="none" stroke="#63b8ff" d="M330.21,-132.17C380.37,-122.19 449.63,-108.35 510.5,-96 513.22,-95.45 515.99,-94.88 518.8,-94.31"/>
<polygon fill="#63b8ff" stroke="#63b8ff" points="329.25,-128.79 320.12,-134.17 330.61,-135.66 329.25,-128.79"/>
</a>
</g>
</g>
<!-- Node3&#45;&gt;Node2 -->
<g id="edge3_Node000003_Node000002" class="edge">
<title>Node3&#45;&gt;Node2</title>
<g id="a_edge3_Node000003_Node000002"><a xlink:title=" ">
<path fill="none" stroke="#63b8ff" d="M105.78,-58.92C95.6,-49.49 83.87,-38.61 74.77,-30.16"/>
<polygon fill="#63b8ff" stroke="#63b8ff" points="103.47,-61.56 113.19,-65.8 108.24,-56.43 103.47,-61.56"/>
</a>
</g>
</g>
<!-- Node3&#45;&gt;Node4 -->
<g id="edge4_Node000003_Node000004" class="edge">
<title>Node3&#45;&gt;Node4</title>
<g id="a_edge4_Node000003_Node000004"><a xlink:title=" ">
<path fill="none" stroke="#63b8ff" d="M153.85,-59.2C165.43,-49.7 178.85,-38.69 189.24,-30.16"/>
<polygon fill="#63b8ff" stroke="#63b8ff" points="151.32,-56.75 145.81,-65.8 155.76,-62.16 151.32,-56.75"/>
</a>
</g>
</g>
</g>
</svg>
