<?xml version="1.0" encoding="UTF-8" standalone="no"?>
<!DOCTYPE svg PUBLIC "-//W3C//DTD SVG 1.1//EN"
 "http://www.w3.org/Graphics/SVG/1.1/DTD/svg11.dtd">
<!-- Generated by graphviz version 2.43.0 (0)
 -->
<!-- Title: src_cpp_kokkos_host/main.cpp Pages: 1 -->
<svg width="946pt" height="203pt"
 viewBox="0.00 0.00 945.92 203.00" xmlns="http://www.w3.org/2000/svg" xmlns:xlink="http://www.w3.org/1999/xlink">
<g id="graph0" class="graph" transform="scale(1 1) rotate(0) translate(4 199)">
<title>src_cpp_kokkos_host/main.cpp</title>
<!-- Node1 -->
<g id="Node000001" class="node">
<title>Node1</title>
<g id="a_Node000001"><a xlink:title=" ">
<polygon fill="#999999" stroke="#666666" points="400.42,-195 281.42,-195 281.42,-165 400.42,-165 400.42,-195"/>
<text text-anchor="start" x="289.42" y="-183" font-family="Helvetica,sans-Serif" font-size="10.00">src_cpp_kokkos_host</text>
<text text-anchor="middle" x="340.92" y="-172" font-family="Helvetica,sans-Serif" font-size="10.00">/main.cpp</text>
</a>
</g>
</g>
<!-- Node2 -->
<g id="Node000002" class="node">
<title>Node2</title>
<g id="a_Node000002"><a xlink:title=" ">
<polygon fill="#e0e0e0" stroke="#999999" points="73.42,-19 26.42,-19 26.42,0 73.42,0 73.42,-19"/>
<text text-anchor="middle" x="49.92" y="-7" font-family="Helvetica,sans-Serif" font-size="10.00">cmath</text>
</a>
</g>
</g>
<!-- Node1&#45;&gt;Node2 -->
<g id="edge1_Node000001_Node000002" class="edge">
<title>Node1&#45;&gt;Node2</title>
<g id="a_edge1_Node000001_Node000002"><a xlink:title=" ">
<path fill="none" stroke="#63b8ff" d="M281.17,-178.91C195.48,-177.36 44.22,-168.87 9.92,-129 -15.92,-98.96 15.41,-51.54 35.53,-26.77"/>
<polygon fill="#63b8ff" stroke="#63b8ff" points="38.29,-28.92 42.07,-19.03 32.94,-24.41 38.29,-28.92"/>
</a>
</g>
</g>
<!-- Node3 -->
<g id="Node000003" class="node">
<title>Node3</title>
<g id="a_Node000003"><a xlink:title=" ">
<polygon fill="#e0e0e0" stroke="#999999" points="173.92,-19 127.92,-19 127.92,0 173.92,0 173.92,-19"/>
<text text-anchor="middle" x="150.92" y="-7" font-family="Helvetica,sans-Serif" font-size="10.00">cstdio</text>
</a>
</g>
</g>
<!-- Node1&#45;&gt;Node3 -->
<g id="edge2_Node000001_Node000003" class="edge">
<title>Node1&#45;&gt;Node3</title>
<g id="a_edge2_Node000001_Node000003"><a xlink:title=" ">
<path fill="none" stroke="#63b8ff" d="M281.25,-178.52C198.3,-176.43 54.63,-167.23 21.92,-129 -14.68,-86.21 69.15,-43.33 118.34,-22.87"/>
<polygon fill="#63b8ff" stroke="#63b8ff" points="119.72,-26.09 127.68,-19.09 117.09,-19.6 119.72,-26.09"/>
</a>
</g>
</g>
<!-- Node4 -->
<g id="Node000004" class="node">
<title>Node4</title>
<g id="a_Node000004"><a xlink:title=" ">
<polygon fill="#e0e0e0" stroke="#999999" points="80.92,-129 30.92,-129 30.92,-110 80.92,-110 80.92,-129"/>
<text text-anchor="middle" x="55.92" y="-117" font-family="Helvetica,sans-Serif" font-size="10.00">cstring</text>
</a>
</g>
</g>
<!-- Node1&#45;&gt;Node4 -->
<g id="edge3_Node000001_Node000004" class="edge">
<title>Node1&#45;&gt;Node4</title>
<g id="a_edge3_Node000001_Node000004"><a xlink:title=" ">
<path fill="none" stroke="#63b8ff" d="M281.42,-167.99C232.74,-158.78 161.88,-144.96 91.12,-129.19"/>
<polygon fill="#63b8ff" stroke="#63b8ff" points="91.66,-125.72 81.14,-126.95 90.13,-132.55 91.66,-125.72"/>
</a>
</g>
</g>
<!-- Node5 -->
<g id="Node000005" class="node">
<title>Node5</title>
<g id="a_Node000005"><a xlink:title=" ">
<polygon fill="#e0e0e0" stroke="#999999" points="146.42,-129 99.42,-129 99.42,-110 146.42,-110 146.42,-129"/>
<text text-anchor="middle" x="122.92" y="-117" font-family="Helvetica,sans-Serif" font-size="10.00">cerrno</text>
</a>
</g>
</g>
<!-- Node1&#45;&gt;Node5 -->
<g id="edge4_Node000001_Node000005" class="edge">
<title>Node1&#45;&gt;Node5</title>
<g id="a_edge4_Node000001_Node000005"><a xlink:title=" ">
<path fill="none" stroke="#63b8ff" d="M288.71,-164.99C247.66,-153.97 191.72,-138.96 156.46,-129.5"/>
<polygon fill="#63b8ff" stroke="#63b8ff" points="157.22,-126.08 146.66,-126.87 155.41,-132.84 157.22,-126.08"/>
</a>
</g>
</g>
<!-- Node6 -->
<g id="Node000006" class="node">
<title>Node6</title>
<g id="a_Node000006"><a xlink:title=" ">
<polygon fill="#e0e0e0" stroke="#999999" points="518.92,-19 454.92,-19 454.92,0 518.92,0 518.92,-19"/>
<text text-anchor="middle" x="486.92" y="-7" font-family="Helvetica,sans-Serif" font-size="10.00">algorithm</text>
</a>
</g>
</g>
<!-- Node1&#45;&gt;Node6 -->
<g id="edge5_Node000001_Node000006" class="edge">
<title>Node1&#45;&gt;Node6</title>
<g id="a_edge5_Node000001_Node000006"><a xlink:title=" ">
<path fill="none" stroke="#63b8ff" d="M400.59,-168.6C424.62,-161.41 450.49,-149.31 466.92,-129 490.13,-100.3 490.82,-54.68 489.02,-29.23"/>
<polygon fill="#63b8ff" stroke="#63b8ff" points="492.49,-28.73 488.09,-19.09 485.52,-29.36 492.49,-28.73"/>
</a>
</g>
</g>
<!-- Node7 -->
<g id="Node000007" class="node">
<title>Node7</title>
<g id="a_Node000007"><a xlink:title=" ">
<polygon fill="#e0e0e0" stroke="#999999" points="252.92,-129 202.92,-129 202.92,-110 252.92,-110 252.92,-129"/>
<text text-anchor="middle" x="227.92" y="-117" font-family="Helvetica,sans-Serif" font-size="10.00">chrono</text>
</a>
</g>
</g>
<!-- Node1&#45;&gt;Node7 -->
<g id="edge6_Node000001_Node000007" class="edge">
<title>Node1&#45;&gt;Node7</title>
<g id="a_edge6_Node000001_Node000007"><a xlink:title=" ">
<path fill="none" stroke="#63b8ff" d="M313.86,-164.99C295.68,-155.58 271.85,-143.24 253.9,-133.95"/>
<polygon fill="#63b8ff" stroke="#63b8ff" points="255.1,-130.63 244.61,-129.14 251.88,-136.84 255.1,-130.63"/>
</a>
</g>
</g>
<!-- Node8 -->
<g id="Node000008" class="node">
<title>Node8</title>
<g id="a_Node000008"><a xlink:title=" ">
<polygon fill="#e0e0e0" stroke="#999999" points="324.92,-129 270.92,-129 270.92,-110 324.92,-110 324.92,-129"/>
<text text-anchor="middle" x="297.92" y="-117" font-family="Helvetica,sans-Serif" font-size="10.00">random</text>
</a>
</g>
</g>
<!-- Node1&#45;&gt;Node8 -->
<g id="edge7_Node000001_Node000008" class="edge">
<title>Node1&#45;&gt;Node8</title>
<g id="a_edge7_Node000001_Node000008"><a xlink:title=" ">
<path fill="none" stroke="#63b8ff" d="M330.51,-164.84C324.46,-156.61 316.8,-146.18 310.42,-137.51"/>
<polygon fill="#63b8ff" stroke="#63b8ff" points="313.11,-135.25 304.37,-129.27 307.47,-139.4 313.11,-135.25"/>
</a>
</g>
</g>
<!-- Node9 -->
<g id="Node000009" class="node">
<title>Node9</title>
<g id="a_Node000009"><a xlink:title=" ">
<polygon fill="#e0e0e0" stroke="#999999" points="340.92,-19 240.92,-19 240.92,0 340.92,0 340.92,-19"/>
<text text-anchor="middle" x="290.92" y="-7" font-family="Helvetica,sans-Serif" font-size="10.00">Kokkos_Core.hpp</text>
</a>
</g>
</g>
<!-- Node1&#45;&gt;Node9 -->
<g id="edge8_Node000001_Node000009" class="edge">
<title>Node1&#45;&gt;Node9</title>
<g id="a_edge8_Node000001_Node000009"><a xlink:title=" ">
<path fill="none" stroke="#63b8ff" d="M400.53,-165.1C419.26,-157.62 437.91,-146.24 448.92,-129 466.63,-101.29 468.78,-81.22 448.92,-55 436.83,-39.03 390.37,-27.18 350.93,-19.74"/>
<polygon fill="#63b8ff" stroke="#63b8ff" points="351.55,-16.3 341.08,-17.95 350.29,-23.18 351.55,-16.3"/>
</a>
</g>
</g>
<!-- Node10 -->
<g id="Node000010" class="node">
<title>Node10</title>
<g id="a_Node000010"><a xlink:href="config_8hpp.html" target="_top" xlink:title=" ">
<polygon fill="white" stroke="#666666" points="439.42,-74 372.42,-74 372.42,-55 439.42,-55 439.42,-74"/>
<text text-anchor="middle" x="405.92" y="-62" font-family="Helvetica,sans-Serif" font-size="10.00">config.hpp</text>
</a>
</g>
</g>
<!-- Node1&#45;&gt;Node10 -->
<g id="edge9_Node000001_Node000010" class="edge">
<title>Node1&#45;&gt;Node10</title>
<g id="a_edge9_Node000001_Node000010"><a xlink:title=" ">
<path fill="none" stroke="#63b8ff" d="M389.02,-164.8C406.29,-157.12 423.95,-145.68 433.92,-129 443.05,-113.73 432.33,-94.95 421.63,-81.79"/>
<polygon fill="#63b8ff" stroke="#63b8ff" points="424.04,-79.23 414.8,-74.04 418.79,-83.86 424.04,-79.23"/>
</a>
</g>
</g>
<!-- Node11 -->
<g id="Node000011" class="node">
<title>Node11</title>
<g id="a_Node000011"><a xlink:href="mpi__config_8hpp.html" target="_top" xlink:title=" ">
<polygon fill="white" stroke="#666666" points="648.42,-74 557.42,-74 557.42,-55 648.42,-55 648.42,-74"/>
<text text-anchor="middle" x="602.92" y="-62" font-family="Helvetica,sans-Serif" font-size="10.00">mpi_config.hpp</text>
</a>
</g>
</g>
<!-- Node1&#45;&gt;Node11 -->
<g id="edge10_Node000001_Node000011" class="edge">
<title>Node1&#45;&gt;Node11</title>
<g id="a_edge10_Node000001_Node000011"><a xlink:title=" ">
<path fill="none" stroke="#63b8ff" d="M400.85,-173.21C442.92,-167.05 499.24,-154.49 542.92,-129 562.88,-117.35 580.34,-97.07 591.2,-82.57"/>
<polygon fill="#63b8ff" stroke="#63b8ff" points="594.07,-84.57 597.07,-74.41 588.39,-80.48 594.07,-84.57"/>
</a>
</g>
</g>
<!-- Node14 -->
<g id="Node000014" class="node">
<title>Node14</title>
<g id="a_Node000014"><a xlink:href="mhd_8hpp.html" target="_top" xlink:title=" ">
<polygon fill="white" stroke="#666666" points="252.42,-74 193.42,-74 193.42,-55 252.42,-55 252.42,-74"/>
<text text-anchor="middle" x="222.92" y="-62" font-family="Helvetica,sans-Serif" font-size="10.00">mhd.hpp</text>
</a>
</g>
</g>
<!-- Node1&#45;&gt;Node14 -->
<g id="edge13_Node000001_Node000014" class="edge">
<title>Node1&#45;&gt;Node14</title>
<g id="a_edge13_Node000001_Node000014"><a xlink:title=" ">
<path fill="none" stroke="#63b8ff" d="M281.37,-174.84C249.9,-169.26 213.78,-156.72 193.92,-129 183.4,-114.31 194.97,-95.2 206.46,-81.8"/>
<polygon fill="#63b8ff" stroke="#63b8ff" points="209.19,-84 213.41,-74.28 204.05,-79.24 209.19,-84"/>
</a>
</g>
</g>
<!-- Node15 -->
<g id="Node000015" class="node">
<title>Node15</title>
<g id="a_Node000015"><a xlink:href="boundary_8hpp.html" target="_top" xlink:title=" ">
<polygon fill="white" stroke="#666666" points="424.92,-129 342.92,-129 342.92,-110 424.92,-110 424.92,-129"/>
<text text-anchor="middle" x="383.92" y="-117" font-family="Helvetica,sans-Serif" font-size="10.00">boundary.hpp</text>
</a>
</g>
</g>
<!-- Node1&#45;&gt;Node15 -->
<g id="edge18_Node000001_Node000015" class="edge">
<title>Node1&#45;&gt;Node15</title>
<g id="a_edge18_Node000001_Node000015"><a xlink:title=" ">
<path fill="none" stroke="#63b8ff" d="M351.33,-164.84C357.38,-156.61 365.05,-146.18 371.42,-137.51"/>
<polygon fill="#63b8ff" stroke="#63b8ff" points="374.38,-139.4 377.48,-129.27 368.74,-135.25 374.38,-139.4"/>
</a>
</g>
</g>
<!-- Node16 -->
<g id="Node000016" class="node">
<title>Node16</title>
<g id="a_Node000016"><a xlink:href="output_8hpp.html" target="_top" xlink:title=" ">
<polygon fill="white" stroke="#666666" points="664.42,-129 595.42,-129 595.42,-110 664.42,-110 664.42,-129"/>
<text text-anchor="middle" x="629.92" y="-117" font-family="Helvetica,sans-Serif" font-size="10.00">output.hpp</text>
</a>
</g>
</g>
<!-- Node1&#45;&gt;Node16 -->
<g id="edge21_Node000001_Node000016" class="edge">
<title>Node1&#45;&gt;Node16</title>
<g id="a_edge21_Node000001_Node000016"><a xlink:title=" ">
<path fill="none" stroke="#63b8ff" d="M400.45,-166.95C455.37,-155.83 535.68,-139.58 585.28,-129.54"/>
<polygon fill="#63b8ff" stroke="#63b8ff" points="586.27,-132.91 595.38,-127.49 584.88,-126.05 586.27,-132.91"/>
</a>
</g>
</g>
<!-- Node17 -->
<g id="Node000017" class="node">
<title>Node17</title>
<g id="a_Node000017"><a xlink:href="main_8hpp.html" target="_top" xlink:title=" ">
<polygon fill="white" stroke="#666666" points="746.92,-129 684.92,-129 684.92,-110 746.92,-110 746.92,-129"/>
<text text-anchor="middle" x="715.92" y="-117" font-family="Helvetica,sans-Serif" font-size="10.00">main.hpp</text>
</a>
</g>
</g>
<!-- Node1&#45;&gt;Node17 -->
<g id="edge23_Node000001_Node000017" class="edge">
<title>Node1&#45;&gt;Node17</title>
<g id="a_edge23_Node000001_Node000017"><a xlink:title=" ">
<path fill="none" stroke="#63b8ff" d="M400.62,-170.96C467.38,-161.76 578.64,-145.78 673.92,-129 674.25,-128.94 674.58,-128.88 674.92,-128.82"/>
<polygon fill="#63b8ff" stroke="#63b8ff" points="675.57,-132.26 684.76,-126.99 674.29,-125.38 675.57,-132.26"/>
</a>
</g>
</g>
<!-- Node12 -->
<g id="Node000012" class="node">
<title>Node12</title>
<g id="a_Node000012"><a xlink:title=" ">
<polygon fill="#e0e0e0" stroke="#999999" points="580.92,-19 536.92,-19 536.92,0 580.92,0 580.92,-19"/>
<text text-anchor="middle" x="558.92" y="-7" font-family="Helvetica,sans-Serif" font-size="10.00">mpi.h</text>
</a>
</g>
</g>
<!-- Node11&#45;&gt;Node12 -->
<g id="edge11_Node000011_Node000012" class="edge">
<title>Node11&#45;&gt;Node12</title>
<g id="a_edge11_Node000011_Node000012"><a xlink:title=" ">
<path fill="none" stroke="#63b8ff" d="M595.66,-54.75C589.38,-47.18 580.13,-36.05 572.49,-26.84"/>
<polygon fill="#63b8ff" stroke="#63b8ff" points="575.13,-24.55 566.05,-19.09 569.75,-29.02 575.13,-24.55"/>
</a>
</g>
</g>
<!-- Node13 -->
<g id="Node000013" class="node">
<title>Node13</title>
<g id="a_Node000013"><a xlink:title=" ">
<polygon fill="#e0e0e0" stroke="#999999" points="652.42,-19 599.42,-19 599.42,0 652.42,0 652.42,-19"/>
<text text-anchor="middle" x="625.92" y="-7" font-family="Helvetica,sans-Serif" font-size="10.00">cstddef</text>
</a>
</g>
</g>
<!-- Node11&#45;&gt;Node13 -->
<g id="edge12_Node000011_Node000013" class="edge">
<title>Node11&#45;&gt;Node13</title>
<g id="a_edge12_Node000011_Node000013"><a xlink:title=" ">
<path fill="none" stroke="#63b8ff" d="M606.72,-54.75C609.83,-47.57 614.34,-37.18 618.21,-28.27"/>
<polygon fill="#63b8ff" stroke="#63b8ff" points="621.42,-29.66 622.19,-19.09 615,-26.87 621.42,-29.66"/>
</a>
</g>
</g>
<!-- Node14&#45;&gt;Node2 -->
<g id="edge14_Node000014_Node000002" class="edge">
<title>Node14&#45;&gt;Node2</title>
<g id="a_edge14_Node000014_Node000002"><a xlink:title=" ">
<path fill="none" stroke="#63b8ff" d="M195.13,-54.98C164.7,-45.66 115.93,-30.72 83.42,-20.76"/>
<polygon fill="#63b8ff" stroke="#63b8ff" points="84.07,-17.3 73.48,-17.72 82.02,-23.99 84.07,-17.3"/>
</a>
</g>
</g>
<!-- Node14&#45;&gt;Node3 -->
<g id="edge15_Node000014_Node000003" class="edge">
<title>Node14&#45;&gt;Node3</title>
<g id="a_edge15_Node000014_Node000003"><a xlink:title=" ">
<path fill="none" stroke="#63b8ff" d="M211.35,-54.98C200.5,-47 184.04,-34.88 171.04,-25.31"/>
<polygon fill="#63b8ff" stroke="#63b8ff" points="172.83,-22.28 162.7,-19.17 168.68,-27.92 172.83,-22.28"/>
</a>
</g>
</g>
<!-- Node14&#45;&gt;Node6 -->
<g id="edge16_Node000014_Node000006" class="edge">
<title>Node14&#45;&gt;Node6</title>
<g id="a_edge16_Node000014_Node000006"><a xlink:title=" ">
<path fill="none" stroke="#63b8ff" d="M252.44,-57.57C299.33,-48.16 391.04,-29.75 444.82,-18.95"/>
<polygon fill="#63b8ff" stroke="#63b8ff" points="445.61,-22.36 454.72,-16.96 444.23,-15.5 445.61,-22.36"/>
</a>
</g>
</g>
<!-- Node14&#45;&gt;Node9 -->
<g id="edge17_Node000014_Node000009" class="edge">
<title>Node14&#45;&gt;Node9</title>
<g id="a_edge17_Node000014_Node000009"><a xlink:title=" ">
<path fill="none" stroke="#63b8ff" d="M233.85,-54.98C244,-47.07 259.34,-35.11 271.57,-25.58"/>
<polygon fill="#63b8ff" stroke="#63b8ff" points="274.06,-28.08 279.8,-19.17 269.76,-22.56 274.06,-28.08"/>
</a>
</g>
</g>
<!-- Node15&#45;&gt;Node10 -->
<g id="edge19_Node000015_Node000010" class="edge">
<title>Node15&#45;&gt;Node10</title>
<g id="a_edge19_Node000015_Node000010"><a xlink:title=" ">
<path fill="none" stroke="#63b8ff" d="M387.55,-109.75C390.5,-102.65 394.76,-92.4 398.43,-83.56"/>
<polygon fill="#63b8ff" stroke="#63b8ff" points="401.76,-84.67 402.36,-74.09 395.29,-81.98 401.76,-84.67"/>
</a>
</g>
</g>
<!-- Node15&#45;&gt;Node14 -->
<g id="edge20_Node000015_Node000014" class="edge">
<title>Node15&#45;&gt;Node14</title>
<g id="a_edge20_Node000015_Node000014"><a xlink:title=" ">
<path fill="none" stroke="#63b8ff" d="M358.05,-109.98C331.14,-101.13 288.8,-87.19 258.69,-77.28"/>
<polygon fill="#63b8ff" stroke="#63b8ff" points="259.59,-73.88 248.99,-74.08 257.4,-80.53 259.59,-73.88"/>
</a>
</g>
</g>
<!-- Node16&#45;&gt;Node11 -->
<g id="edge22_Node000016_Node000011" class="edge">
<title>Node16&#45;&gt;Node11</title>
<g id="a_edge22_Node000016_Node000011"><a xlink:title=" ">
<path fill="none" stroke="#63b8ff" d="M625.46,-109.75C621.81,-102.57 616.51,-92.18 611.97,-83.27"/>
<polygon fill="#63b8ff" stroke="#63b8ff" points="614.96,-81.41 607.3,-74.09 608.72,-84.59 614.96,-81.41"/>
</a>
</g>
</g>
<!-- Node18 -->
<g id="Node000018" class="node">
<title>Node18</title>
<g id="a_Node000018"><a xlink:href="hydro__arrays_8hpp.html" target="_top" xlink:title=" ">
<polygon fill="white" stroke="#666666" points="767.42,-74 666.42,-74 666.42,-55 767.42,-55 767.42,-74"/>
<text text-anchor="middle" x="716.92" y="-62" font-family="Helvetica,sans-Serif" font-size="10.00">hydro_arrays.hpp</text>
</a>
</g>
</g>
<!-- Node17&#45;&gt;Node18 -->
<g id="edge24_Node000017_Node000018" class="edge">
<title>Node17&#45;&gt;Node18</title>
<g id="a_edge24_Node000017_Node000018"><a xlink:title=" ">
<path fill="none" stroke="#63b8ff" d="M716.09,-109.75C716.22,-102.8 716.41,-92.85 716.57,-84.13"/>
<polygon fill="#63b8ff" stroke="#63b8ff" points="720.07,-84.15 716.76,-74.09 713.07,-84.02 720.07,-84.15"/>
</a>
</g>
</g>
<!-- Node18&#45;&gt;Node6 -->
<g id="edge28_Node000018_Node000006" class="edge">
<title>Node18&#45;&gt;Node6</title>
<g id="a_edge28_Node000018_Node000006"><a xlink:title=" ">
<path fill="none" stroke="#63b8ff" d="M679.97,-54.98C638.71,-45.48 572.06,-30.12 528.87,-20.17"/>
<polygon fill="#63b8ff" stroke="#63b8ff" points="529.49,-16.72 518.96,-17.88 527.92,-23.54 529.49,-16.72"/>
</a>
</g>
</g>
<!-- Node18&#45;&gt;Node13 -->
<g id="edge27_Node000018_Node000013" class="edge">
<title>Node18&#45;&gt;Node13</title>
<g id="a_edge27_Node000018_Node000013"><a xlink:title=" ">
<path fill="none" stroke="#63b8ff" d="M702.3,-54.98C688.06,-46.69 666.17,-33.94 649.47,-24.22"/>
<polygon fill="#63b8ff" stroke="#63b8ff" points="651.21,-21.18 640.81,-19.17 647.69,-27.23 651.21,-21.18"/>
</a>
</g>
</g>
<!-- Node19 -->
<g id="Node000019" class="node">
<title>Node19</title>
<g id="a_Node000019"><a xlink:title=" ">
<polygon fill="#e0e0e0" stroke="#999999" points="867.42,-19 820.42,-19 820.42,0 867.42,0 867.42,-19"/>
<text text-anchor="middle" x="843.92" y="-7" font-family="Helvetica,sans-Serif" font-size="10.00">vector</text>
</a>
</g>
</g>
<!-- Node18&#45;&gt;Node19 -->
<g id="edge25_Node000018_Node000019" class="edge">
<title>Node18&#45;&gt;Node19</title>
<g id="a_edge25_Node000018_Node000019"><a xlink:title=" ">
<path fill="none" stroke="#63b8ff" d="M737.33,-54.98C757.94,-46.38 790.03,-32.99 813.62,-23.15"/>
<polygon fill="#63b8ff" stroke="#63b8ff" points="815.27,-26.25 823.15,-19.17 812.57,-19.79 815.27,-26.25"/>
</a>
</g>
</g>
<!-- Node20 -->
<g id="Node000020" class="node">
<title>Node20</title>
<g id="a_Node000020"><a xlink:title=" ">
<polygon fill="#e0e0e0" stroke="#999999" points="937.92,-19 885.92,-19 885.92,0 937.92,0 937.92,-19"/>
<text text-anchor="middle" x="911.92" y="-7" font-family="Helvetica,sans-Serif" font-size="10.00">cassert</text>
</a>
</g>
</g>
<!-- Node18&#45;&gt;Node20 -->
<g id="edge26_Node000018_Node000020" class="edge">
<title>Node18&#45;&gt;Node20</title>
<g id="a_edge26_Node000018_Node000020"><a xlink:title=" ">
<path fill="none" stroke="#63b8ff" d="M748.25,-54.98C783.09,-45.52 839.26,-30.25 875.89,-20.29"/>
<polygon fill="#63b8ff" stroke="#63b8ff" points="876.94,-23.64 885.67,-17.63 875.1,-16.88 876.94,-23.64"/>
</a>
</g>
</g>
<!-- Node21 -->
<g id="Node000021" class="node">
<title>Node21</title>
<g id="a_Node000021"><a xlink:title=" ">
<polygon fill="#e0e0e0" stroke="#999999" points="715.42,-19 670.42,-19 670.42,0 715.42,0 715.42,-19"/>
<text text-anchor="middle" x="692.92" y="-7" font-family="Helvetica,sans-Serif" font-size="10.00">utility</text>
</a>
</g>
</g>
<!-- Node18&#45;&gt;Node21 -->
<g id="edge29_Node000018_Node000021" class="edge">
<title>Node18&#45;&gt;Node21</title>
<g id="a_edge29_Node000018_Node000021"><a xlink:title=" ">
<path fill="none" stroke="#63b8ff" d="M712.96,-54.75C709.71,-47.57 705,-37.18 700.97,-28.27"/>
<polygon fill="#63b8ff" stroke="#63b8ff" points="704.12,-26.75 696.81,-19.09 697.75,-29.64 704.12,-26.75"/>
</a>
</g>
</g>
<!-- Node22 -->
<g id="Node000022" class="node">
<title>Node22</title>
<g id="a_Node000022"><a xlink:title=" ">
<polygon fill="#e0e0e0" stroke="#999999" points="802.42,-19 733.42,-19 733.42,0 802.42,0 802.42,-19"/>
<text text-anchor="middle" x="767.92" y="-7" font-family="Helvetica,sans-Serif" font-size="10.00">type_traits</text>
</a>
</g>
</g>
<!-- Node18&#45;&gt;Node22 -->
<g id="edge30_Node000018_Node000022" class="edge">
<title>Node18&#45;&gt;Node22</title>
<g id="a_edge30_Node000018_Node000022"><a xlink:title=" ">
<path fill="none" stroke="#63b8ff" d="M725.34,-54.75C732.7,-47.11 743.55,-35.82 752.46,-26.56"/>
<polygon fill="#63b8ff" stroke="#63b8ff" points="755.25,-28.72 759.66,-19.09 750.2,-23.87 755.25,-28.72"/>
</a>
</g>
</g>
</g>
</svg>
