<?xml version="1.0" encoding="UTF-8" standalone="no"?>
<!DOCTYPE svg PUBLIC "-//W3C//DTD SVG 1.1//EN"
 "http://www.w3.org/Graphics/SVG/1.1/DTD/svg11.dtd">
<!-- Generated by graphviz version 2.43.0 (0)
 -->
<!-- Title: src_cpp_kokkos_host/mhd.hpp Pages: 1 -->
<svg width="509pt" height="170pt"
 viewBox="0.00 0.00 509.00 170.00" xmlns="http://www.w3.org/2000/svg" xmlns:xlink="http://www.w3.org/1999/xlink">
<g id="graph0" class="graph" transform="scale(1 1) rotate(0) translate(4 166)">
<title>src_cpp_kokkos_host/mhd.hpp</title>
<!-- Node1 -->
<g id="Node000001" class="node">
<title>Node1</title>
<g id="a_Node000001"><a xlink:title=" ">
<polygon fill="#999999" stroke="#666666" points="276,-162 157,-162 157,-132 276,-132 276,-162"/>
<text text-anchor="start" x="165" y="-150" font-family="Helvetica,sans-Serif" font-size="10.00">src_cpp_kokkos_host</text>
<text text-anchor="middle" x="216.5" y="-139" font-family="Helvetica,sans-Serif" font-size="10.00">/mhd.hpp</text>
</a>
</g>
</g>
<!-- Node2 -->
<g id="Node000002" class="node">
<title>Node2</title>
<g id="a_Node000002"><a xlink:href="boundary_8cpp.html" target="_top" xlink:title=" ">
<polygon fill="white" stroke="#666666" points="119,-30 0,-30 0,0 119,0 119,-30"/>
<text text-anchor="start" x="8" y="-18" font-family="Helvetica,sans-Serif" font-size="10.00">src_cpp_kokkos_host</text>
<text text-anchor="middle" x="59.5" y="-7" font-family="Helvetica,sans-Serif" font-size="10.00">/boundary.cpp</text>
</a>
</g>
</g>
<!-- Node1&#45;&gt;Node2 -->
<g id="edge1_Node000001_Node000002" class="edge">
<title>Node1&#45;&gt;Node2</title>
<g id="a_edge1_Node000001_Node000002"><a xlink:title=" ">
<path fill="none" stroke="#63b8ff" d="M146.72,-141.93C114.72,-136.14 79.53,-123.4 59.5,-96 45.48,-76.83 50.19,-47.57 54.86,-30.26"/>
<polygon fill="#63b8ff" stroke="#63b8ff" points="146.54,-145.45 156.97,-143.57 147.65,-138.53 146.54,-145.45"/>
</a>
</g>
</g>
<!-- Node3 -->
<g id="Node000003" class="node">
<title>Node3</title>
<g id="a_Node000003"><a xlink:href="boundary_8hpp.html" target="_top" xlink:title=" ">
<polygon fill="white" stroke="#666666" points="188,-96 69,-96 69,-66 188,-66 188,-96"/>
<text text-anchor="start" x="77" y="-84" font-family="Helvetica,sans-Serif" font-size="10.00">src_cpp_kokkos_host</text>
<text text-anchor="middle" x="128.5" y="-73" font-family="Helvetica,sans-Serif" font-size="10.00">/boundary.hpp</text>
</a>
</g>
</g>
<!-- Node1&#45;&gt;Node3 -->
<g id="edge2_Node000001_Node000003" class="edge">
<title>Node1&#45;&gt;Node3</title>
<g id="a_edge2_Node000001_Node000003"><a xlink:title=" ">
<path fill="none" stroke="#63b8ff" d="M188.66,-125.75C175.43,-116.13 159.93,-104.86 147.98,-96.16"/>
<polygon fill="#63b8ff" stroke="#63b8ff" points="186.82,-128.75 196.97,-131.8 190.94,-123.08 186.82,-128.75"/>
</a>
</g>
</g>
<!-- Node4 -->
<g id="Node000004" class="node">
<title>Node4</title>
<g id="a_Node000004"><a xlink:href="main_8cpp.html" target="_top" xlink:title=" ">
<polygon fill="white" stroke="#666666" points="266,-30 147,-30 147,0 266,0 266,-30"/>
<text text-anchor="start" x="155" y="-18" font-family="Helvetica,sans-Serif" font-size="10.00">src_cpp_kokkos_host</text>
<text text-anchor="middle" x="206.5" y="-7" font-family="Helvetica,sans-Serif" font-size="10.00">/main.cpp</text>
</a>
</g>
</g>
<!-- Node1&#45;&gt;Node4 -->
<g id="edge5_Node000001_Node000004" class="edge">
<title>Node1&#45;&gt;Node4</title>
<g id="a_edge5_Node000001_Node000004"><a xlink:title=" ">
<path fill="none" stroke="#63b8ff" d="M214.63,-121.68C212.55,-94.7 209.28,-52.11 207.59,-30.14"/>
<polygon fill="#63b8ff" stroke="#63b8ff" points="211.15,-122.14 215.41,-131.84 218.13,-121.6 211.15,-122.14"/>
</a>
</g>
</g>
<!-- Node5 -->
<g id="Node000005" class="node">
<title>Node5</title>
<g id="a_Node000005"><a xlink:href="mhd_8cpp.html" target="_top" xlink:title=" ">
<polygon fill="white" stroke="#666666" points="364,-96 245,-96 245,-66 364,-66 364,-96"/>
<text text-anchor="start" x="253" y="-84" font-family="Helvetica,sans-Serif" font-size="10.00">src_cpp_kokkos_host</text>
<text text-anchor="middle" x="304.5" y="-73" font-family="Helvetica,sans-Serif" font-size="10.00">/mhd.cpp</text>
</a>
</g>
</g>
<!-- Node1&#45;&gt;Node5 -->
<g id="edge6_Node000001_Node000005" class="edge">
<title>Node1&#45;&gt;Node5</title>
<g id="a_edge6_Node000001_Node000005"><a xlink:title=" ">
<path fill="none" stroke="#63b8ff" d="M244.34,-125.75C257.57,-116.13 273.07,-104.86 285.02,-96.16"/>
<polygon fill="#63b8ff" stroke="#63b8ff" points="242.06,-123.08 236.03,-131.8 246.18,-128.75 242.06,-123.08"/>
</a>
</g>
</g>
<!-- Node6 -->
<g id="Node000006" class="node">
<title>Node6</title>
<g id="a_Node000006"><a xlink:href="output_8cpp.html" target="_top" xlink:title=" ">
<polygon fill="white" stroke="#666666" points="501,-96 382,-96 382,-66 501,-66 501,-96"/>
<text text-anchor="start" x="390" y="-84" font-family="Helvetica,sans-Serif" font-size="10.00">src_cpp_kokkos_host</text>
<text text-anchor="middle" x="441.5" y="-73" font-family="Helvetica,sans-Serif" font-size="10.00">/output.cpp</text>
</a>
</g>
</g>
<!-- Node1&#45;&gt;Node6 -->
<g id="edge7_Node000001_Node000006" class="edge">
<title>Node1&#45;&gt;Node6</title>
<g id="a_edge7_Node000001_Node000006"><a xlink:title=" ">
<path fill="none" stroke="#63b8ff" d="M275.84,-129.12C312.12,-118.8 357.97,-105.76 392.24,-96.01"/>
<polygon fill="#63b8ff" stroke="#63b8ff" points="274.54,-125.85 265.88,-131.95 276.45,-132.59 274.54,-125.85"/>
</a>
</g>
</g>
<!-- Node3&#45;&gt;Node2 -->
<g id="edge3_Node000003_Node000002" class="edge">
<title>Node3&#45;&gt;Node2</title>
<g id="a_edge3_Node000003_Node000002"><a xlink:title=" ">
<path fill="none" stroke="#63b8ff" d="M105.78,-58.92C95.6,-49.49 83.87,-38.61 74.77,-30.16"/>
<polygon fill="#63b8ff" stroke="#63b8ff" points="103.47,-61.56 113.19,-65.8 108.24,-56.43 103.47,-61.56"/>
</a>
</g>
</g>
<!-- Node3&#45;&gt;Node4 -->
<g id="edge4_Node000003_Node000004" class="edge">
<title>Node3&#45;&gt;Node4</title>
<g id="a_edge4_Node000003_Node000004"><a xlink:title=" ">
<path fill="none" stroke="#63b8ff" d="M153.85,-59.2C165.43,-49.7 178.85,-38.69 189.24,-30.16"/>
<polygon fill="#63b8ff" stroke="#63b8ff" points="151.32,-56.75 145.81,-65.8 155.76,-62.16 151.32,-56.75"/>
</a>
</g>
</g>
</g>
</svg>
