<?xml version="1.0" encoding="UTF-8" standalone="no"?>
<!DOCTYPE svg PUBLIC "-//W3C//DTD SVG 1.1//EN"
 "http://www.w3.org/Graphics/SVG/1.1/DTD/svg11.dtd">
<!-- Generated by graphviz version 2.43.0 (0)
 -->
<!-- Title: src_cpp_omp_device/boundary.cpp Pages: 1 -->
<!--zoomable 203 -->

<svg id="main" version="1.1" xmlns="http://www.w3.org/2000/svg" xmlns:xlink="http://www.w3.org/1999/xlink" xml:space="preserve" onload="init(evt)">
<style type="text/css"><![CDATA[
.node, .edge {opacity: 0.7;}
.node.selected, .edge.selected {opacity: 1;}
.edge:hover path { stroke: red; }
.edge:hover polygon { stroke: red; fill: red; }
]]></style>

<defs>
  <circle id="rim" cx="0" cy="0" r="7"/>
  <circle id="rim2" cx="0" cy="0" r="3.5"/>
  <g id="zoomPlus">
    <use xlink:href="#rim" fill="#404040"><set attributeName="fill" to="#808080" begin="zoomplus.mouseover" end="zoomplus.mouseout"/></use>
    <path d="M-4,0h8M0,-4v8" fill="none" stroke="white" stroke-width="1.5" pointer-events="none"/>
  </g>
  <g id="zoomMin">
    <use xlink:href="#rim" fill="#404040"><set attributeName="fill" to="#808080" begin="zoomminus.mouseover" end="zoomminus.mouseout"/></use>
    <path d="M-4,0h8" fill="none" stroke="white" stroke-width="1.5" pointer-events="none"/>
  </g>
  <g id="arrowUp" transform="translate(30 24)">
    <use xlink:href="#rim"/>
    <path pointer-events="none" fill="none" stroke="white" stroke-width="1.5" d="M0,-3.0v7 M-2.5,-0.5L0,-3.0L2.5,-0.5"/>
  </g>
  <g id="arrowRight" transform="rotate(90) translate(36 -43)">
    <use xlink:href="#rim"/>
    <path pointer-events="none" fill="none" stroke="white" stroke-width="1.5" d="M0,-3.0v7 M-2.5,-0.5L0,-3.0L2.5,-0.5"/>
  </g>
  <g id="arrowDown" transform="rotate(180) translate(-30 -48)">
    <use xlink:href="#rim"/>
    <path pointer-events="none" fill="none" stroke="white" stroke-width="1.5" d="M0,-3.0v7 M-2.5,-0.5L0,-3.0L2.5,-0.5"/>
  </g>
  <g id="arrowLeft" transform="rotate(270) translate(-36 17)">
    <use xlink:href="#rim"/>
    <path pointer-events="none" fill="none" stroke="white" stroke-width="1.5" d="M0,-3.0v7 M-2.5,-0.5L0,-3.0L2.5,-0.5"/>
  </g>
  <g id="resetDef">
    <use xlink:href="#rim2" fill="#404040"><set attributeName="fill" to="#808080" begin="reset.mouseover" end="reset.mouseout"/></use>
  </g>
</defs>
<script type="application/ecmascript">
var viewWidth = 528;
var viewHeight = 203;
var sectionId = 'dynsection-0';
</script>
<script type="application/ecmascript" xlink:href="svg.min.js"/>
<svg id="graph" class="graph">
<g id="viewport">
<title>src_cpp_omp_device/boundary.cpp</title>
<!-- Node1 -->
<g id="Node000001" class="node">
<title>Node1</title>
<g id="a_Node000001"><a xlink:title=" ">
<polygon fill="#999999" stroke="#666666" points="269.5,-195 151.5,-195 151.5,-165 269.5,-165 269.5,-195"/>
<text text-anchor="start" x="159.5" y="-183" font-family="Helvetica,sans-Serif" font-size="10.00">src_cpp_omp_device</text>
<text text-anchor="middle" x="210.5" y="-172" font-family="Helvetica,sans-Serif" font-size="10.00">/boundary.cpp</text>
</a>
</g>
</g>
<!-- Node2 -->
<g id="Node000002" class="node">
<title>Node2</title>
<g id="a_Node000002"><a xlink:title=" ">
<polygon fill="#e0e0e0" stroke="#999999" points="47,-19 0,-19 0,0 47,0 47,-19"/>
<text text-anchor="middle" x="23.5" y="-7" font-family="Helvetica,sans-Serif" font-size="10.00">cmath</text>
</a>
</g>
</g>
<!-- Node1&#45;&gt;Node2 -->
<g id="edge1_Node000001_Node000002" class="edge">
<title>Node1&#45;&gt;Node2</title>
<g id="a_edge1_Node000001_Node000002"><a xlink:title=" ">
<path fill="none" stroke="#63b8ff" d="M151.2,-175.96C114.37,-170.98 68.65,-158.68 39.5,-129 13.53,-102.55 16,-55.34 19.88,-29.2"/>
<polygon fill="#63b8ff" stroke="#63b8ff" points="23.37,-29.57 21.6,-19.12 16.47,-28.39 23.37,-29.57"/>
</a>
</g>
</g>
<!-- Node3 -->
<g id="Node000003" class="node">
<title>Node3</title>
<g id="a_Node000003"><a xlink:title=" ">
<polygon fill="#e0e0e0" stroke="#999999" points="132.5,-19 86.5,-19 86.5,0 132.5,0 132.5,-19"/>
<text text-anchor="middle" x="109.5" y="-7" font-family="Helvetica,sans-Serif" font-size="10.00">cstdio</text>
</a>
</g>
</g>
<!-- Node1&#45;&gt;Node3 -->
<g id="edge2_Node000001_Node000003" class="edge">
<title>Node1&#45;&gt;Node3</title>
<g id="a_edge2_Node000001_Node000003"><a xlink:title=" ">
<path fill="none" stroke="#63b8ff" d="M151.15,-169.86C121.75,-162.81 87.33,-150.46 62.5,-129 35.9,-106 17.1,-85.56 34.5,-55 43.62,-38.98 61.03,-28.14 76.78,-21.17"/>
<polygon fill="#63b8ff" stroke="#63b8ff" points="78.33,-24.31 86.28,-17.31 75.7,-17.83 78.33,-24.31"/>
</a>
</g>
</g>
<!-- Node4 -->
<g id="Node000004" class="node">
<title>Node4</title>
<g id="a_Node000004"><a xlink:title=" ">
<polygon fill="#e0e0e0" stroke="#999999" points="307,-129 258,-129 258,-110 307,-110 307,-129"/>
<text text-anchor="middle" x="282.5" y="-117" font-family="Helvetica,sans-Serif" font-size="10.00">cstdlib</text>
</a>
</g>
</g>
<!-- Node1&#45;&gt;Node4 -->
<g id="edge3_Node000001_Node000004" class="edge">
<title>Node1&#45;&gt;Node4</title>
<g id="a_edge3_Node000001_Node000004"><a xlink:title=" ">
<path fill="none" stroke="#63b8ff" d="M227.93,-164.84C238.81,-156 252.8,-144.63 263.89,-135.62"/>
<polygon fill="#63b8ff" stroke="#63b8ff" points="266.16,-138.29 271.71,-129.27 261.74,-132.86 266.16,-138.29"/>
</a>
</g>
</g>
<!-- Node5 -->
<g id="Node000005" class="node">
<title>Node5</title>
<g id="a_Node000005"><a xlink:title=" ">
<polygon fill="#e0e0e0" stroke="#999999" points="225.5,-19 161.5,-19 161.5,0 225.5,0 225.5,-19"/>
<text text-anchor="middle" x="193.5" y="-7" font-family="Helvetica,sans-Serif" font-size="10.00">algorithm</text>
</a>
</g>
</g>
<!-- Node1&#45;&gt;Node5 -->
<g id="edge4_Node000001_Node000005" class="edge">
<title>Node1&#45;&gt;Node5</title>
<g id="a_edge4_Node000001_Node000005"><a xlink:title=" ">
<path fill="none" stroke="#63b8ff" d="M209.08,-164.92C206.03,-134.65 198.83,-63.35 195.39,-29.27"/>
<polygon fill="#63b8ff" stroke="#63b8ff" points="198.87,-28.85 194.38,-19.25 191.9,-29.56 198.87,-28.85"/>
</a>
</g>
</g>
<!-- Node6 -->
<g id="Node000006" class="node">
<title>Node6</title>
<g id="a_Node000006"><a xlink:title=" ">
<polygon fill="#e0e0e0" stroke="#999999" points="360.5,-74 316.5,-74 316.5,-55 360.5,-55 360.5,-74"/>
<text text-anchor="middle" x="338.5" y="-62" font-family="Helvetica,sans-Serif" font-size="10.00">mpi.h</text>
</a>
</g>
</g>
<!-- Node1&#45;&gt;Node6 -->
<g id="edge5_Node000001_Node000006" class="edge">
<title>Node1&#45;&gt;Node6</title>
<g id="a_edge5_Node000001_Node000006"><a xlink:title=" ">
<path fill="none" stroke="#63b8ff" d="M259.17,-164.92C278.89,-157.1 300.51,-145.52 315.5,-129 326.82,-116.53 332.67,-98.07 335.64,-84.26"/>
<polygon fill="#63b8ff" stroke="#63b8ff" points="339.09,-84.86 337.44,-74.39 332.2,-83.6 339.09,-84.86"/>
</a>
</g>
</g>
<!-- Node7 -->
<g id="Node000007" class="node">
<title>Node7</title>
<g id="a_Node000007"><a xlink:title=" ">
<polygon fill="#e0e0e0" stroke="#999999" points="520,-129 473,-129 473,-110 520,-110 520,-129"/>
<text text-anchor="middle" x="496.5" y="-117" font-family="Helvetica,sans-Serif" font-size="10.00">omp.h</text>
</a>
</g>
</g>
<!-- Node1&#45;&gt;Node7 -->
<g id="edge6_Node000001_Node000007" class="edge">
<title>Node1&#45;&gt;Node7</title>
<g id="a_edge6_Node000001_Node000007"><a xlink:title=" ">
<path fill="none" stroke="#63b8ff" d="M269.75,-168.47C319.06,-159.45 391.31,-145.63 462.71,-129.31"/>
<polygon fill="#63b8ff" stroke="#63b8ff" points="463.82,-132.64 472.78,-126.99 462.25,-125.82 463.82,-132.64"/>
</a>
</g>
</g>
<!-- Node8 -->
<g id="Node000008" class="node">
<title>Node8</title>
<g id="a_Node000008"><a xlink:href="config_8hpp.html" target="_top" xlink:title=" ">
<polygon fill="white" stroke="#666666" points="111,-74 44,-74 44,-55 111,-55 111,-74"/>
<text text-anchor="middle" x="77.5" y="-62" font-family="Helvetica,sans-Serif" font-size="10.00">config.hpp</text>
</a>
</g>
</g>
<!-- Node1&#45;&gt;Node8 -->
<g id="edge7_Node000001_Node000008" class="edge">
<title>Node1&#45;&gt;Node8</title>
<g id="a_edge7_Node000001_Node000008"><a xlink:title=" ">
<path fill="none" stroke="#63b8ff" d="M151.32,-173.17C122.53,-167 90.35,-154.45 72.5,-129 63.38,-116 66.07,-97.6 70.18,-83.95"/>
<polygon fill="#63b8ff" stroke="#63b8ff" points="73.59,-84.81 73.59,-74.22 66.98,-82.5 73.59,-84.81"/>
</a>
</g>
</g>
<!-- Node9 -->
<g id="Node000009" class="node">
<title>Node9</title>
<g id="a_Node000009"><a xlink:href="mhd_8hpp.html" target="_top" xlink:title=" ">
<polygon fill="white" stroke="#666666" points="188,-74 129,-74 129,-55 188,-55 188,-74"/>
<text text-anchor="middle" x="158.5" y="-62" font-family="Helvetica,sans-Serif" font-size="10.00">mhd.hpp</text>
</a>
</g>
</g>
<!-- Node1&#45;&gt;Node9 -->
<g id="edge8_Node000001_Node000009" class="edge">
<title>Node1&#45;&gt;Node9</title>
<g id="a_edge8_Node000001_Node000009"><a xlink:title=" ">
<path fill="none" stroke="#63b8ff" d="M203.91,-164.63C194.43,-143.93 176.95,-105.78 166.67,-83.32"/>
<polygon fill="#63b8ff" stroke="#63b8ff" points="169.85,-81.86 162.5,-74.23 163.48,-84.78 169.85,-81.86"/>
</a>
</g>
</g>
<!-- Node10 -->
<g id="Node000010" class="node">
<title>Node10</title>
<g id="a_Node000010"><a xlink:href="boundary_8hpp.html" target="_top" xlink:title=" ">
<polygon fill="white" stroke="#666666" points="163.5,-129 81.5,-129 81.5,-110 163.5,-110 163.5,-129"/>
<text text-anchor="middle" x="122.5" y="-117" font-family="Helvetica,sans-Serif" font-size="10.00">boundary.hpp</text>
</a>
</g>
</g>
<!-- Node1&#45;&gt;Node10 -->
<g id="edge12_Node000001_Node000010" class="edge">
<title>Node1&#45;&gt;Node10</title>
<g id="a_edge12_Node000001_Node000010"><a xlink:title=" ">
<path fill="none" stroke="#63b8ff" d="M189.2,-164.84C175.43,-155.68 157.57,-143.82 143.8,-134.66"/>
<polygon fill="#63b8ff" stroke="#63b8ff" points="145.69,-131.72 135.43,-129.09 141.82,-137.55 145.69,-131.72"/>
</a>
</g>
</g>
<!-- Node11 -->
<g id="Node000011" class="node">
<title>Node11</title>
<g id="a_Node000011"><a xlink:href="mpi__config_8hpp.html" target="_top" xlink:title=" ">
<polygon fill="white" stroke="#666666" points="455,-129 364,-129 364,-110 455,-110 455,-129"/>
<text text-anchor="middle" x="409.5" y="-117" font-family="Helvetica,sans-Serif" font-size="10.00">mpi_config.hpp</text>
</a>
</g>
</g>
<!-- Node1&#45;&gt;Node11 -->
<g id="edge15_Node000001_Node000011" class="edge">
<title>Node1&#45;&gt;Node11</title>
<g id="a_edge15_Node000001_Node000011"><a xlink:title=" ">
<path fill="none" stroke="#63b8ff" d="M258.17,-164.99C292.51,-154.89 338.28,-141.44 370.46,-131.98"/>
<polygon fill="#63b8ff" stroke="#63b8ff" points="371.8,-135.23 380.4,-129.05 369.82,-128.52 371.8,-135.23"/>
</a>
</g>
</g>
<!-- Node9&#45;&gt;Node2 -->
<g id="edge9_Node000009_Node000002" class="edge">
<title>Node9&#45;&gt;Node2</title>
<g id="a_edge9_Node000009_Node000002"><a xlink:title=" ">
<path fill="none" stroke="#63b8ff" d="M136.81,-54.98C114.7,-46.3 80.18,-32.75 55.05,-22.88"/>
<polygon fill="#63b8ff" stroke="#63b8ff" points="56.17,-19.57 45.58,-19.17 53.61,-26.08 56.17,-19.57"/>
</a>
</g>
</g>
<!-- Node9&#45;&gt;Node3 -->
<g id="edge10_Node000009_Node000003" class="edge">
<title>Node9&#45;&gt;Node3</title>
<g id="a_edge10_Node000009_Node000003"><a xlink:title=" ">
<path fill="none" stroke="#63b8ff" d="M150.41,-54.75C143.34,-47.11 132.91,-35.82 124.35,-26.56"/>
<polygon fill="#63b8ff" stroke="#63b8ff" points="126.8,-24.06 117.44,-19.09 121.66,-28.81 126.8,-24.06"/>
</a>
</g>
</g>
<!-- Node9&#45;&gt;Node5 -->
<g id="edge11_Node000009_Node000005" class="edge">
<title>Node9&#45;&gt;Node5</title>
<g id="a_edge11_Node000009_Node000005"><a xlink:title=" ">
<path fill="none" stroke="#63b8ff" d="M164.28,-54.75C169.12,-47.42 176.18,-36.73 182.14,-27.7"/>
<polygon fill="#63b8ff" stroke="#63b8ff" points="185.24,-29.36 187.83,-19.09 179.4,-25.5 185.24,-29.36"/>
</a>
</g>
</g>
<!-- Node10&#45;&gt;Node8 -->
<g id="edge13_Node000010_Node000008" class="edge">
<title>Node10&#45;&gt;Node8</title>
<g id="a_edge13_Node000010_Node000008"><a xlink:title=" ">
<path fill="none" stroke="#63b8ff" d="M115.07,-109.75C108.65,-102.18 99.19,-91.05 91.38,-81.84"/>
<polygon fill="#63b8ff" stroke="#63b8ff" points="93.93,-79.45 84.79,-74.09 88.6,-83.98 93.93,-79.45"/>
</a>
</g>
</g>
<!-- Node10&#45;&gt;Node9 -->
<g id="edge14_Node000010_Node000009" class="edge">
<title>Node10&#45;&gt;Node9</title>
<g id="a_edge14_Node000010_Node000009"><a xlink:title=" ">
<path fill="none" stroke="#63b8ff" d="M128.44,-109.75C133.48,-102.34 140.84,-91.5 147.01,-82.41"/>
<polygon fill="#63b8ff" stroke="#63b8ff" points="149.94,-84.33 152.67,-74.09 144.15,-80.39 149.94,-84.33"/>
</a>
</g>
</g>
<!-- Node11&#45;&gt;Node6 -->
<g id="edge16_Node000011_Node000006" class="edge">
<title>Node11&#45;&gt;Node6</title>
<g id="a_edge16_Node000011_Node000006"><a xlink:title=" ">
<path fill="none" stroke="#63b8ff" d="M398.09,-109.98C387.39,-102 371.16,-89.88 358.34,-80.31"/>
<polygon fill="#63b8ff" stroke="#63b8ff" points="360.22,-77.35 350.11,-74.17 356.03,-82.96 360.22,-77.35"/>
</a>
</g>
</g>
<!-- Node12 -->
<g id="Node000012" class="node">
<title>Node12</title>
<g id="a_Node000012"><a xlink:title=" ">
<polygon fill="#e0e0e0" stroke="#999999" points="436,-74 383,-74 383,-55 436,-55 436,-74"/>
<text text-anchor="middle" x="409.5" y="-62" font-family="Helvetica,sans-Serif" font-size="10.00">cstddef</text>
</a>
</g>
</g>
<!-- Node11&#45;&gt;Node12 -->
<g id="edge17_Node000011_Node000012" class="edge">
<title>Node11&#45;&gt;Node12</title>
<g id="a_edge17_Node000011_Node000012"><a xlink:title=" ">
<path fill="none" stroke="#63b8ff" d="M409.5,-109.75C409.5,-102.8 409.5,-92.85 409.5,-84.13"/>
<polygon fill="#63b8ff" stroke="#63b8ff" points="413,-84.09 409.5,-74.09 406,-84.09 413,-84.09"/>
</a>
</g>
</g>
</g>
</svg>

<g id="navigator" transform="translate(0 0)" fill="#404254">
  <rect fill="#f2f5e9" fill-opacity="0.5" stroke="#606060" stroke-width=".5" x="0" y="0" width="60" height="60"/>
  <use id="zoomplus" xlink:href="#zoomPlus" x="17" y="9" onmousedown="handleZoom(evt,'in')"/>
  <use id="zoomminus" xlink:href="#zoomMin" x="42" y="9" onmousedown="handleZoom(evt,'out')"/>
  <use id="reset" xlink:href="#resetDef" x="30" y="36" onmousedown="handleReset()"/>
   <use id="arrowup" xlink:href="#arrowUp" x="0" y="0" onmousedown="handlePan(0,-1)"/>
  <use id="arrowright" xlink:href="#arrowRight" x="0" y="0" onmousedown="handlePan(1,0)"/>
  <use id="arrowdown" xlink:href="#arrowDown" x="0" y="0" onmousedown="handlePan(0,1)"/>
  <use id="arrowleft" xlink:href="#arrowLeft" x="0" y="0" onmousedown="handlePan(-1,0)"/>
</g>
<svg viewBox="0 0 15 15" width="100%" height="30px" preserveAspectRatio="xMaxYMin meet">
 <g id="arrow_out" transform="scale(0.3 0.3)">
  <a xlink:href="boundary_8cpp__incl_org.svg" target="_base">
   <rect id="button" ry="5" rx="5" y="6" x="6" height="38" width="38"
        fill="#f2f5e9" fill-opacity="0.5" stroke="#606060" stroke-width="1.0"/>
   <path id="arrow"
     d="M 11.500037,31.436501 C 11.940474,20.09759 22.043105,11.32322 32.158766,21.979434 L 37.068811,17.246167 C 37.068811,17.246167 37.088388,32 37.088388,32 L 22.160133,31.978069 C 22.160133,31.978069 26.997745,27.140456 26.997745,27.140456 C 18.528582,18.264221 13.291696,25.230495 11.500037,31.436501 z"
     style="fill:#404040;"/>
  </a>
 </g>
</svg>

<style type='text/css'>
<![CDATA[
[data-mouse-over-selected='false'] { opacity: 0.7; }
[data-mouse-over-selected='true']  { opacity: 1.0; }
]]>
</style>
<script type="application/ecmascript"><![CDATA[
document.addEventListener('DOMContentLoaded', (event) => {
  highlightEdges();
  highlightAdjacentNodes();
});
]]></script>
</svg>
