<?xml version="1.0" encoding="UTF-8" standalone="no"?>
<!DOCTYPE svg PUBLIC "-//W3C//DTD SVG 1.1//EN"
 "http://www.w3.org/Graphics/SVG/1.1/DTD/svg11.dtd">
<!-- Generated by graphviz version 2.43.0 (0)
 -->
<!-- Title: mpi_dataio_mod::FieldArray&lt; T &gt; Pages: 1 -->
<svg width="190pt" height="126pt"
 viewBox="0.00 0.00 190.00 126.00" xmlns="http://www.w3.org/2000/svg" xmlns:xlink="http://www.w3.org/1999/xlink">
<g id="graph0" class="graph" transform="scale(1 1) rotate(0) translate(4 122)">
<title>mpi_dataio_mod::FieldArray&lt; T &gt;</title>
<!-- Node1 -->
<g id="Node000001" class="node">
<title>Node1</title>
<g id="a_Node000001"><a xlink:title=" ">
<polygon fill="#999999" stroke="#666666" points="182,-19 0,-19 0,0 182,0 182,-19"/>
<text text-anchor="middle" x="91" y="-7" font-family="Helvetica,sans-Serif" font-size="10.00">mpi_dataio_mod::FieldArray&lt; T &gt;</text>
</a>
</g>
</g>
<!-- Node2 -->
<g id="Node000002" class="node">
<title>Node2</title>
<g id="a_Node000002"><a xlink:title=" ">
<polygon fill="white" stroke="#666666" points="58.5,-118 27.5,-118 27.5,-99 58.5,-99 58.5,-118"/>
<text text-anchor="middle" x="43" y="-106" font-family="Helvetica,sans-Serif" font-size="10.00">T *</text>
</a>
</g>
</g>
<!-- Node2&#45;&gt;Node1 -->
<g id="edge1_Node000001_Node000002" class="edge">
<title>Node2&#45;&gt;Node1</title>
<g id="a_edge1_Node000001_Node000002"><a xlink:title=" ">
<path fill="none" stroke="#9a32cd" stroke-dasharray="5,2" d="M45.15,-88.58C47.51,-73.69 52.34,-52.88 62,-37 66.26,-30.01 72.89,-23.75 78.75,-19.07"/>
<polygon fill="#9a32cd" stroke="#9a32cd" points="41.66,-88.26 43.79,-98.63 48.6,-89.2 41.66,-88.26"/>
</a>
</g>
<text text-anchor="middle" x="74.5" y="-56.5" font-family="Helvetica,sans-Serif" font-size="10.00" fill="grey"> data</text>
</g>
<!-- Node3 -->
<g id="Node000003" class="node">
<title>Node3</title>
<g id="a_Node000003"><a xlink:title=" ">
<polygon fill="white" stroke="#666666" points="105.5,-118 76.5,-118 76.5,-99 105.5,-99 105.5,-118"/>
<text text-anchor="middle" x="91" y="-106" font-family="Helvetica,sans-Serif" font-size="10.00">int</text>
</a>
</g>
</g>
<!-- Node3&#45;&gt;Node1 -->
<g id="edge2_Node000001_Node000003" class="edge">
<title>Node3&#45;&gt;Node1</title>
<g id="a_edge2_Node000001_Node000003"><a xlink:title=" ">
<path fill="none" stroke="#9a32cd" stroke-dasharray="5,2" d="M91,-88.68C91,-67.74 91,-34.81 91,-19.23"/>
<polygon fill="#9a32cd" stroke="#9a32cd" points="87.5,-88.89 91,-98.89 94.5,-88.89 87.5,-88.89"/>
</a>
</g>
<text text-anchor="middle" x="99" y="-73" font-family="Helvetica,sans-Serif" font-size="10.00" fill="grey"> n1</text>
<text text-anchor="middle" x="99" y="-62" font-family="Helvetica,sans-Serif" font-size="10.00" fill="grey">n2</text>
<text text-anchor="middle" x="99" y="-51" font-family="Helvetica,sans-Serif" font-size="10.00" fill="grey">n3</text>
<text text-anchor="middle" x="99" y="-40" font-family="Helvetica,sans-Serif" font-size="10.00" fill="grey">nv</text>
</g>
<!-- Node4 -->
<g id="Node000004" class="node">
<title>Node4</title>
<g id="a_Node000004"><a xlink:title=" ">
<polygon fill="white" stroke="#666666" points="168.5,-118 123.5,-118 123.5,-99 168.5,-99 168.5,-118"/>
<text text-anchor="middle" x="146" y="-106" font-family="Helvetica,sans-Serif" font-size="10.00">size_t</text>
</a>
</g>
</g>
<!-- Node4&#45;&gt;Node1 -->
<g id="edge3_Node000001_Node000004" class="edge">
<title>Node4&#45;&gt;Node1</title>
<g id="a_edge3_Node000001_Node000004"><a xlink:title=" ">
<path fill="none" stroke="#9a32cd" stroke-dasharray="5,2" d="M138.25,-89.65C131.68,-75.1 121.64,-54.21 111,-37 107.12,-30.72 102.12,-24.1 98.09,-19.04"/>
<polygon fill="#9a32cd" stroke="#9a32cd" points="135.14,-91.26 142.39,-98.98 141.54,-88.42 135.14,-91.26"/>
</a>
</g>
<text text-anchor="middle" x="144.5" y="-56.5" font-family="Helvetica,sans-Serif" font-size="10.00" fill="grey"> size</text>
</g>
</g>
</svg>
