<?xml version="1.0" encoding="UTF-8" standalone="no"?>
<!DOCTYPE svg PUBLIC "-//W3C//DTD SVG 1.1//EN"
 "http://www.w3.org/Graphics/SVG/1.1/DTD/svg11.dtd">
<!-- Generated by graphviz version 2.43.0 (0)
 -->
<!-- Title: boundary_mod::BoundaryArray&lt; T &gt; Pages: 1 -->
<svg width="205pt" height="148pt"
 viewBox="0.00 0.00 205.00 148.00" xmlns="http://www.w3.org/2000/svg" xmlns:xlink="http://www.w3.org/1999/xlink">
<g id="graph0" class="graph" transform="scale(1 1) rotate(0) translate(4 144)">
<title>boundary_mod::BoundaryArray&lt; T &gt;</title>
<!-- Node1 -->
<g id="Node000001" class="node">
<title>Node1</title>
<g id="a_Node000001"><a xlink:title=" ">
<polygon fill="#999999" stroke="#666666" points="197,-19 0,-19 0,0 197,0 197,-19"/>
<text text-anchor="middle" x="98.5" y="-7" font-family="Helvetica,sans-Serif" font-size="10.00">boundary_mod::BoundaryArray&lt; T &gt;</text>
</a>
</g>
</g>
<!-- Node2 -->
<g id="Node000002" class="node">
<title>Node2</title>
<g id="a_Node000002"><a xlink:title=" ">
<polygon fill="white" stroke="#666666" points="48,-140 17,-140 17,-121 48,-121 48,-140"/>
<text text-anchor="middle" x="32.5" y="-128" font-family="Helvetica,sans-Serif" font-size="10.00">T *</text>
</a>
</g>
</g>
<!-- Node2&#45;&gt;Node1 -->
<g id="edge1_Node000001_Node000002" class="edge">
<title>Node2&#45;&gt;Node1</title>
<g id="a_edge1_Node000001_Node000002"><a xlink:title=" ">
<path fill="none" stroke="#9a32cd" stroke-dasharray="5,2" d="M31.96,-110.89C32.29,-90.81 35.6,-58.81 51.5,-37 57.24,-29.13 66.07,-23.28 74.54,-19.11"/>
<polygon fill="#9a32cd" stroke="#9a32cd" points="28.46,-110.94 32.02,-120.92 35.46,-110.89 28.46,-110.94"/>
</a>
</g>
<text text-anchor="middle" x="73" y="-95" font-family="Helvetica,sans-Serif" font-size="10.00" fill="grey"> Xe_data</text>
<text text-anchor="middle" x="73" y="-84" font-family="Helvetica,sans-Serif" font-size="10.00" fill="grey">Xs_data</text>
<text text-anchor="middle" x="73" y="-73" font-family="Helvetica,sans-Serif" font-size="10.00" fill="grey">Ye_data</text>
<text text-anchor="middle" x="73" y="-62" font-family="Helvetica,sans-Serif" font-size="10.00" fill="grey">Ys_data</text>
<text text-anchor="middle" x="73" y="-51" font-family="Helvetica,sans-Serif" font-size="10.00" fill="grey">Ze_data</text>
<text text-anchor="middle" x="73" y="-40" font-family="Helvetica,sans-Serif" font-size="10.00" fill="grey">Zs_data</text>
</g>
<!-- Node3 -->
<g id="Node000003" class="node">
<title>Node3</title>
<g id="a_Node000003"><a xlink:title=" ">
<polygon fill="white" stroke="#666666" points="113,-140 84,-140 84,-121 113,-121 113,-140"/>
<text text-anchor="middle" x="98.5" y="-128" font-family="Helvetica,sans-Serif" font-size="10.00">int</text>
</a>
</g>
</g>
<!-- Node3&#45;&gt;Node1 -->
<g id="edge2_Node000001_Node000003" class="edge">
<title>Node3&#45;&gt;Node1</title>
<g id="a_edge2_Node000001_Node000003"><a xlink:title=" ">
<path fill="none" stroke="#9a32cd" stroke-dasharray="5,2" d="M98.5,-110.86C98.5,-84.81 98.5,-38.56 98.5,-19.3"/>
<polygon fill="#9a32cd" stroke="#9a32cd" points="95,-110.94 98.5,-120.94 102,-110.94 95,-110.94"/>
</a>
</g>
<text text-anchor="middle" x="106.5" y="-89.5" font-family="Helvetica,sans-Serif" font-size="10.00" fill="grey"> n1</text>
<text text-anchor="middle" x="106.5" y="-78.5" font-family="Helvetica,sans-Serif" font-size="10.00" fill="grey">n2</text>
<text text-anchor="middle" x="106.5" y="-67.5" font-family="Helvetica,sans-Serif" font-size="10.00" fill="grey">n3</text>
<text text-anchor="middle" x="106.5" y="-56.5" font-family="Helvetica,sans-Serif" font-size="10.00" fill="grey">ng</text>
<text text-anchor="middle" x="106.5" y="-45.5" font-family="Helvetica,sans-Serif" font-size="10.00" fill="grey">nv</text>
</g>
<!-- Node4 -->
<g id="Node000004" class="node">
<title>Node4</title>
<g id="a_Node000004"><a xlink:title=" ">
<polygon fill="white" stroke="#666666" points="176,-140 131,-140 131,-121 176,-121 176,-140"/>
<text text-anchor="middle" x="153.5" y="-128" font-family="Helvetica,sans-Serif" font-size="10.00">size_t</text>
</a>
</g>
</g>
<!-- Node4&#45;&gt;Node1 -->
<g id="edge3_Node000001_Node000004" class="edge">
<title>Node4&#45;&gt;Node1</title>
<g id="a_edge3_Node000001_Node000004"><a xlink:title=" ">
<path fill="none" stroke="#9a32cd" stroke-dasharray="5,2" d="M148.26,-111.16C142.41,-91.99 131.95,-61.38 118.5,-37 115.05,-30.74 110.25,-24.33 106.21,-19.38"/>
<polygon fill="#9a32cd" stroke="#9a32cd" points="144.98,-112.39 151.17,-120.98 151.69,-110.4 144.98,-112.39"/>
</a>
</g>
<text text-anchor="middle" x="159" y="-78.5" font-family="Helvetica,sans-Serif" font-size="10.00" fill="grey"> size1</text>
<text text-anchor="middle" x="159" y="-67.5" font-family="Helvetica,sans-Serif" font-size="10.00" fill="grey">size2</text>
<text text-anchor="middle" x="159" y="-56.5" font-family="Helvetica,sans-Serif" font-size="10.00" fill="grey">size3</text>
</g>
</g>
</svg>
