<?xml version="1.0" encoding="UTF-8" standalone="no"?>
<!DOCTYPE svg PUBLIC "-//W3C//DTD SVG 1.1//EN"
 "http://www.w3.org/Graphics/SVG/1.1/DTD/svg11.dtd">
<!-- Generated by graphviz version 2.43.0 (0)
 -->
<!-- Title: hydflux_mod::FieldArray&lt; T &gt; Pages: 1 -->
<svg width="172pt" height="126pt"
 viewBox="0.00 0.00 172.00 126.00" xmlns="http://www.w3.org/2000/svg" xmlns:xlink="http://www.w3.org/1999/xlink">
<g id="graph0" class="graph" transform="scale(1 1) rotate(0) translate(4 122)">
<title>hydflux_mod::FieldArray&lt; T &gt;</title>
<!-- Node1 -->
<g id="Node000001" class="node">
<title>Node1</title>
<g id="a_Node000001"><a xlink:title=" ">
<polygon fill="#999999" stroke="#666666" points="164,-19 0,-19 0,0 164,0 164,-19"/>
<text text-anchor="middle" x="82" y="-7" font-family="Helvetica,sans-Serif" font-size="10.00">hydflux_mod::FieldArray&lt; T &gt;</text>
</a>
</g>
</g>
<!-- Node2 -->
<g id="Node000002" class="node">
<title>Node2</title>
<g id="a_Node000002"><a xlink:title=" ">
<polygon fill="white" stroke="#666666" points="49.5,-118 18.5,-118 18.5,-99 49.5,-99 49.5,-118"/>
<text text-anchor="middle" x="34" y="-106" font-family="Helvetica,sans-Serif" font-size="10.00">T *</text>
</a>
</g>
</g>
<!-- Node2&#45;&gt;Node1 -->
<g id="edge1_Node000001_Node000002" class="edge">
<title>Node2&#45;&gt;Node1</title>
<g id="a_edge1_Node000001_Node000002"><a xlink:title=" ">
<path fill="none" stroke="#9a32cd" stroke-dasharray="5,2" d="M36.15,-88.58C38.51,-73.69 43.34,-52.88 53,-37 57.26,-30.01 63.89,-23.75 69.75,-19.07"/>
<polygon fill="#9a32cd" stroke="#9a32cd" points="32.66,-88.26 34.79,-98.63 39.6,-89.2 32.66,-88.26"/>
</a>
</g>
<text text-anchor="middle" x="65.5" y="-56.5" font-family="Helvetica,sans-Serif" font-size="10.00" fill="grey"> data</text>
</g>
<!-- Node3 -->
<g id="Node000003" class="node">
<title>Node3</title>
<g id="a_Node000003"><a xlink:title=" ">
<polygon fill="white" stroke="#666666" points="96.5,-118 67.5,-118 67.5,-99 96.5,-99 96.5,-118"/>
<text text-anchor="middle" x="82" y="-106" font-family="Helvetica,sans-Serif" font-size="10.00">int</text>
</a>
</g>
</g>
<!-- Node3&#45;&gt;Node1 -->
<g id="edge2_Node000001_Node000003" class="edge">
<title>Node3&#45;&gt;Node1</title>
<g id="a_edge2_Node000001_Node000003"><a xlink:title=" ">
<path fill="none" stroke="#9a32cd" stroke-dasharray="5,2" d="M82,-88.68C82,-67.74 82,-34.81 82,-19.23"/>
<polygon fill="#9a32cd" stroke="#9a32cd" points="78.5,-88.89 82,-98.89 85.5,-88.89 78.5,-88.89"/>
</a>
</g>
<text text-anchor="middle" x="90" y="-73" font-family="Helvetica,sans-Serif" font-size="10.00" fill="grey"> n1</text>
<text text-anchor="middle" x="90" y="-62" font-family="Helvetica,sans-Serif" font-size="10.00" fill="grey">n2</text>
<text text-anchor="middle" x="90" y="-51" font-family="Helvetica,sans-Serif" font-size="10.00" fill="grey">n3</text>
<text text-anchor="middle" x="90" y="-40" font-family="Helvetica,sans-Serif" font-size="10.00" fill="grey">nv</text>
</g>
<!-- Node4 -->
<g id="Node000004" class="node">
<title>Node4</title>
<g id="a_Node000004"><a xlink:title=" ">
<polygon fill="white" stroke="#666666" points="159.5,-118 114.5,-118 114.5,-99 159.5,-99 159.5,-118"/>
<text text-anchor="middle" x="137" y="-106" font-family="Helvetica,sans-Serif" font-size="10.00">size_t</text>
</a>
</g>
</g>
<!-- Node4&#45;&gt;Node1 -->
<g id="edge3_Node000001_Node000004" class="edge">
<title>Node4&#45;&gt;Node1</title>
<g id="a_edge3_Node000001_Node000004"><a xlink:title=" ">
<path fill="none" stroke="#9a32cd" stroke-dasharray="5,2" d="M129.25,-89.65C122.68,-75.1 112.64,-54.21 102,-37 98.12,-30.72 93.12,-24.1 89.09,-19.04"/>
<polygon fill="#9a32cd" stroke="#9a32cd" points="126.14,-91.26 133.39,-98.98 132.54,-88.42 126.14,-91.26"/>
</a>
</g>
<text text-anchor="middle" x="135.5" y="-56.5" font-family="Helvetica,sans-Serif" font-size="10.00" fill="grey"> size</text>
</g>
</g>
</svg>
