<?xml version="1.0" encoding="UTF-8" standalone="no"?>
<!DOCTYPE svg PUBLIC "-//W3C//DTD SVG 1.1//EN"
 "http://www.w3.org/Graphics/SVG/1.1/DTD/svg11.dtd">
<!-- Generated by graphviz version 2.43.0 (0)
 -->
<!-- Title: src_cpp_omp_device/output.cpp Pages: 1 -->
<!--zoomable 203 -->

<svg id="main" version="1.1" xmlns="http://www.w3.org/2000/svg" xmlns:xlink="http://www.w3.org/1999/xlink" xml:space="preserve" onload="init(evt)">
<style type="text/css"><![CDATA[
.node, .edge {opacity: 0.7;}
.node.selected, .edge.selected {opacity: 1;}
.edge:hover path { stroke: red; }
.edge:hover polygon { stroke: red; fill: red; }
]]></style>

<defs>
  <circle id="rim" cx="0" cy="0" r="7"/>
  <circle id="rim2" cx="0" cy="0" r="3.5"/>
  <g id="zoomPlus">
    <use xlink:href="#rim" fill="#404040"><set attributeName="fill" to="#808080" begin="zoomplus.mouseover" end="zoomplus.mouseout"/></use>
    <path d="M-4,0h8M0,-4v8" fill="none" stroke="white" stroke-width="1.5" pointer-events="none"/>
  </g>
  <g id="zoomMin">
    <use xlink:href="#rim" fill="#404040"><set attributeName="fill" to="#808080" begin="zoomminus.mouseover" end="zoomminus.mouseout"/></use>
    <path d="M-4,0h8" fill="none" stroke="white" stroke-width="1.5" pointer-events="none"/>
  </g>
  <g id="arrowUp" transform="translate(30 24)">
    <use xlink:href="#rim"/>
    <path pointer-events="none" fill="none" stroke="white" stroke-width="1.5" d="M0,-3.0v7 M-2.5,-0.5L0,-3.0L2.5,-0.5"/>
  </g>
  <g id="arrowRight" transform="rotate(90) translate(36 -43)">
    <use xlink:href="#rim"/>
    <path pointer-events="none" fill="none" stroke="white" stroke-width="1.5" d="M0,-3.0v7 M-2.5,-0.5L0,-3.0L2.5,-0.5"/>
  </g>
  <g id="arrowDown" transform="rotate(180) translate(-30 -48)">
    <use xlink:href="#rim"/>
    <path pointer-events="none" fill="none" stroke="white" stroke-width="1.5" d="M0,-3.0v7 M-2.5,-0.5L0,-3.0L2.5,-0.5"/>
  </g>
  <g id="arrowLeft" transform="rotate(270) translate(-36 17)">
    <use xlink:href="#rim"/>
    <path pointer-events="none" fill="none" stroke="white" stroke-width="1.5" d="M0,-3.0v7 M-2.5,-0.5L0,-3.0L2.5,-0.5"/>
  </g>
  <g id="resetDef">
    <use xlink:href="#rim2" fill="#404040"><set attributeName="fill" to="#808080" begin="reset.mouseover" end="reset.mouseout"/></use>
  </g>
</defs>
<script type="application/ecmascript">
var viewWidth = 1032;
var viewHeight = 203;
var sectionId = 'dynsection-0';
</script>
<script type="application/ecmascript" xlink:href="svg.min.js"/>
<svg id="graph" class="graph">
<g id="viewport">
<title>src_cpp_omp_device/output.cpp</title>
<!-- Node1 -->
<g id="Node000001" class="node">
<title>Node1</title>
<g id="a_Node000001"><a xlink:title=" ">
<polygon fill="#999999" stroke="#666666" points="500,-195 382,-195 382,-165 500,-165 500,-195"/>
<text text-anchor="start" x="390" y="-183" font-family="Helvetica,sans-Serif" font-size="10.00">src_cpp_omp_device</text>
<text text-anchor="middle" x="441" y="-172" font-family="Helvetica,sans-Serif" font-size="10.00">/output.cpp</text>
</a>
</g>
</g>
<!-- Node2 -->
<g id="Node000002" class="node">
<title>Node2</title>
<g id="a_Node000002"><a xlink:title=" ">
<polygon fill="#e0e0e0" stroke="#999999" points="44,-129 0,-129 0,-110 44,-110 44,-129"/>
<text text-anchor="middle" x="22" y="-117" font-family="Helvetica,sans-Serif" font-size="10.00">string</text>
</a>
</g>
</g>
<!-- Node1&#45;&gt;Node2 -->
<g id="edge1_Node000001_Node000002" class="edge">
<title>Node1&#45;&gt;Node2</title>
<g id="a_edge1_Node000001_Node000002"><a xlink:title=" ">
<path fill="none" stroke="#63b8ff" d="M381.99,-173.19C306.52,-165.32 171.95,-149.83 58,-129 56.72,-128.77 55.42,-128.52 54.11,-128.25"/>
<polygon fill="#63b8ff" stroke="#63b8ff" points="54.52,-124.76 44.01,-126.07 53.04,-131.61 54.52,-124.76"/>
</a>
</g>
</g>
<!-- Node3 -->
<g id="Node000003" class="node">
<title>Node3</title>
<g id="a_Node000003"><a xlink:title=" ">
<polygon fill="#e0e0e0" stroke="#999999" points="876,-74 830,-74 830,-55 876,-55 876,-74"/>
<text text-anchor="middle" x="853" y="-62" font-family="Helvetica,sans-Serif" font-size="10.00">cstdio</text>
</a>
</g>
</g>
<!-- Node1&#45;&gt;Node3 -->
<g id="edge2_Node000001_Node000003" class="edge">
<title>Node1&#45;&gt;Node3</title>
<g id="a_edge2_Node000001_Node000003"><a xlink:title=" ">
<path fill="none" stroke="#63b8ff" d="M500.22,-179.33C597.98,-178.63 787.18,-171.61 836,-129 848.62,-117.99 852.36,-98.73 853.25,-84.3"/>
<polygon fill="#63b8ff" stroke="#63b8ff" points="856.75,-84.09 853.47,-74.02 849.76,-83.94 856.75,-84.09"/>
</a>
</g>
</g>
<!-- Node4 -->
<g id="Node000004" class="node">
<title>Node4</title>
<g id="a_Node000004"><a xlink:title=" ">
<polygon fill="#e0e0e0" stroke="#999999" points="150,-129 100,-129 100,-110 150,-110 150,-129"/>
<text text-anchor="middle" x="125" y="-117" font-family="Helvetica,sans-Serif" font-size="10.00">cstring</text>
</a>
</g>
</g>
<!-- Node1&#45;&gt;Node4 -->
<g id="edge3_Node000001_Node000004" class="edge">
<title>Node1&#45;&gt;Node4</title>
<g id="a_edge3_Node000001_Node000004"><a xlink:title=" ">
<path fill="none" stroke="#63b8ff" d="M381.9,-169.75C326.91,-160.86 242.5,-146.52 160.23,-129.14"/>
<polygon fill="#63b8ff" stroke="#63b8ff" points="160.72,-125.67 150.21,-127.01 159.26,-132.51 160.72,-125.67"/>
</a>
</g>
</g>
<!-- Node5 -->
<g id="Node000005" class="node">
<title>Node5</title>
<g id="a_Node000005"><a xlink:title=" ">
<polygon fill="#e0e0e0" stroke="#999999" points="215.5,-129 168.5,-129 168.5,-110 215.5,-110 215.5,-129"/>
<text text-anchor="middle" x="192" y="-117" font-family="Helvetica,sans-Serif" font-size="10.00">cerrno</text>
</a>
</g>
</g>
<!-- Node1&#45;&gt;Node5 -->
<g id="edge4_Node000001_Node000005" class="edge">
<title>Node1&#45;&gt;Node5</title>
<g id="a_edge4_Node000001_Node000005"><a xlink:title=" ">
<path fill="none" stroke="#63b8ff" d="M381.77,-165.7C340.61,-156.37 284.23,-143.39 225.59,-129.1"/>
<polygon fill="#63b8ff" stroke="#63b8ff" points="226.32,-125.67 215.78,-126.7 224.66,-132.47 226.32,-125.67"/>
</a>
</g>
</g>
<!-- Node6 -->
<g id="Node000006" class="node">
<title>Node6</title>
<g id="a_Node000006"><a xlink:title=" ">
<polygon fill="#e0e0e0" stroke="#999999" points="284,-129 234,-129 234,-110 284,-110 284,-129"/>
<text text-anchor="middle" x="259" y="-117" font-family="Helvetica,sans-Serif" font-size="10.00">cstdint</text>
</a>
</g>
</g>
<!-- Node1&#45;&gt;Node6 -->
<g id="edge5_Node000001_Node000006" class="edge">
<title>Node1&#45;&gt;Node6</title>
<g id="a_edge5_Node000001_Node000006"><a xlink:title=" ">
<path fill="none" stroke="#63b8ff" d="M397.41,-164.99C365.7,-154.8 323.35,-141.18 293.88,-131.71"/>
<polygon fill="#63b8ff" stroke="#63b8ff" points="294.63,-128.27 284.03,-128.55 292.48,-134.94 294.63,-128.27"/>
</a>
</g>
</g>
<!-- Node7 -->
<g id="Node000007" class="node">
<title>Node7</title>
<g id="a_Node000007"><a xlink:title=" ">
<polygon fill="#e0e0e0" stroke="#999999" points="357.5,-129 302.5,-129 302.5,-110 357.5,-110 357.5,-129"/>
<text text-anchor="middle" x="330" y="-117" font-family="Helvetica,sans-Serif" font-size="10.00">fstream</text>
</a>
</g>
</g>
<!-- Node1&#45;&gt;Node7 -->
<g id="edge6_Node000001_Node000007" class="edge">
<title>Node1&#45;&gt;Node7</title>
<g id="a_edge6_Node000001_Node000007"><a xlink:title=" ">
<path fill="none" stroke="#63b8ff" d="M414.41,-164.99C396.55,-155.58 373.16,-143.24 355.52,-133.95"/>
<polygon fill="#63b8ff" stroke="#63b8ff" points="356.87,-130.71 346.39,-129.14 353.61,-136.9 356.87,-130.71"/>
</a>
</g>
</g>
<!-- Node8 -->
<g id="Node000008" class="node">
<title>Node8</title>
<g id="a_Node000008"><a xlink:title=" ">
<polygon fill="#e0e0e0" stroke="#999999" points="432,-129 376,-129 376,-110 432,-110 432,-129"/>
<text text-anchor="middle" x="404" y="-117" font-family="Helvetica,sans-Serif" font-size="10.00">sstream</text>
</a>
</g>
</g>
<!-- Node1&#45;&gt;Node8 -->
<g id="edge7_Node000001_Node000008" class="edge">
<title>Node1&#45;&gt;Node8</title>
<g id="a_edge7_Node000001_Node000008"><a xlink:title=" ">
<path fill="none" stroke="#63b8ff" d="M432.04,-164.84C426.89,-156.69 420.38,-146.4 414.93,-137.78"/>
<polygon fill="#63b8ff" stroke="#63b8ff" points="417.85,-135.85 409.54,-129.27 411.93,-139.59 417.85,-135.85"/>
</a>
</g>
</g>
<!-- Node9 -->
<g id="Node000009" class="node">
<title>Node9</title>
<g id="a_Node000009"><a xlink:title=" ">
<polygon fill="#e0e0e0" stroke="#999999" points="506,-129 450,-129 450,-110 506,-110 506,-129"/>
<text text-anchor="middle" x="478" y="-117" font-family="Helvetica,sans-Serif" font-size="10.00">iomanip</text>
</a>
</g>
</g>
<!-- Node1&#45;&gt;Node9 -->
<g id="edge8_Node000001_Node000009" class="edge">
<title>Node1&#45;&gt;Node9</title>
<g id="a_edge8_Node000001_Node000009"><a xlink:title=" ">
<path fill="none" stroke="#63b8ff" d="M449.96,-164.84C455.11,-156.69 461.62,-146.4 467.07,-137.78"/>
<polygon fill="#63b8ff" stroke="#63b8ff" points="470.07,-139.59 472.46,-129.27 464.15,-135.85 470.07,-139.59"/>
</a>
</g>
</g>
<!-- Node10 -->
<g id="Node000010" class="node">
<title>Node10</title>
<g id="a_Node000010"><a xlink:title=" ">
<polygon fill="#e0e0e0" stroke="#999999" points="571.5,-129 524.5,-129 524.5,-110 571.5,-110 571.5,-129"/>
<text text-anchor="middle" x="548" y="-117" font-family="Helvetica,sans-Serif" font-size="10.00">vector</text>
</a>
</g>
</g>
<!-- Node1&#45;&gt;Node10 -->
<g id="edge9_Node000001_Node000010" class="edge">
<title>Node1&#45;&gt;Node10</title>
<g id="a_edge9_Node000001_Node000010"><a xlink:title=" ">
<path fill="none" stroke="#63b8ff" d="M466.63,-164.99C483.84,-155.58 506.4,-143.24 523.4,-133.95"/>
<polygon fill="#63b8ff" stroke="#63b8ff" points="525.1,-137.01 532.2,-129.14 521.75,-130.87 525.1,-137.01"/>
</a>
</g>
</g>
<!-- Node11 -->
<g id="Node000011" class="node">
<title>Node11</title>
<g id="a_Node000011"><a xlink:title=" ">
<polygon fill="#e0e0e0" stroke="#999999" points="654,-129 590,-129 590,-110 654,-110 654,-129"/>
<text text-anchor="middle" x="622" y="-117" font-family="Helvetica,sans-Serif" font-size="10.00">sys/stat.h</text>
</a>
</g>
</g>
<!-- Node1&#45;&gt;Node11 -->
<g id="edge10_Node000001_Node000011" class="edge">
<title>Node1&#45;&gt;Node11</title>
<g id="a_edge10_Node000001_Node000011"><a xlink:title=" ">
<path fill="none" stroke="#63b8ff" d="M484.35,-164.99C515.32,-154.98 556.5,-141.67 585.73,-132.22"/>
<polygon fill="#63b8ff" stroke="#63b8ff" points="587.1,-135.46 595.53,-129.05 584.94,-128.8 587.1,-135.46"/>
</a>
</g>
</g>
<!-- Node12 -->
<g id="Node000012" class="node">
<title>Node12</title>
<g id="a_Node000012"><a xlink:href="config_8hpp.html" target="_top" xlink:title=" ">
<polygon fill="white" stroke="#666666" points="739.5,-129 672.5,-129 672.5,-110 739.5,-110 739.5,-129"/>
<text text-anchor="middle" x="706" y="-117" font-family="Helvetica,sans-Serif" font-size="10.00">config.hpp</text>
</a>
</g>
</g>
<!-- Node1&#45;&gt;Node12 -->
<g id="edge11_Node000001_Node000012" class="edge">
<title>Node1&#45;&gt;Node12</title>
<g id="a_edge11_Node000001_Node000012"><a xlink:title=" ">
<path fill="none" stroke="#63b8ff" d="M500.14,-165.94C549.25,-155.1 617.99,-139.93 662.25,-130.16"/>
<polygon fill="#63b8ff" stroke="#63b8ff" points="663.12,-133.55 672.13,-127.98 661.61,-126.71 663.12,-133.55"/>
</a>
</g>
</g>
<!-- Node13 -->
<g id="Node000013" class="node">
<title>Node13</title>
<g id="a_Node000013"><a xlink:href="mpi__config_8hpp.html" target="_top" xlink:title=" ">
<polygon fill="white" stroke="#666666" points="467.5,-74 376.5,-74 376.5,-55 467.5,-55 467.5,-74"/>
<text text-anchor="middle" x="422" y="-62" font-family="Helvetica,sans-Serif" font-size="10.00">mpi_config.hpp</text>
</a>
</g>
</g>
<!-- Node1&#45;&gt;Node13 -->
<g id="edge12_Node000001_Node000013" class="edge">
<title>Node1&#45;&gt;Node13</title>
<g id="a_edge12_Node000001_Node000013"><a xlink:title=" ">
<path fill="none" stroke="#63b8ff" d="M381.93,-179.48C292.18,-178.81 127.95,-171.6 91,-129 85.47,-122.62 85.44,-116.36 91,-110 126.04,-69.93 281.06,-64.45 365.95,-64.55"/>
<polygon fill="#63b8ff" stroke="#63b8ff" points="366.18,-68.05 376.19,-64.59 366.2,-61.05 366.18,-68.05"/>
</a>
</g>
</g>
<!-- Node16 -->
<g id="Node000016" class="node">
<title>Node16</title>
<g id="a_Node000016"><a xlink:href="mhd_8hpp.html" target="_top" xlink:title=" ">
<polygon fill="white" stroke="#666666" points="945.5,-129 886.5,-129 886.5,-110 945.5,-110 945.5,-129"/>
<text text-anchor="middle" x="916" y="-117" font-family="Helvetica,sans-Serif" font-size="10.00">mhd.hpp</text>
</a>
</g>
</g>
<!-- Node1&#45;&gt;Node16 -->
<g id="edge15_Node000001_Node000016" class="edge">
<title>Node1&#45;&gt;Node16</title>
<g id="a_edge15_Node000001_Node000016"><a xlink:title=" ">
<path fill="none" stroke="#63b8ff" d="M500,-173.29C582.69,-165.01 737.65,-148.53 869,-129 871.48,-128.63 874.02,-128.23 876.59,-127.81"/>
<polygon fill="#63b8ff" stroke="#63b8ff" points="877.19,-131.26 886.46,-126.13 876.02,-124.36 877.19,-131.26"/>
</a>
</g>
</g>
<!-- Node19 -->
<g id="Node000019" class="node">
<title>Node19</title>
<g id="a_Node000019"><a xlink:href="output_8hpp.html" target="_top" xlink:title=" ">
<polygon fill="white" stroke="#666666" points="826.5,-129 757.5,-129 757.5,-110 826.5,-110 826.5,-129"/>
<text text-anchor="middle" x="792" y="-117" font-family="Helvetica,sans-Serif" font-size="10.00">output.hpp</text>
</a>
</g>
</g>
<!-- Node1&#45;&gt;Node19 -->
<g id="edge19_Node000001_Node000019" class="edge">
<title>Node1&#45;&gt;Node19</title>
<g id="a_edge19_Node000001_Node000019"><a xlink:title=" ">
<path fill="none" stroke="#63b8ff" d="M500.15,-170.01C560.05,-160.77 655.62,-145.65 747.28,-129.26"/>
<polygon fill="#63b8ff" stroke="#63b8ff" points="748.06,-132.68 757.29,-127.47 746.82,-125.79 748.06,-132.68"/>
</a>
</g>
</g>
<!-- Node14 -->
<g id="Node000014" class="node">
<title>Node14</title>
<g id="a_Node000014"><a xlink:title=" ">
<polygon fill="#e0e0e0" stroke="#999999" points="411,-19 367,-19 367,0 411,0 411,-19"/>
<text text-anchor="middle" x="389" y="-7" font-family="Helvetica,sans-Serif" font-size="10.00">mpi.h</text>
</a>
</g>
</g>
<!-- Node13&#45;&gt;Node14 -->
<g id="edge13_Node000013_Node000014" class="edge">
<title>Node13&#45;&gt;Node14</title>
<g id="a_edge13_Node000013_Node000014"><a xlink:title=" ">
<path fill="none" stroke="#63b8ff" d="M416.55,-54.75C411.99,-47.42 405.33,-36.73 399.71,-27.7"/>
<polygon fill="#63b8ff" stroke="#63b8ff" points="402.6,-25.73 394.35,-19.09 396.66,-29.43 402.6,-25.73"/>
</a>
</g>
</g>
<!-- Node15 -->
<g id="Node000015" class="node">
<title>Node15</title>
<g id="a_Node000015"><a xlink:title=" ">
<polygon fill="#e0e0e0" stroke="#999999" points="482.5,-19 429.5,-19 429.5,0 482.5,0 482.5,-19"/>
<text text-anchor="middle" x="456" y="-7" font-family="Helvetica,sans-Serif" font-size="10.00">cstddef</text>
</a>
</g>
</g>
<!-- Node13&#45;&gt;Node15 -->
<g id="edge14_Node000013_Node000015" class="edge">
<title>Node13&#45;&gt;Node15</title>
<g id="a_edge14_Node000013_Node000015"><a xlink:title=" ">
<path fill="none" stroke="#63b8ff" d="M427.61,-54.75C432.32,-47.42 439.17,-36.73 444.97,-27.7"/>
<polygon fill="#63b8ff" stroke="#63b8ff" points="448.04,-29.4 450.49,-19.09 442.14,-25.62 448.04,-29.4"/>
</a>
</g>
</g>
<!-- Node16&#45;&gt;Node3 -->
<g id="edge17_Node000016_Node000003" class="edge">
<title>Node16&#45;&gt;Node3</title>
<g id="a_edge17_Node000016_Node000003"><a xlink:title=" ">
<path fill="none" stroke="#63b8ff" d="M905.88,-109.98C896.56,-102.15 882.53,-90.34 871.26,-80.86"/>
<polygon fill="#63b8ff" stroke="#63b8ff" points="873.21,-77.93 863.31,-74.17 868.71,-83.29 873.21,-77.93"/>
</a>
</g>
</g>
<!-- Node17 -->
<g id="Node000017" class="node">
<title>Node17</title>
<g id="a_Node000017"><a xlink:title=" ">
<polygon fill="#e0e0e0" stroke="#999999" points="941.5,-74 894.5,-74 894.5,-55 941.5,-55 941.5,-74"/>
<text text-anchor="middle" x="918" y="-62" font-family="Helvetica,sans-Serif" font-size="10.00">cmath</text>
</a>
</g>
</g>
<!-- Node16&#45;&gt;Node17 -->
<g id="edge16_Node000016_Node000017" class="edge">
<title>Node16&#45;&gt;Node17</title>
<g id="a_edge16_Node000016_Node000017"><a xlink:title=" ">
<path fill="none" stroke="#63b8ff" d="M916.33,-109.75C916.59,-102.8 916.97,-92.85 917.3,-84.13"/>
<polygon fill="#63b8ff" stroke="#63b8ff" points="920.8,-84.21 917.68,-74.09 913.8,-83.95 920.8,-84.21"/>
</a>
</g>
</g>
<!-- Node18 -->
<g id="Node000018" class="node">
<title>Node18</title>
<g id="a_Node000018"><a xlink:title=" ">
<polygon fill="#e0e0e0" stroke="#999999" points="1024,-74 960,-74 960,-55 1024,-55 1024,-74"/>
<text text-anchor="middle" x="992" y="-62" font-family="Helvetica,sans-Serif" font-size="10.00">algorithm</text>
</a>
</g>
</g>
<!-- Node16&#45;&gt;Node18 -->
<g id="edge18_Node000016_Node000018" class="edge">
<title>Node16&#45;&gt;Node18</title>
<g id="a_edge18_Node000016_Node000018"><a xlink:title=" ">
<path fill="none" stroke="#63b8ff" d="M928.21,-109.98C939.78,-101.92 957.38,-89.65 971.16,-80.03"/>
<polygon fill="#63b8ff" stroke="#63b8ff" points="973.37,-82.76 979.57,-74.17 969.36,-77.02 973.37,-82.76"/>
</a>
</g>
</g>
<!-- Node19&#45;&gt;Node13 -->
<g id="edge20_Node000019_Node000013" class="edge">
<title>Node19&#45;&gt;Node13</title>
<g id="a_edge20_Node000019_Node000013"><a xlink:title=" ">
<path fill="none" stroke="#63b8ff" d="M757.3,-111.46C754.49,-110.94 751.7,-110.45 749,-110 654.05,-94.17 542.88,-79.95 477.68,-72.05"/>
<polygon fill="#63b8ff" stroke="#63b8ff" points="477.97,-68.56 467.62,-70.83 477.13,-75.51 477.97,-68.56"/>
</a>
</g>
</g>
</g>
</svg>

<g id="navigator" transform="translate(0 0)" fill="#404254">
  <rect fill="#f2f5e9" fill-opacity="0.5" stroke="#606060" stroke-width=".5" x="0" y="0" width="60" height="60"/>
  <use id="zoomplus" xlink:href="#zoomPlus" x="17" y="9" onmousedown="handleZoom(evt,'in')"/>
  <use id="zoomminus" xlink:href="#zoomMin" x="42" y="9" onmousedown="handleZoom(evt,'out')"/>
  <use id="reset" xlink:href="#resetDef" x="30" y="36" onmousedown="handleReset()"/>
   <use id="arrowup" xlink:href="#arrowUp" x="0" y="0" onmousedown="handlePan(0,-1)"/>
  <use id="arrowright" xlink:href="#arrowRight" x="0" y="0" onmousedown="handlePan(1,0)"/>
  <use id="arrowdown" xlink:href="#arrowDown" x="0" y="0" onmousedown="handlePan(0,1)"/>
  <use id="arrowleft" xlink:href="#arrowLeft" x="0" y="0" onmousedown="handlePan(-1,0)"/>
</g>
<svg viewBox="0 0 15 15" width="100%" height="30px" preserveAspectRatio="xMaxYMin meet">
 <g id="arrow_out" transform="scale(0.3 0.3)">
  <a xlink:href="output_8cpp__incl_org.svg" target="_base">
   <rect id="button" ry="5" rx="5" y="6" x="6" height="38" width="38"
        fill="#f2f5e9" fill-opacity="0.5" stroke="#606060" stroke-width="1.0"/>
   <path id="arrow"
     d="M 11.500037,31.436501 C 11.940474,20.09759 22.043105,11.32322 32.158766,21.979434 L 37.068811,17.246167 C 37.068811,17.246167 37.088388,32 37.088388,32 L 22.160133,31.978069 C 22.160133,31.978069 26.997745,27.140456 26.997745,27.140456 C 18.528582,18.264221 13.291696,25.230495 11.500037,31.436501 z"
     style="fill:#404040;"/>
  </a>
 </g>
</svg>

<style type='text/css'>
<![CDATA[
[data-mouse-over-selected='false'] { opacity: 0.7; }
[data-mouse-over-selected='true']  { opacity: 1.0; }
]]>
</style>
<script type="application/ecmascript"><![CDATA[
document.addEventListener('DOMContentLoaded', (event) => {
  highlightEdges();
  highlightAdjacentNodes();
});
]]></script>
</svg>
