<?xml version="1.0" encoding="UTF-8" standalone="no"?>
<!DOCTYPE svg PUBLIC "-//W3C//DTD SVG 1.1//EN"
 "http://www.w3.org/Graphics/SVG/1.1/DTD/svg11.dtd">
<!-- Generated by graphviz version 2.43.0 (0)
 -->
<!-- Title: src_cpp_kokkos_device/boundary.cpp Pages: 1 -->
<svg width="588pt" height="203pt"
 viewBox="0.00 0.00 588.00 203.00" xmlns="http://www.w3.org/2000/svg" xmlns:xlink="http://www.w3.org/1999/xlink">
<g id="graph0" class="graph" transform="scale(1 1) rotate(0) translate(4 199)">
<title>src_cpp_kokkos_device/boundary.cpp</title>
<!-- Node1 -->
<g id="Node000001" class="node">
<title>Node1</title>
<g id="a_Node000001"><a xlink:title=" ">
<polygon fill="#999999" stroke="#666666" points="372.5,-195 242.5,-195 242.5,-165 372.5,-165 372.5,-195"/>
<text text-anchor="start" x="250.5" y="-183" font-family="Helvetica,sans-Serif" font-size="10.00">src_cpp_kokkos_device</text>
<text text-anchor="middle" x="307.5" y="-172" font-family="Helvetica,sans-Serif" font-size="10.00">/boundary.cpp</text>
</a>
</g>
</g>
<!-- Node2 -->
<g id="Node000002" class="node">
<title>Node2</title>
<g id="a_Node000002"><a xlink:title=" ">
<polygon fill="#e0e0e0" stroke="#999999" points="47,-19 0,-19 0,0 47,0 47,-19"/>
<text text-anchor="middle" x="23.5" y="-7" font-family="Helvetica,sans-Serif" font-size="10.00">cmath</text>
</a>
</g>
</g>
<!-- Node1&#45;&gt;Node2 -->
<g id="edge1_Node000001_Node000002" class="edge">
<title>Node1&#45;&gt;Node2</title>
<g id="a_edge1_Node000001_Node000002"><a xlink:title=" ">
<path fill="none" stroke="#63b8ff" d="M242.49,-168.37C209.08,-160.9 168.73,-148.62 136.5,-129 92.17,-102.01 53.59,-53.25 35.11,-27.49"/>
<polygon fill="#63b8ff" stroke="#63b8ff" points="37.85,-25.3 29.24,-19.13 32.12,-29.32 37.85,-25.3"/>
</a>
</g>
</g>
<!-- Node3 -->
<g id="Node000003" class="node">
<title>Node3</title>
<g id="a_Node000003"><a xlink:title=" ">
<polygon fill="#e0e0e0" stroke="#999999" points="111.5,-19 65.5,-19 65.5,0 111.5,0 111.5,-19"/>
<text text-anchor="middle" x="88.5" y="-7" font-family="Helvetica,sans-Serif" font-size="10.00">cstdio</text>
</a>
</g>
</g>
<!-- Node1&#45;&gt;Node3 -->
<g id="edge2_Node000001_Node000003" class="edge">
<title>Node1&#45;&gt;Node3</title>
<g id="a_edge2_Node000001_Node000003"><a xlink:title=" ">
<path fill="none" stroke="#63b8ff" d="M254.62,-165C228.01,-156.7 195.89,-144.7 169.5,-129 137.84,-110.17 127.31,-105.05 107.5,-74 98.8,-60.36 93.92,-42.54 91.3,-29.26"/>
<polygon fill="#63b8ff" stroke="#63b8ff" points="94.74,-28.61 89.58,-19.35 87.84,-29.8 94.74,-28.61"/>
</a>
</g>
</g>
<!-- Node4 -->
<g id="Node000004" class="node">
<title>Node4</title>
<g id="a_Node000004"><a xlink:title=" ">
<polygon fill="#e0e0e0" stroke="#999999" points="515,-129 466,-129 466,-110 515,-110 515,-129"/>
<text text-anchor="middle" x="490.5" y="-117" font-family="Helvetica,sans-Serif" font-size="10.00">cstdlib</text>
</a>
</g>
</g>
<!-- Node1&#45;&gt;Node4 -->
<g id="edge3_Node000001_Node000004" class="edge">
<title>Node1&#45;&gt;Node4</title>
<g id="a_edge3_Node000001_Node000004"><a xlink:title=" ">
<path fill="none" stroke="#63b8ff" d="M351.33,-164.99C383.4,-154.74 426.3,-141.02 455.95,-131.54"/>
<polygon fill="#63b8ff" stroke="#63b8ff" points="457.39,-134.76 465.85,-128.38 455.26,-128.09 457.39,-134.76"/>
</a>
</g>
</g>
<!-- Node5 -->
<g id="Node000005" class="node">
<title>Node5</title>
<g id="a_Node000005"><a xlink:title=" ">
<polygon fill="#e0e0e0" stroke="#999999" points="311.5,-19 247.5,-19 247.5,0 311.5,0 311.5,-19"/>
<text text-anchor="middle" x="279.5" y="-7" font-family="Helvetica,sans-Serif" font-size="10.00">algorithm</text>
</a>
</g>
</g>
<!-- Node1&#45;&gt;Node5 -->
<g id="edge4_Node000001_Node000005" class="edge">
<title>Node1&#45;&gt;Node5</title>
<g id="a_edge4_Node000001_Node000005"><a xlink:title=" ">
<path fill="none" stroke="#63b8ff" d="M266.14,-164.81C249.84,-156.95 232.81,-145.38 223.5,-129 207.25,-100.41 209.2,-84.62 223.5,-55 229.72,-42.12 241.68,-31.82 252.96,-24.38"/>
<polygon fill="#63b8ff" stroke="#63b8ff" points="255.01,-27.23 261.73,-19.04 251.37,-21.25 255.01,-27.23"/>
</a>
</g>
</g>
<!-- Node6 -->
<g id="Node000006" class="node">
<title>Node6</title>
<g id="a_Node000006"><a xlink:title=" ">
<polygon fill="#e0e0e0" stroke="#999999" points="456.5,-19 412.5,-19 412.5,0 456.5,0 456.5,-19"/>
<text text-anchor="middle" x="434.5" y="-7" font-family="Helvetica,sans-Serif" font-size="10.00">mpi.h</text>
</a>
</g>
</g>
<!-- Node1&#45;&gt;Node6 -->
<g id="edge5_Node000001_Node000006" class="edge">
<title>Node1&#45;&gt;Node6</title>
<g id="a_edge5_Node000001_Node000006"><a xlink:title=" ">
<path fill="none" stroke="#63b8ff" d="M328.5,-164.9C353.75,-146.84 395.57,-113.14 418.5,-74 426.5,-60.34 430.53,-42.76 432.54,-29.56"/>
<polygon fill="#63b8ff" stroke="#63b8ff" points="436.06,-29.66 433.84,-19.3 429.12,-28.78 436.06,-29.66"/>
</a>
</g>
</g>
<!-- Node7 -->
<g id="Node000007" class="node">
<title>Node7</title>
<g id="a_Node000007"><a xlink:title=" ">
<polygon fill="#e0e0e0" stroke="#999999" points="580,-129 533,-129 533,-110 580,-110 580,-129"/>
<text text-anchor="middle" x="556.5" y="-117" font-family="Helvetica,sans-Serif" font-size="10.00">omp.h</text>
</a>
</g>
</g>
<!-- Node1&#45;&gt;Node7 -->
<g id="edge6_Node000001_Node000007" class="edge">
<title>Node1&#45;&gt;Node7</title>
<g id="a_edge6_Node000001_Node000007"><a xlink:title=" ">
<path fill="none" stroke="#63b8ff" d="M371.25,-164.9C412.19,-155.7 466.74,-143.2 522.98,-129.32"/>
<polygon fill="#63b8ff" stroke="#63b8ff" points="523.89,-132.7 532.76,-126.9 522.21,-125.91 523.89,-132.7"/>
</a>
</g>
</g>
<!-- Node8 -->
<g id="Node000008" class="node">
<title>Node8</title>
<g id="a_Node000008"><a xlink:href="config_8hpp.html" target="_top" xlink:title=" ">
<polygon fill="white" stroke="#666666" points="300,-74 233,-74 233,-55 300,-55 300,-74"/>
<text text-anchor="middle" x="266.5" y="-62" font-family="Helvetica,sans-Serif" font-size="10.00">config.hpp</text>
</a>
</g>
</g>
<!-- Node1&#45;&gt;Node8 -->
<g id="edge7_Node000001_Node000008" class="edge">
<title>Node1&#45;&gt;Node8</title>
<g id="a_edge7_Node000001_Node000008"><a xlink:title=" ">
<path fill="none" stroke="#63b8ff" d="M316.06,-164.9C323.62,-150.5 332.18,-127.79 323.5,-110 317.2,-97.09 305.15,-86.83 293.74,-79.43"/>
<polygon fill="#63b8ff" stroke="#63b8ff" points="295.23,-76.25 284.85,-74.12 291.64,-82.25 295.23,-76.25"/>
</a>
</g>
</g>
<!-- Node9 -->
<g id="Node000009" class="node">
<title>Node9</title>
<g id="a_Node000009"><a xlink:href="mhd_8hpp.html" target="_top" xlink:title=" ">
<polygon fill="white" stroke="#666666" points="176,-74 117,-74 117,-55 176,-55 176,-74"/>
<text text-anchor="middle" x="146.5" y="-62" font-family="Helvetica,sans-Serif" font-size="10.00">mhd.hpp</text>
</a>
</g>
</g>
<!-- Node1&#45;&gt;Node9 -->
<g id="edge8_Node000001_Node000009" class="edge">
<title>Node1&#45;&gt;Node9</title>
<g id="a_edge8_Node000001_Node000009"><a xlink:title=" ">
<path fill="none" stroke="#63b8ff" d="M258.32,-164.92C236.02,-156.88 210.27,-145.13 190.5,-129 175.11,-116.45 162.81,-97.17 155.16,-83.15"/>
<polygon fill="#63b8ff" stroke="#63b8ff" points="158.15,-81.31 150.45,-74.04 151.94,-84.53 158.15,-81.31"/>
</a>
</g>
</g>
<!-- Node11 -->
<g id="Node000011" class="node">
<title>Node11</title>
<g id="a_Node000011"><a xlink:href="boundary_8hpp.html" target="_top" xlink:title=" ">
<polygon fill="white" stroke="#666666" points="314.5,-129 232.5,-129 232.5,-110 314.5,-110 314.5,-129"/>
<text text-anchor="middle" x="273.5" y="-117" font-family="Helvetica,sans-Serif" font-size="10.00">boundary.hpp</text>
</a>
</g>
</g>
<!-- Node1&#45;&gt;Node11 -->
<g id="edge13_Node000001_Node000011" class="edge">
<title>Node1&#45;&gt;Node11</title>
<g id="a_edge13_Node000001_Node000011"><a xlink:title=" ">
<path fill="none" stroke="#63b8ff" d="M299.27,-164.84C294.59,-156.78 288.68,-146.62 283.7,-138.06"/>
<polygon fill="#63b8ff" stroke="#63b8ff" points="286.65,-136.15 278.59,-129.27 280.59,-139.67 286.65,-136.15"/>
</a>
</g>
</g>
<!-- Node12 -->
<g id="Node000012" class="node">
<title>Node12</title>
<g id="a_Node000012"><a xlink:href="mpi__config_8hpp.html" target="_top" xlink:title=" ">
<polygon fill="white" stroke="#666666" points="409,-74 318,-74 318,-55 409,-55 409,-74"/>
<text text-anchor="middle" x="363.5" y="-62" font-family="Helvetica,sans-Serif" font-size="10.00">mpi_config.hpp</text>
</a>
</g>
</g>
<!-- Node1&#45;&gt;Node12 -->
<g id="edge19_Node000001_Node000012" class="edge">
<title>Node1&#45;&gt;Node12</title>
<g id="a_edge19_Node000001_Node000012"><a xlink:title=" ">
<path fill="none" stroke="#63b8ff" d="M317.86,-164.6C324.57,-154.85 333.21,-141.53 339.5,-129 346.85,-114.35 353.3,-96.88 357.66,-83.98"/>
<polygon fill="#63b8ff" stroke="#63b8ff" points="361.01,-84.96 360.8,-74.37 354.36,-82.79 361.01,-84.96"/>
</a>
</g>
</g>
<!-- Node9&#45;&gt;Node2 -->
<g id="edge9_Node000009_Node000002" class="edge">
<title>Node9&#45;&gt;Node2</title>
<g id="a_edge9_Node000009_Node000002"><a xlink:title=" ">
<path fill="none" stroke="#63b8ff" d="M126.74,-54.98C106.77,-46.38 75.7,-32.99 52.85,-23.15"/>
<polygon fill="#63b8ff" stroke="#63b8ff" points="54.19,-19.91 43.62,-19.17 51.42,-26.34 54.19,-19.91"/>
</a>
</g>
</g>
<!-- Node9&#45;&gt;Node3 -->
<g id="edge10_Node000009_Node000003" class="edge">
<title>Node9&#45;&gt;Node3</title>
<g id="a_edge10_Node000009_Node000003"><a xlink:title=" ">
<path fill="none" stroke="#63b8ff" d="M137.18,-54.98C128.69,-47.23 115.94,-35.58 105.62,-26.14"/>
<polygon fill="#63b8ff" stroke="#63b8ff" points="107.73,-23.33 97.99,-19.17 103.01,-28.5 107.73,-23.33"/>
</a>
</g>
</g>
<!-- Node9&#45;&gt;Node5 -->
<g id="edge11_Node000009_Node000005" class="edge">
<title>Node9&#45;&gt;Node5</title>
<g id="a_edge11_Node000009_Node000005"><a xlink:title=" ">
<path fill="none" stroke="#63b8ff" d="M167.87,-54.98C189.65,-46.3 223.66,-32.75 248.42,-22.88"/>
<polygon fill="#63b8ff" stroke="#63b8ff" points="249.75,-26.12 257.74,-19.17 247.16,-19.62 249.75,-26.12"/>
</a>
</g>
</g>
<!-- Node10 -->
<g id="Node000010" class="node">
<title>Node10</title>
<g id="a_Node000010"><a xlink:title=" ">
<polygon fill="#e0e0e0" stroke="#999999" points="229.5,-19 129.5,-19 129.5,0 229.5,0 229.5,-19"/>
<text text-anchor="middle" x="179.5" y="-7" font-family="Helvetica,sans-Serif" font-size="10.00">Kokkos_Core.hpp</text>
</a>
</g>
</g>
<!-- Node9&#45;&gt;Node10 -->
<g id="edge12_Node000009_Node000010" class="edge">
<title>Node9&#45;&gt;Node10</title>
<g id="a_edge12_Node000009_Node000010"><a xlink:title=" ">
<path fill="none" stroke="#63b8ff" d="M151.95,-54.75C156.51,-47.42 163.17,-36.73 168.79,-27.7"/>
<polygon fill="#63b8ff" stroke="#63b8ff" points="171.84,-29.43 174.15,-19.09 165.9,-25.73 171.84,-29.43"/>
</a>
</g>
</g>
<!-- Node11&#45;&gt;Node8 -->
<g id="edge14_Node000011_Node000008" class="edge">
<title>Node11&#45;&gt;Node8</title>
<g id="a_edge14_Node000011_Node000008"><a xlink:title=" ">
<path fill="none" stroke="#63b8ff" d="M272.34,-109.75C271.43,-102.8 270.11,-92.85 268.96,-84.13"/>
<polygon fill="#63b8ff" stroke="#63b8ff" points="272.41,-83.54 267.63,-74.09 265.47,-84.46 272.41,-83.54"/>
</a>
</g>
</g>
<!-- Node11&#45;&gt;Node9 -->
<g id="edge15_Node000011_Node000009" class="edge">
<title>Node11&#45;&gt;Node9</title>
<g id="a_edge15_Node000011_Node000009"><a xlink:title=" ">
<path fill="none" stroke="#63b8ff" d="M253.1,-109.98C232.48,-101.38 200.39,-87.99 176.81,-78.15"/>
<polygon fill="#63b8ff" stroke="#63b8ff" points="177.85,-74.79 167.28,-74.17 175.16,-81.25 177.85,-74.79"/>
</a>
</g>
</g>
<!-- Node11&#45;&gt;Node12 -->
<g id="edge16_Node000011_Node000012" class="edge">
<title>Node11&#45;&gt;Node12</title>
<g id="a_edge16_Node000011_Node000012"><a xlink:title=" ">
<path fill="none" stroke="#63b8ff" d="M287.96,-109.98C301.92,-101.77 323.29,-89.18 339.75,-79.49"/>
<polygon fill="#63b8ff" stroke="#63b8ff" points="341.94,-82.26 348.78,-74.17 338.38,-76.23 341.94,-82.26"/>
</a>
</g>
</g>
<!-- Node12&#45;&gt;Node6 -->
<g id="edge17_Node000012_Node000006" class="edge">
<title>Node12&#45;&gt;Node6</title>
<g id="a_edge17_Node000012_Node000006"><a xlink:title=" ">
<path fill="none" stroke="#63b8ff" d="M374.91,-54.98C385.61,-47 401.84,-34.88 414.66,-25.31"/>
<polygon fill="#63b8ff" stroke="#63b8ff" points="416.97,-27.96 422.89,-19.17 412.78,-22.35 416.97,-27.96"/>
</a>
</g>
</g>
<!-- Node13 -->
<g id="Node000013" class="node">
<title>Node13</title>
<g id="a_Node000013"><a xlink:title=" ">
<polygon fill="#e0e0e0" stroke="#999999" points="390,-19 337,-19 337,0 390,0 390,-19"/>
<text text-anchor="middle" x="363.5" y="-7" font-family="Helvetica,sans-Serif" font-size="10.00">cstddef</text>
</a>
</g>
</g>
<!-- Node12&#45;&gt;Node13 -->
<g id="edge18_Node000012_Node000013" class="edge">
<title>Node12&#45;&gt;Node13</title>
<g id="a_edge18_Node000012_Node000013"><a xlink:title=" ">
<path fill="none" stroke="#63b8ff" d="M363.5,-54.75C363.5,-47.8 363.5,-37.85 363.5,-29.13"/>
<polygon fill="#63b8ff" stroke="#63b8ff" points="367,-29.09 363.5,-19.09 360,-29.09 367,-29.09"/>
</a>
</g>
</g>
</g>
</svg>
