<?xml version="1.0" encoding="UTF-8" standalone="no"?>
<!DOCTYPE svg PUBLIC "-//W3C//DTD SVG 1.1//EN"
 "http://www.w3.org/Graphics/SVG/1.1/DTD/svg11.dtd">
<!-- Generated by graphviz version 2.43.0 (0)
 -->
<!-- Title: hydflux_mod::FieldArray&lt; T &gt; Pages: 1 -->
<svg width="408pt" height="137pt"
 viewBox="0.00 0.00 407.50 137.00" xmlns="http://www.w3.org/2000/svg" xmlns:xlink="http://www.w3.org/1999/xlink">
<g id="graph0" class="graph" transform="scale(1 1) rotate(0) translate(4 133)">
<title>hydflux_mod::FieldArray&lt; T &gt;</title>
<!-- Node1 -->
<g id="Node000001" class="node">
<title>Node1</title>
<g id="a_Node000001"><a xlink:title=" ">
<polygon fill="#999999" stroke="#666666" points="356,-19 192,-19 192,0 356,0 356,-19"/>
<text text-anchor="middle" x="274" y="-7" font-family="Helvetica,sans-Serif" font-size="10.00">hydflux_mod::FieldArray&lt; T &gt;</text>
</a>
</g>
</g>
<!-- Node2 -->
<g id="Node000002" class="node">
<title>Node2</title>
<g id="a_Node000002"><a xlink:title=" ">
<polygon fill="white" stroke="#666666" points="122,-129 0,-129 0,-99 122,-99 122,-129"/>
<text text-anchor="start" x="8" y="-117" font-family="Helvetica,sans-Serif" font-size="10.00">View&lt; T ****, Kokkos</text>
<text text-anchor="middle" x="61" y="-106" font-family="Helvetica,sans-Serif" font-size="10.00">::LayoutLeft &gt;</text>
</a>
</g>
</g>
<!-- Node2&#45;&gt;Node1 -->
<g id="edge1_Node000001_Node000002" class="edge">
<title>Node2&#45;&gt;Node1</title>
<g id="a_edge1_Node000001_Node000002"><a xlink:title=" ">
<path fill="none" stroke="#9a32cd" stroke-dasharray="5,2" d="M82.82,-92.04C101.97,-74.79 131.31,-50.98 161,-37 178.41,-28.8 198.56,-23.03 216.97,-19.02"/>
<polygon fill="#9a32cd" stroke="#9a32cd" points="80.27,-89.64 75.27,-98.98 85,-94.79 80.27,-89.64"/>
</a>
</g>
<text text-anchor="middle" x="180" y="-56.5" font-family="Helvetica,sans-Serif" font-size="10.00" fill="grey"> d_view</text>
</g>
<!-- Node3 -->
<g id="Node000003" class="node">
<title>Node3</title>
<g id="a_Node000003"><a xlink:title=" ">
<polygon fill="white" stroke="#666666" points="240,-123.5 140,-123.5 140,-104.5 240,-104.5 240,-123.5"/>
<text text-anchor="middle" x="190" y="-111.5" font-family="Helvetica,sans-Serif" font-size="10.00">host_mirror_type</text>
</a>
</g>
</g>
<!-- Node3&#45;&gt;Node1 -->
<g id="edge2_Node000001_Node000003" class="edge">
<title>Node3&#45;&gt;Node1</title>
<g id="a_edge2_Node000001_Node000003"><a xlink:title=" ">
<path fill="none" stroke="#9a32cd" stroke-dasharray="5,2" d="M197.07,-94.53C204.07,-78.03 216.04,-53.91 232,-37 238.86,-29.73 248.13,-23.6 256.21,-19.08"/>
<polygon fill="#9a32cd" stroke="#9a32cd" points="193.7,-93.54 193.2,-104.12 200.19,-96.16 193.7,-93.54"/>
</a>
</g>
<text text-anchor="middle" x="251" y="-56.5" font-family="Helvetica,sans-Serif" font-size="10.00" fill="grey"> h_view</text>
</g>
<!-- Node4 -->
<g id="Node000004" class="node">
<title>Node4</title>
<g id="a_Node000004"><a xlink:title=" ">
<polygon fill="white" stroke="#666666" points="289.5,-123.5 258.5,-123.5 258.5,-104.5 289.5,-104.5 289.5,-123.5"/>
<text text-anchor="middle" x="274" y="-111.5" font-family="Helvetica,sans-Serif" font-size="10.00">T *</text>
</a>
</g>
</g>
<!-- Node4&#45;&gt;Node1 -->
<g id="edge3_Node000001_Node000004" class="edge">
<title>Node4&#45;&gt;Node1</title>
<g id="a_edge3_Node000001_Node000004"><a xlink:title=" ">
<path fill="none" stroke="#9a32cd" stroke-dasharray="5,2" d="M274,-94.03C274,-71.73 274,-35.69 274,-19.22"/>
<polygon fill="#9a32cd" stroke="#9a32cd" points="270.5,-94.26 274,-104.26 277.5,-94.26 270.5,-94.26"/>
</a>
</g>
<text text-anchor="middle" x="286.5" y="-56.5" font-family="Helvetica,sans-Serif" font-size="10.00" fill="grey"> data</text>
</g>
<!-- Node5 -->
<g id="Node000005" class="node">
<title>Node5</title>
<g id="a_Node000005"><a xlink:title=" ">
<polygon fill="white" stroke="#666666" points="336.5,-123.5 307.5,-123.5 307.5,-104.5 336.5,-104.5 336.5,-123.5"/>
<text text-anchor="middle" x="322" y="-111.5" font-family="Helvetica,sans-Serif" font-size="10.00">int</text>
</a>
</g>
</g>
<!-- Node5&#45;&gt;Node1 -->
<g id="edge4_Node000001_Node000005" class="edge">
<title>Node5&#45;&gt;Node1</title>
<g id="a_edge4_Node000001_Node000005"><a xlink:title=" ">
<path fill="none" stroke="#9a32cd" stroke-dasharray="5,2" d="M319.23,-94.26C316.26,-78.22 310.48,-54.94 300,-37 296.03,-30.21 289.94,-23.87 284.65,-19.1"/>
<polygon fill="#9a32cd" stroke="#9a32cd" points="315.84,-95.19 320.93,-104.48 322.74,-94.04 315.84,-95.19"/>
</a>
</g>
<text text-anchor="middle" x="324" y="-73" font-family="Helvetica,sans-Serif" font-size="10.00" fill="grey"> n1</text>
<text text-anchor="middle" x="324" y="-62" font-family="Helvetica,sans-Serif" font-size="10.00" fill="grey">n2</text>
<text text-anchor="middle" x="324" y="-51" font-family="Helvetica,sans-Serif" font-size="10.00" fill="grey">n3</text>
<text text-anchor="middle" x="324" y="-40" font-family="Helvetica,sans-Serif" font-size="10.00" fill="grey">nv</text>
</g>
<!-- Node6 -->
<g id="Node000006" class="node">
<title>Node6</title>
<g id="a_Node000006"><a xlink:title=" ">
<polygon fill="white" stroke="#666666" points="399.5,-123.5 354.5,-123.5 354.5,-104.5 399.5,-104.5 399.5,-123.5"/>
<text text-anchor="middle" x="377" y="-111.5" font-family="Helvetica,sans-Serif" font-size="10.00">size_t</text>
</a>
</g>
</g>
<!-- Node6&#45;&gt;Node1 -->
<g id="edge5_Node000001_Node000006" class="edge">
<title>Node6&#45;&gt;Node1</title>
<g id="a_edge5_Node000001_Node000006"><a xlink:title=" ">
<path fill="none" stroke="#9a32cd" stroke-dasharray="5,2" d="M371.01,-94.44C364.7,-77.5 353.26,-52.76 336,-37 327.27,-29.03 315.78,-23.22 305.06,-19.11"/>
<polygon fill="#9a32cd" stroke="#9a32cd" points="367.84,-95.98 374.42,-104.28 374.45,-93.69 367.84,-95.98"/>
</a>
</g>
<text text-anchor="middle" x="376.5" y="-56.5" font-family="Helvetica,sans-Serif" font-size="10.00" fill="grey"> size</text>
</g>
</g>
</svg>
