<?xml version="1.0" encoding="UTF-8" standalone="no"?>
<!DOCTYPE svg PUBLIC "-//W3C//DTD SVG 1.1//EN"
 "http://www.w3.org/Graphics/SVG/1.1/DTD/svg11.dtd">
<!-- Generated by graphviz version 2.43.0 (0)
 -->
<!-- Title: src_cpp_kokkos_device/config.hpp Pages: 1 -->
<svg width="704pt" height="170pt"
 viewBox="0.00 0.00 704.00 170.00" xmlns="http://www.w3.org/2000/svg" xmlns:xlink="http://www.w3.org/1999/xlink">
<g id="graph0" class="graph" transform="scale(1 1) rotate(0) translate(4 166)">
<title>src_cpp_kokkos_device/config.hpp</title>
<!-- Node1 -->
<g id="Node000001" class="node">
<title>Node1</title>
<g id="a_Node000001"><a xlink:title=" ">
<polygon fill="#999999" stroke="#666666" points="353,-162 223,-162 223,-132 353,-132 353,-162"/>
<text text-anchor="start" x="231" y="-150" font-family="Helvetica,sans-Serif" font-size="10.00">src_cpp_kokkos_device</text>
<text text-anchor="middle" x="288" y="-139" font-family="Helvetica,sans-Serif" font-size="10.00">/config.hpp</text>
</a>
</g>
</g>
<!-- Node2 -->
<g id="Node000002" class="node">
<title>Node2</title>
<g id="a_Node000002"><a xlink:href="boundary_8cpp.html" target="_top" xlink:title=" ">
<polygon fill="white" stroke="#666666" points="130,-30 0,-30 0,0 130,0 130,-30"/>
<text text-anchor="start" x="8" y="-18" font-family="Helvetica,sans-Serif" font-size="10.00">src_cpp_kokkos_device</text>
<text text-anchor="middle" x="65" y="-7" font-family="Helvetica,sans-Serif" font-size="10.00">/boundary.cpp</text>
</a>
</g>
</g>
<!-- Node1&#45;&gt;Node2 -->
<g id="edge1_Node000001_Node000002" class="edge">
<title>Node1&#45;&gt;Node2</title>
<g id="a_edge1_Node000001_Node000002"><a xlink:title=" ">
<path fill="none" stroke="#63b8ff" d="M212.62,-137.45C159.01,-129.74 93.37,-116.43 75,-96 58.81,-77.99 59.94,-47.79 62.37,-30.1"/>
<polygon fill="#63b8ff" stroke="#63b8ff" points="212.43,-140.96 222.82,-138.87 213.39,-134.02 212.43,-140.96"/>
</a>
</g>
</g>
<!-- Node3 -->
<g id="Node000003" class="node">
<title>Node3</title>
<g id="a_Node000003"><a xlink:href="boundary_8hpp.html" target="_top" xlink:title=" ">
<polygon fill="white" stroke="#666666" points="214,-96 84,-96 84,-66 214,-66 214,-96"/>
<text text-anchor="start" x="92" y="-84" font-family="Helvetica,sans-Serif" font-size="10.00">src_cpp_kokkos_device</text>
<text text-anchor="middle" x="149" y="-73" font-family="Helvetica,sans-Serif" font-size="10.00">/boundary.hpp</text>
</a>
</g>
</g>
<!-- Node1&#45;&gt;Node3 -->
<g id="edge2_Node000001_Node000003" class="edge">
<title>Node1&#45;&gt;Node3</title>
<g id="a_edge2_Node000001_Node000003"><a xlink:title=" ">
<path fill="none" stroke="#63b8ff" d="M248.14,-127.65C226.28,-117.58 199.61,-105.3 179.43,-96.01"/>
<polygon fill="#63b8ff" stroke="#63b8ff" points="246.95,-130.95 257.5,-131.95 249.88,-124.59 246.95,-130.95"/>
</a>
</g>
</g>
<!-- Node4 -->
<g id="Node000004" class="node">
<title>Node4</title>
<g id="a_Node000004"><a xlink:href="main_8cpp.html" target="_top" xlink:title=" ">
<polygon fill="white" stroke="#666666" points="297,-30 167,-30 167,0 297,0 297,-30"/>
<text text-anchor="start" x="175" y="-18" font-family="Helvetica,sans-Serif" font-size="10.00">src_cpp_kokkos_device</text>
<text text-anchor="middle" x="232" y="-7" font-family="Helvetica,sans-Serif" font-size="10.00">/main.cpp</text>
</a>
</g>
</g>
<!-- Node1&#45;&gt;Node4 -->
<g id="edge5_Node000001_Node000004" class="edge">
<title>Node1&#45;&gt;Node4</title>
<g id="a_edge5_Node000001_Node000004"><a xlink:title=" ">
<path fill="none" stroke="#63b8ff" d="M274.67,-123.02C270.07,-114.65 265.05,-105.03 261,-96 250.91,-73.49 241.64,-46.3 236.42,-30.12"/>
<polygon fill="#63b8ff" stroke="#63b8ff" points="271.68,-124.84 279.63,-131.84 277.78,-121.41 271.68,-124.84"/>
</a>
</g>
</g>
<!-- Node5 -->
<g id="Node000005" class="node">
<title>Node5</title>
<g id="a_Node000005"><a xlink:href="mhd_8cpp.html" target="_top" xlink:title=" ">
<polygon fill="white" stroke="#666666" points="400,-96 270,-96 270,-66 400,-66 400,-96"/>
<text text-anchor="start" x="278" y="-84" font-family="Helvetica,sans-Serif" font-size="10.00">src_cpp_kokkos_device</text>
<text text-anchor="middle" x="335" y="-73" font-family="Helvetica,sans-Serif" font-size="10.00">/mhd.cpp</text>
</a>
</g>
</g>
<!-- Node1&#45;&gt;Node5 -->
<g id="edge6_Node000001_Node000005" class="edge">
<title>Node1&#45;&gt;Node5</title>
<g id="a_edge6_Node000001_Node000005"><a xlink:title=" ">
<path fill="none" stroke="#63b8ff" d="M304.5,-123.53C311.19,-114.43 318.7,-104.19 324.6,-96.16"/>
<polygon fill="#63b8ff" stroke="#63b8ff" points="301.53,-121.66 298.43,-131.8 307.17,-125.81 301.53,-121.66"/>
</a>
</g>
</g>
<!-- Node6 -->
<g id="Node000006" class="node">
<title>Node6</title>
<g id="a_Node000006"><a xlink:href="mpi__config_8cpp.html" target="_top" xlink:title=" ">
<polygon fill="white" stroke="#666666" points="548,-96 418,-96 418,-66 548,-66 548,-96"/>
<text text-anchor="start" x="426" y="-84" font-family="Helvetica,sans-Serif" font-size="10.00">src_cpp_kokkos_device</text>
<text text-anchor="middle" x="483" y="-73" font-family="Helvetica,sans-Serif" font-size="10.00">/mpi_config.cpp</text>
</a>
</g>
</g>
<!-- Node1&#45;&gt;Node6 -->
<g id="edge7_Node000001_Node000006" class="edge">
<title>Node1&#45;&gt;Node6</title>
<g id="a_edge7_Node000001_Node000006"><a xlink:title=" ">
<path fill="none" stroke="#63b8ff" d="M340.64,-128.72C371.89,-118.47 410.99,-105.63 440.31,-96.01"/>
<polygon fill="#63b8ff" stroke="#63b8ff" points="339.2,-125.51 330.79,-131.95 341.39,-132.16 339.2,-125.51"/>
</a>
</g>
</g>
<!-- Node7 -->
<g id="Node000007" class="node">
<title>Node7</title>
<g id="a_Node000007"><a xlink:href="output_8cpp.html" target="_top" xlink:title=" ">
<polygon fill="white" stroke="#666666" points="696,-96 566,-96 566,-66 696,-66 696,-96"/>
<text text-anchor="start" x="574" y="-84" font-family="Helvetica,sans-Serif" font-size="10.00">src_cpp_kokkos_device</text>
<text text-anchor="middle" x="631" y="-73" font-family="Helvetica,sans-Serif" font-size="10.00">/output.cpp</text>
</a>
</g>
</g>
<!-- Node1&#45;&gt;Node7 -->
<g id="edge8_Node000001_Node000007" class="edge">
<title>Node1&#45;&gt;Node7</title>
<g id="a_edge8_Node000001_Node000007"><a xlink:title=" ">
<path fill="none" stroke="#63b8ff" d="M363.41,-132.05C417.34,-122.06 491.65,-108.26 557,-96 559.83,-95.47 562.72,-94.93 565.63,-94.38"/>
<polygon fill="#63b8ff" stroke="#63b8ff" points="362.43,-128.67 353.24,-133.93 363.71,-135.55 362.43,-128.67"/>
</a>
</g>
</g>
<!-- Node3&#45;&gt;Node2 -->
<g id="edge3_Node000003_Node000002" class="edge">
<title>Node3&#45;&gt;Node2</title>
<g id="a_edge3_Node000003_Node000002"><a xlink:title=" ">
<path fill="none" stroke="#63b8ff" d="M122.06,-59.48C109.51,-49.91 94.89,-38.77 83.59,-30.16"/>
<polygon fill="#63b8ff" stroke="#63b8ff" points="120.28,-62.52 130.36,-65.8 124.52,-56.95 120.28,-62.52"/>
</a>
</g>
</g>
<!-- Node3&#45;&gt;Node4 -->
<g id="edge4_Node000003_Node000004" class="edge">
<title>Node3&#45;&gt;Node4</title>
<g id="a_edge4_Node000003_Node000004"><a xlink:title=" ">
<path fill="none" stroke="#63b8ff" d="M175.61,-59.48C188.02,-49.91 202.47,-38.77 213.63,-30.16"/>
<polygon fill="#63b8ff" stroke="#63b8ff" points="173.2,-56.92 167.42,-65.8 177.48,-62.46 173.2,-56.92"/>
</a>
</g>
</g>
</g>
</svg>
