<?xml version="1.0" encoding="UTF-8" standalone="no"?>
<!DOCTYPE svg PUBLIC "-//W3C//DTD SVG 1.1//EN"
 "http://www.w3.org/Graphics/SVG/1.1/DTD/svg11.dtd">
<!-- Generated by graphviz version 2.43.0 (0)
 -->
<!-- Title: src_cpp_kokkos_device/main.cpp Pages: 1 -->
<svg width="1012pt" height="203pt"
 viewBox="0.00 0.00 1012.29 203.00" xmlns="http://www.w3.org/2000/svg" xmlns:xlink="http://www.w3.org/1999/xlink">
<g id="graph0" class="graph" transform="scale(1 1) rotate(0) translate(4 199)">
<title>src_cpp_kokkos_device/main.cpp</title>
<!-- Node1 -->
<g id="Node000001" class="node">
<title>Node1</title>
<g id="a_Node000001"><a xlink:title=" ">
<polygon fill="#999999" stroke="#666666" points="418.29,-195 288.29,-195 288.29,-165 418.29,-165 418.29,-195"/>
<text text-anchor="start" x="296.29" y="-183" font-family="Helvetica,sans-Serif" font-size="10.00">src_cpp_kokkos_device</text>
<text text-anchor="middle" x="353.29" y="-172" font-family="Helvetica,sans-Serif" font-size="10.00">/main.cpp</text>
</a>
</g>
</g>
<!-- Node2 -->
<g id="Node000002" class="node">
<title>Node2</title>
<g id="a_Node000002"><a xlink:title=" ">
<polygon fill="#e0e0e0" stroke="#999999" points="85.79,-19 38.79,-19 38.79,0 85.79,0 85.79,-19"/>
<text text-anchor="middle" x="62.29" y="-7" font-family="Helvetica,sans-Serif" font-size="10.00">cmath</text>
</a>
</g>
</g>
<!-- Node1&#45;&gt;Node2 -->
<g id="edge1_Node000001_Node000002" class="edge">
<title>Node1&#45;&gt;Node2</title>
<g id="a_edge1_Node000001_Node000002"><a xlink:title=" ">
<path fill="none" stroke="#63b8ff" d="M288.23,-179.24C198.73,-178.02 44.62,-169.85 9.29,-129 -17.72,-97.78 21.05,-50.57 45.3,-26.23"/>
<polygon fill="#63b8ff" stroke="#63b8ff" points="47.82,-28.66 52.56,-19.19 42.95,-23.64 47.82,-28.66"/>
</a>
</g>
</g>
<!-- Node3 -->
<g id="Node000003" class="node">
<title>Node3</title>
<g id="a_Node000003"><a xlink:title=" ">
<polygon fill="#e0e0e0" stroke="#999999" points="186.29,-19 140.29,-19 140.29,0 186.29,0 186.29,-19"/>
<text text-anchor="middle" x="163.29" y="-7" font-family="Helvetica,sans-Serif" font-size="10.00">cstdio</text>
</a>
</g>
</g>
<!-- Node1&#45;&gt;Node3 -->
<g id="edge2_Node000001_Node000003" class="edge">
<title>Node1&#45;&gt;Node3</title>
<g id="a_edge2_Node000001_Node000003"><a xlink:title=" ">
<path fill="none" stroke="#63b8ff" d="M288.13,-178.8C201.63,-176.99 55.88,-168.05 22.29,-129 -16.9,-83.45 77.39,-40.93 130.33,-21.53"/>
<polygon fill="#63b8ff" stroke="#63b8ff" points="131.77,-24.73 140.01,-18.07 129.41,-18.14 131.77,-24.73"/>
</a>
</g>
</g>
<!-- Node4 -->
<g id="Node000004" class="node">
<title>Node4</title>
<g id="a_Node000004"><a xlink:title=" ">
<polygon fill="#e0e0e0" stroke="#999999" points="81.29,-129 31.29,-129 31.29,-110 81.29,-110 81.29,-129"/>
<text text-anchor="middle" x="56.29" y="-117" font-family="Helvetica,sans-Serif" font-size="10.00">cstring</text>
</a>
</g>
</g>
<!-- Node1&#45;&gt;Node4 -->
<g id="edge3_Node000001_Node000004" class="edge">
<title>Node1&#45;&gt;Node4</title>
<g id="a_edge3_Node000001_Node000004"><a xlink:title=" ">
<path fill="none" stroke="#63b8ff" d="M288.23,-167.7C237.16,-158.58 164.07,-145 91.3,-129.13"/>
<polygon fill="#63b8ff" stroke="#63b8ff" points="92.02,-125.7 81.5,-126.97 90.51,-132.54 92.02,-125.7"/>
</a>
</g>
</g>
<!-- Node5 -->
<g id="Node000005" class="node">
<title>Node5</title>
<g id="a_Node000005"><a xlink:title=" ">
<polygon fill="#e0e0e0" stroke="#999999" points="146.79,-129 99.79,-129 99.79,-110 146.79,-110 146.79,-129"/>
<text text-anchor="middle" x="123.29" y="-117" font-family="Helvetica,sans-Serif" font-size="10.00">cerrno</text>
</a>
</g>
</g>
<!-- Node1&#45;&gt;Node5 -->
<g id="edge4_Node000001_Node000005" class="edge">
<title>Node1&#45;&gt;Node5</title>
<g id="a_edge4_Node000001_Node000005"><a xlink:title=" ">
<path fill="none" stroke="#63b8ff" d="M298.19,-164.99C254.1,-153.77 193.7,-138.41 156.64,-128.98"/>
<polygon fill="#63b8ff" stroke="#63b8ff" points="157.4,-125.57 146.85,-126.49 155.67,-132.35 157.4,-125.57"/>
</a>
</g>
</g>
<!-- Node6 -->
<g id="Node000006" class="node">
<title>Node6</title>
<g id="a_Node000006"><a xlink:title=" ">
<polygon fill="#e0e0e0" stroke="#999999" points="585.29,-19 521.29,-19 521.29,0 585.29,0 585.29,-19"/>
<text text-anchor="middle" x="553.29" y="-7" font-family="Helvetica,sans-Serif" font-size="10.00">algorithm</text>
</a>
</g>
</g>
<!-- Node1&#45;&gt;Node6 -->
<g id="edge5_Node000001_Node000006" class="edge">
<title>Node1&#45;&gt;Node6</title>
<g id="a_edge5_Node000001_Node000006"><a xlink:title=" ">
<path fill="none" stroke="#63b8ff" d="M418.53,-173.29C477.1,-166.65 556.79,-153.35 576.29,-129 599.87,-99.54 578.89,-52.88 564.37,-27.81"/>
<polygon fill="#63b8ff" stroke="#63b8ff" points="567.24,-25.78 559.05,-19.05 561.26,-29.41 567.24,-25.78"/>
</a>
</g>
</g>
<!-- Node7 -->
<g id="Node000007" class="node">
<title>Node7</title>
<g id="a_Node000007"><a xlink:title=" ">
<polygon fill="#e0e0e0" stroke="#999999" points="253.29,-129 203.29,-129 203.29,-110 253.29,-110 253.29,-129"/>
<text text-anchor="middle" x="228.29" y="-117" font-family="Helvetica,sans-Serif" font-size="10.00">chrono</text>
</a>
</g>
</g>
<!-- Node1&#45;&gt;Node7 -->
<g id="edge6_Node000001_Node000007" class="edge">
<title>Node1&#45;&gt;Node7</title>
<g id="a_edge6_Node000001_Node000007"><a xlink:title=" ">
<path fill="none" stroke="#63b8ff" d="M323.34,-164.99C302.86,-155.4 275.91,-142.79 255.93,-133.44"/>
<polygon fill="#63b8ff" stroke="#63b8ff" points="257.29,-130.21 246.75,-129.14 254.32,-136.55 257.29,-130.21"/>
</a>
</g>
</g>
<!-- Node8 -->
<g id="Node000008" class="node">
<title>Node8</title>
<g id="a_Node000008"><a xlink:title=" ">
<polygon fill="#e0e0e0" stroke="#999999" points="325.29,-129 271.29,-129 271.29,-110 325.29,-110 325.29,-129"/>
<text text-anchor="middle" x="298.29" y="-117" font-family="Helvetica,sans-Serif" font-size="10.00">random</text>
</a>
</g>
</g>
<!-- Node1&#45;&gt;Node8 -->
<g id="edge7_Node000001_Node000008" class="edge">
<title>Node1&#45;&gt;Node8</title>
<g id="a_edge7_Node000001_Node000008"><a xlink:title=" ">
<path fill="none" stroke="#63b8ff" d="M339.97,-164.84C331.99,-156.35 321.81,-145.52 313.51,-136.69"/>
<polygon fill="#63b8ff" stroke="#63b8ff" points="315.93,-134.15 306.53,-129.27 310.83,-138.95 315.93,-134.15"/>
</a>
</g>
</g>
<!-- Node9 -->
<g id="Node000009" class="node">
<title>Node9</title>
<g id="a_Node000009"><a xlink:title=" ">
<polygon fill="#e0e0e0" stroke="#999999" points="354.29,-19 254.29,-19 254.29,0 354.29,0 354.29,-19"/>
<text text-anchor="middle" x="304.29" y="-7" font-family="Helvetica,sans-Serif" font-size="10.00">Kokkos_Core.hpp</text>
</a>
</g>
</g>
<!-- Node1&#45;&gt;Node9 -->
<g id="edge8_Node000001_Node000009" class="edge">
<title>Node1&#45;&gt;Node9</title>
<g id="a_edge8_Node000001_Node000009"><a xlink:title=" ">
<path fill="none" stroke="#63b8ff" d="M349.53,-164.96C345.76,-151 339.76,-128.98 334.29,-110 326.1,-81.62 316.12,-48.86 309.98,-28.91"/>
<polygon fill="#63b8ff" stroke="#63b8ff" points="313.3,-27.79 307.01,-19.26 306.61,-29.85 313.3,-27.79"/>
</a>
</g>
</g>
<!-- Node10 -->
<g id="Node000010" class="node">
<title>Node10</title>
<g id="a_Node000010"><a xlink:title=" ">
<polygon fill="#e0e0e0" stroke="#999999" points="428.79,-129 381.79,-129 381.79,-110 428.79,-110 428.79,-129"/>
<text text-anchor="middle" x="405.29" y="-117" font-family="Helvetica,sans-Serif" font-size="10.00">omp.h</text>
</a>
</g>
</g>
<!-- Node1&#45;&gt;Node10 -->
<g id="edge9_Node000001_Node000010" class="edge">
<title>Node1&#45;&gt;Node10</title>
<g id="a_edge9_Node000001_Node000010"><a xlink:title=" ">
<path fill="none" stroke="#63b8ff" d="M365.87,-164.84C373.34,-156.43 382.85,-145.74 390.65,-136.96"/>
<polygon fill="#63b8ff" stroke="#63b8ff" points="393.47,-139.07 397.49,-129.27 388.23,-134.41 393.47,-139.07"/>
</a>
</g>
</g>
<!-- Node11 -->
<g id="Node000011" class="node">
<title>Node11</title>
<g id="a_Node000011"><a xlink:href="config_8hpp.html" target="_top" xlink:title=" ">
<polygon fill="white" stroke="#666666" points="524.79,-74 457.79,-74 457.79,-55 524.79,-55 524.79,-74"/>
<text text-anchor="middle" x="491.29" y="-62" font-family="Helvetica,sans-Serif" font-size="10.00">config.hpp</text>
</a>
</g>
</g>
<!-- Node1&#45;&gt;Node11 -->
<g id="edge10_Node000001_Node000011" class="edge">
<title>Node1&#45;&gt;Node11</title>
<g id="a_edge10_Node000001_Node000011"><a xlink:title=" ">
<path fill="none" stroke="#63b8ff" d="M382.85,-164.84C399.99,-155.87 421.44,-143.29 438.29,-129 454.48,-115.26 469.65,-96.21 479.57,-82.56"/>
<polygon fill="#63b8ff" stroke="#63b8ff" points="482.63,-84.3 485.56,-74.11 476.92,-80.25 482.63,-84.3"/>
</a>
</g>
</g>
<!-- Node12 -->
<g id="Node000012" class="node">
<title>Node12</title>
<g id="a_Node000012"><a xlink:href="mpi__config_8hpp.html" target="_top" xlink:title=" ">
<polygon fill="white" stroke="#666666" points="714.79,-74 623.79,-74 623.79,-55 714.79,-55 714.79,-74"/>
<text text-anchor="middle" x="669.29" y="-62" font-family="Helvetica,sans-Serif" font-size="10.00">mpi_config.hpp</text>
</a>
</g>
</g>
<!-- Node1&#45;&gt;Node12 -->
<g id="edge11_Node000001_Node000012" class="edge">
<title>Node1&#45;&gt;Node12</title>
<g id="a_edge11_Node000001_Node000012"><a xlink:title=" ">
<path fill="none" stroke="#63b8ff" d="M418.51,-179.39C509.2,-178.39 666.3,-170.51 702.29,-129 714.67,-114.72 700.68,-94.98 687.29,-81.32"/>
<polygon fill="#63b8ff" stroke="#63b8ff" points="689.33,-78.43 679.68,-74.07 684.5,-83.5 689.33,-78.43"/>
</a>
</g>
</g>
<!-- Node15 -->
<g id="Node000015" class="node">
<title>Node15</title>
<g id="a_Node000015"><a xlink:href="mhd_8hpp.html" target="_top" xlink:title=" ">
<polygon fill="white" stroke="#666666" points="264.79,-74 205.79,-74 205.79,-55 264.79,-55 264.79,-74"/>
<text text-anchor="middle" x="235.29" y="-62" font-family="Helvetica,sans-Serif" font-size="10.00">mhd.hpp</text>
</a>
</g>
</g>
<!-- Node1&#45;&gt;Node15 -->
<g id="edge14_Node000001_Node000015" class="edge">
<title>Node1&#45;&gt;Node15</title>
<g id="a_edge14_Node000001_Node000015"><a xlink:title=" ">
<path fill="none" stroke="#63b8ff" d="M288.21,-176.09C254.4,-170.87 215.77,-158.28 194.29,-129 182.45,-112.87 199.25,-93.44 214.77,-80.35"/>
<polygon fill="#63b8ff" stroke="#63b8ff" points="216.95,-83.09 222.62,-74.14 212.6,-77.6 216.95,-83.09"/>
</a>
</g>
</g>
<!-- Node16 -->
<g id="Node000016" class="node">
<title>Node16</title>
<g id="a_Node000016"><a xlink:href="boundary_8hpp.html" target="_top" xlink:title=" ">
<polygon fill="white" stroke="#666666" points="567.29,-129 485.29,-129 485.29,-110 567.29,-110 567.29,-129"/>
<text text-anchor="middle" x="526.29" y="-117" font-family="Helvetica,sans-Serif" font-size="10.00">boundary.hpp</text>
</a>
</g>
</g>
<!-- Node1&#45;&gt;Node16 -->
<g id="edge19_Node000001_Node000016" class="edge">
<title>Node1&#45;&gt;Node16</title>
<g id="a_edge19_Node000001_Node000016"><a xlink:title=" ">
<path fill="none" stroke="#63b8ff" d="M394.72,-164.99C424.19,-155.02 463.34,-141.78 491.25,-132.35"/>
<polygon fill="#63b8ff" stroke="#63b8ff" points="492.64,-135.57 500.99,-129.05 490.4,-128.94 492.64,-135.57"/>
</a>
</g>
</g>
<!-- Node17 -->
<g id="Node000017" class="node">
<title>Node17</title>
<g id="a_Node000017"><a xlink:href="output_8hpp.html" target="_top" xlink:title=" ">
<polygon fill="white" stroke="#666666" points="692.79,-129 623.79,-129 623.79,-110 692.79,-110 692.79,-129"/>
<text text-anchor="middle" x="658.29" y="-117" font-family="Helvetica,sans-Serif" font-size="10.00">output.hpp</text>
</a>
</g>
</g>
<!-- Node1&#45;&gt;Node17 -->
<g id="edge23_Node000001_Node000017" class="edge">
<title>Node1&#45;&gt;Node17</title>
<g id="a_edge23_Node000001_Node000017"><a xlink:title=" ">
<path fill="none" stroke="#63b8ff" d="M418.34,-166.52C477.22,-155.23 562.37,-138.9 613.82,-129.03"/>
<polygon fill="#63b8ff" stroke="#63b8ff" points="614.48,-132.47 623.64,-127.15 613.16,-125.59 614.48,-132.47"/>
</a>
</g>
</g>
<!-- Node18 -->
<g id="Node000018" class="node">
<title>Node18</title>
<g id="a_Node000018"><a xlink:href="main_8hpp.html" target="_top" xlink:title=" ">
<polygon fill="white" stroke="#666666" points="813.29,-129 751.29,-129 751.29,-110 813.29,-110 813.29,-129"/>
<text text-anchor="middle" x="782.29" y="-117" font-family="Helvetica,sans-Serif" font-size="10.00">main.hpp</text>
</a>
</g>
</g>
<!-- Node1&#45;&gt;Node18 -->
<g id="edge25_Node000001_Node000018" class="edge">
<title>Node1&#45;&gt;Node18</title>
<g id="a_edge25_Node000001_Node000018"><a xlink:title=" ">
<path fill="none" stroke="#63b8ff" d="M418.31,-171.47C494.44,-162.42 624.26,-146.3 735.29,-129 737.22,-128.7 739.2,-128.38 741.2,-128.05"/>
<polygon fill="#63b8ff" stroke="#63b8ff" points="741.96,-131.47 751.22,-126.34 740.78,-124.57 741.96,-131.47"/>
</a>
</g>
</g>
<!-- Node13 -->
<g id="Node000013" class="node">
<title>Node13</title>
<g id="a_Node000013"><a xlink:title=" ">
<polygon fill="#e0e0e0" stroke="#999999" points="647.29,-19 603.29,-19 603.29,0 647.29,0 647.29,-19"/>
<text text-anchor="middle" x="625.29" y="-7" font-family="Helvetica,sans-Serif" font-size="10.00">mpi.h</text>
</a>
</g>
</g>
<!-- Node12&#45;&gt;Node13 -->
<g id="edge12_Node000012_Node000013" class="edge">
<title>Node12&#45;&gt;Node13</title>
<g id="a_edge12_Node000012_Node000013"><a xlink:title=" ">
<path fill="none" stroke="#63b8ff" d="M662.02,-54.75C655.74,-47.18 646.5,-36.05 638.85,-26.84"/>
<polygon fill="#63b8ff" stroke="#63b8ff" points="641.5,-24.55 632.42,-19.09 636.11,-29.02 641.5,-24.55"/>
</a>
</g>
</g>
<!-- Node14 -->
<g id="Node000014" class="node">
<title>Node14</title>
<g id="a_Node000014"><a xlink:title=" ">
<polygon fill="#e0e0e0" stroke="#999999" points="718.79,-19 665.79,-19 665.79,0 718.79,0 718.79,-19"/>
<text text-anchor="middle" x="692.29" y="-7" font-family="Helvetica,sans-Serif" font-size="10.00">cstddef</text>
</a>
</g>
</g>
<!-- Node12&#45;&gt;Node14 -->
<g id="edge13_Node000012_Node000014" class="edge">
<title>Node12&#45;&gt;Node14</title>
<g id="a_edge13_Node000012_Node000014"><a xlink:title=" ">
<path fill="none" stroke="#63b8ff" d="M673.08,-54.75C676.2,-47.57 680.71,-37.18 684.57,-28.27"/>
<polygon fill="#63b8ff" stroke="#63b8ff" points="687.79,-29.66 688.56,-19.09 681.37,-26.87 687.79,-29.66"/>
</a>
</g>
</g>
<!-- Node15&#45;&gt;Node2 -->
<g id="edge15_Node000015_Node000002" class="edge">
<title>Node15&#45;&gt;Node2</title>
<g id="a_edge15_Node000015_Node000002"><a xlink:title=" ">
<path fill="none" stroke="#63b8ff" d="M207.49,-54.98C177.07,-45.66 128.3,-30.72 95.78,-20.76"/>
<polygon fill="#63b8ff" stroke="#63b8ff" points="96.43,-17.3 85.84,-17.72 94.38,-23.99 96.43,-17.3"/>
</a>
</g>
</g>
<!-- Node15&#45;&gt;Node3 -->
<g id="edge16_Node000015_Node000003" class="edge">
<title>Node15&#45;&gt;Node3</title>
<g id="a_edge16_Node000015_Node000003"><a xlink:title=" ">
<path fill="none" stroke="#63b8ff" d="M223.72,-54.98C212.87,-47 196.4,-34.88 183.4,-25.31"/>
<polygon fill="#63b8ff" stroke="#63b8ff" points="185.19,-22.28 175.06,-19.17 181.04,-27.92 185.19,-22.28"/>
</a>
</g>
</g>
<!-- Node15&#45;&gt;Node6 -->
<g id="edge17_Node000015_Node000006" class="edge">
<title>Node15&#45;&gt;Node6</title>
<g id="a_edge17_Node000015_Node000006"><a xlink:title=" ">
<path fill="none" stroke="#63b8ff" d="M264.92,-58.56C321.7,-49.1 446.01,-28.38 511.31,-17.5"/>
<polygon fill="#63b8ff" stroke="#63b8ff" points="511.97,-20.93 521.26,-15.84 510.82,-14.03 511.97,-20.93"/>
</a>
</g>
</g>
<!-- Node15&#45;&gt;Node9 -->
<g id="edge18_Node000015_Node000009" class="edge">
<title>Node15&#45;&gt;Node9</title>
<g id="a_edge18_Node000015_Node000009"><a xlink:title=" ">
<path fill="none" stroke="#63b8ff" d="M246.37,-54.98C256.77,-47 272.55,-34.88 285.01,-25.31"/>
<polygon fill="#63b8ff" stroke="#63b8ff" points="287.2,-28.04 293,-19.17 282.93,-22.49 287.2,-28.04"/>
</a>
</g>
</g>
<!-- Node16&#45;&gt;Node11 -->
<g id="edge20_Node000016_Node000011" class="edge">
<title>Node16&#45;&gt;Node11</title>
<g id="a_edge20_Node000016_Node000011"><a xlink:title=" ">
<path fill="none" stroke="#63b8ff" d="M520.51,-109.75C515.66,-102.42 508.61,-91.73 502.64,-82.7"/>
<polygon fill="#63b8ff" stroke="#63b8ff" points="505.39,-80.5 496.96,-74.09 499.55,-84.36 505.39,-80.5"/>
</a>
</g>
</g>
<!-- Node16&#45;&gt;Node12 -->
<g id="edge22_Node000016_Node000012" class="edge">
<title>Node16&#45;&gt;Node12</title>
<g id="a_edge22_Node000016_Node000012"><a xlink:title=" ">
<path fill="none" stroke="#63b8ff" d="M549.26,-109.98C572.78,-101.27 609.57,-87.63 636.22,-77.75"/>
<polygon fill="#63b8ff" stroke="#63b8ff" points="637.73,-80.93 645.89,-74.17 635.3,-74.36 637.73,-80.93"/>
</a>
</g>
</g>
<!-- Node16&#45;&gt;Node15 -->
<g id="edge21_Node000016_Node000015" class="edge">
<title>Node16&#45;&gt;Node15</title>
<g id="a_edge21_Node000016_Node000015"><a xlink:title=" ">
<path fill="none" stroke="#63b8ff" d="M485.21,-111.02C429.43,-100.86 330.36,-82.82 275.19,-72.77"/>
<polygon fill="#63b8ff" stroke="#63b8ff" points="275.56,-69.28 265.1,-70.93 274.31,-76.16 275.56,-69.28"/>
</a>
</g>
</g>
<!-- Node17&#45;&gt;Node12 -->
<g id="edge24_Node000017_Node000012" class="edge">
<title>Node17&#45;&gt;Node12</title>
<g id="a_edge24_Node000017_Node000012"><a xlink:title=" ">
<path fill="none" stroke="#63b8ff" d="M660.1,-109.75C661.54,-102.8 663.61,-92.85 665.42,-84.13"/>
<polygon fill="#63b8ff" stroke="#63b8ff" points="668.9,-84.59 667.5,-74.09 662.04,-83.17 668.9,-84.59"/>
</a>
</g>
</g>
<!-- Node19 -->
<g id="Node000019" class="node">
<title>Node19</title>
<g id="a_Node000019"><a xlink:href="hydro__arrays_8hpp.html" target="_top" xlink:title=" ">
<polygon fill="white" stroke="#666666" points="833.79,-74 732.79,-74 732.79,-55 833.79,-55 833.79,-74"/>
<text text-anchor="middle" x="783.29" y="-62" font-family="Helvetica,sans-Serif" font-size="10.00">hydro_arrays.hpp</text>
</a>
</g>
</g>
<!-- Node18&#45;&gt;Node19 -->
<g id="edge26_Node000018_Node000019" class="edge">
<title>Node18&#45;&gt;Node19</title>
<g id="a_edge26_Node000018_Node000019"><a xlink:title=" ">
<path fill="none" stroke="#63b8ff" d="M782.45,-109.75C782.58,-102.8 782.77,-92.85 782.93,-84.13"/>
<polygon fill="#63b8ff" stroke="#63b8ff" points="786.43,-84.15 783.12,-74.09 779.44,-84.02 786.43,-84.15"/>
</a>
</g>
</g>
<!-- Node19&#45;&gt;Node6 -->
<g id="edge30_Node000019_Node000006" class="edge">
<title>Node19&#45;&gt;Node6</title>
<g id="a_edge30_Node000019_Node000006"><a xlink:title=" ">
<path fill="none" stroke="#63b8ff" d="M746.33,-54.98C705.07,-45.48 638.42,-30.12 595.23,-20.17"/>
<polygon fill="#63b8ff" stroke="#63b8ff" points="595.85,-16.72 585.32,-17.88 594.28,-23.54 595.85,-16.72"/>
</a>
</g>
</g>
<!-- Node19&#45;&gt;Node14 -->
<g id="edge29_Node000019_Node000014" class="edge">
<title>Node19&#45;&gt;Node14</title>
<g id="a_edge29_Node000019_Node000014"><a xlink:title=" ">
<path fill="none" stroke="#63b8ff" d="M768.66,-54.98C754.42,-46.69 732.53,-33.94 715.83,-24.22"/>
<polygon fill="#63b8ff" stroke="#63b8ff" points="717.57,-21.18 707.17,-19.17 714.05,-27.23 717.57,-21.18"/>
</a>
</g>
</g>
<!-- Node20 -->
<g id="Node000020" class="node">
<title>Node20</title>
<g id="a_Node000020"><a xlink:title=" ">
<polygon fill="#e0e0e0" stroke="#999999" points="933.79,-19 886.79,-19 886.79,0 933.79,0 933.79,-19"/>
<text text-anchor="middle" x="910.29" y="-7" font-family="Helvetica,sans-Serif" font-size="10.00">vector</text>
</a>
</g>
</g>
<!-- Node19&#45;&gt;Node20 -->
<g id="edge27_Node000019_Node000020" class="edge">
<title>Node19&#45;&gt;Node20</title>
<g id="a_edge27_Node000019_Node000020"><a xlink:title=" ">
<path fill="none" stroke="#63b8ff" d="M803.69,-54.98C824.3,-46.38 856.39,-32.99 879.98,-23.15"/>
<polygon fill="#63b8ff" stroke="#63b8ff" points="881.63,-26.25 889.51,-19.17 878.93,-19.79 881.63,-26.25"/>
</a>
</g>
</g>
<!-- Node21 -->
<g id="Node000021" class="node">
<title>Node21</title>
<g id="a_Node000021"><a xlink:title=" ">
<polygon fill="#e0e0e0" stroke="#999999" points="1004.29,-19 952.29,-19 952.29,0 1004.29,0 1004.29,-19"/>
<text text-anchor="middle" x="978.29" y="-7" font-family="Helvetica,sans-Serif" font-size="10.00">cassert</text>
</a>
</g>
</g>
<!-- Node19&#45;&gt;Node21 -->
<g id="edge28_Node000019_Node000021" class="edge">
<title>Node19&#45;&gt;Node21</title>
<g id="a_edge28_Node000019_Node000021"><a xlink:title=" ">
<path fill="none" stroke="#63b8ff" d="M814.62,-54.98C849.45,-45.52 905.63,-30.25 942.26,-20.29"/>
<polygon fill="#63b8ff" stroke="#63b8ff" points="943.3,-23.64 952.03,-17.63 941.47,-16.88 943.3,-23.64"/>
</a>
</g>
</g>
<!-- Node22 -->
<g id="Node000022" class="node">
<title>Node22</title>
<g id="a_Node000022"><a xlink:title=" ">
<polygon fill="#e0e0e0" stroke="#999999" points="781.79,-19 736.79,-19 736.79,0 781.79,0 781.79,-19"/>
<text text-anchor="middle" x="759.29" y="-7" font-family="Helvetica,sans-Serif" font-size="10.00">utility</text>
</a>
</g>
</g>
<!-- Node19&#45;&gt;Node22 -->
<g id="edge31_Node000019_Node000022" class="edge">
<title>Node19&#45;&gt;Node22</title>
<g id="a_edge31_Node000019_Node000022"><a xlink:title=" ">
<path fill="none" stroke="#63b8ff" d="M779.32,-54.75C776.07,-47.57 771.37,-37.18 767.33,-28.27"/>
<polygon fill="#63b8ff" stroke="#63b8ff" points="770.49,-26.75 763.17,-19.09 764.11,-29.64 770.49,-26.75"/>
</a>
</g>
</g>
<!-- Node23 -->
<g id="Node000023" class="node">
<title>Node23</title>
<g id="a_Node000023"><a xlink:title=" ">
<polygon fill="#e0e0e0" stroke="#999999" points="868.79,-19 799.79,-19 799.79,0 868.79,0 868.79,-19"/>
<text text-anchor="middle" x="834.29" y="-7" font-family="Helvetica,sans-Serif" font-size="10.00">type_traits</text>
</a>
</g>
</g>
<!-- Node19&#45;&gt;Node23 -->
<g id="edge32_Node000019_Node000023" class="edge">
<title>Node19&#45;&gt;Node23</title>
<g id="a_edge32_Node000019_Node000023"><a xlink:title=" ">
<path fill="none" stroke="#63b8ff" d="M791.71,-54.75C799.06,-47.11 809.92,-35.82 818.83,-26.56"/>
<polygon fill="#63b8ff" stroke="#63b8ff" points="821.61,-28.72 826.02,-19.09 816.56,-23.87 821.61,-28.72"/>
</a>
</g>
</g>
</g>
</svg>
