<?xml version="1.0" encoding="UTF-8" standalone="no"?>
<!DOCTYPE svg PUBLIC "-//W3C//DTD SVG 1.1//EN"
 "http://www.w3.org/Graphics/SVG/1.1/DTD/svg11.dtd">
<!-- Generated by graphviz version 2.43.0 (0)
 -->
<!-- Title: src_cpp_kokkos_device/output.cpp Pages: 1 -->
<svg width="1135pt" height="203pt"
 viewBox="0.00 0.00 1135.00 203.00" xmlns="http://www.w3.org/2000/svg" xmlns:xlink="http://www.w3.org/1999/xlink">
<g id="graph0" class="graph" transform="scale(1 1) rotate(0) translate(4 199)">
<title>src_cpp_kokkos_device/output.cpp</title>
<!-- Node1 -->
<g id="Node000001" class="node">
<title>Node1</title>
<g id="a_Node000001"><a xlink:title=" ">
<polygon fill="#999999" stroke="#666666" points="506,-195 376,-195 376,-165 506,-165 506,-195"/>
<text text-anchor="start" x="384" y="-183" font-family="Helvetica,sans-Serif" font-size="10.00">src_cpp_kokkos_device</text>
<text text-anchor="middle" x="441" y="-172" font-family="Helvetica,sans-Serif" font-size="10.00">/output.cpp</text>
</a>
</g>
</g>
<!-- Node2 -->
<g id="Node000002" class="node">
<title>Node2</title>
<g id="a_Node000002"><a xlink:title=" ">
<polygon fill="#e0e0e0" stroke="#999999" points="44,-129 0,-129 0,-110 44,-110 44,-129"/>
<text text-anchor="middle" x="22" y="-117" font-family="Helvetica,sans-Serif" font-size="10.00">string</text>
</a>
</g>
</g>
<!-- Node1&#45;&gt;Node2 -->
<g id="edge1_Node000001_Node000002" class="edge">
<title>Node1&#45;&gt;Node2</title>
<g id="a_edge1_Node000001_Node000002"><a xlink:title=" ">
<path fill="none" stroke="#63b8ff" d="M375.97,-172.56C299.52,-164.51 168.98,-149.29 58,-129 56.72,-128.77 55.42,-128.52 54.11,-128.25"/>
<polygon fill="#63b8ff" stroke="#63b8ff" points="54.52,-124.76 44.01,-126.07 53.04,-131.61 54.52,-124.76"/>
</a>
</g>
</g>
<!-- Node3 -->
<g id="Node000003" class="node">
<title>Node3</title>
<g id="a_Node000003"><a xlink:title=" ">
<polygon fill="#e0e0e0" stroke="#999999" points="861,-74 815,-74 815,-55 861,-55 861,-74"/>
<text text-anchor="middle" x="838" y="-62" font-family="Helvetica,sans-Serif" font-size="10.00">cstdio</text>
</a>
</g>
</g>
<!-- Node1&#45;&gt;Node3 -->
<g id="edge2_Node000001_Node000003" class="edge">
<title>Node1&#45;&gt;Node3</title>
<g id="a_edge2_Node000001_Node000003"><a xlink:title=" ">
<path fill="none" stroke="#63b8ff" d="M506.03,-175.32C612.44,-168.65 814.2,-152.97 836,-129 846.78,-117.15 845.97,-98.32 843.26,-84.24"/>
<polygon fill="#63b8ff" stroke="#63b8ff" points="846.58,-83.09 840.86,-74.18 839.78,-84.72 846.58,-83.09"/>
</a>
</g>
</g>
<!-- Node4 -->
<g id="Node000004" class="node">
<title>Node4</title>
<g id="a_Node000004"><a xlink:title=" ">
<polygon fill="#e0e0e0" stroke="#999999" points="150,-129 100,-129 100,-110 150,-110 150,-129"/>
<text text-anchor="middle" x="125" y="-117" font-family="Helvetica,sans-Serif" font-size="10.00">cstring</text>
</a>
</g>
</g>
<!-- Node1&#45;&gt;Node4 -->
<g id="edge3_Node000001_Node000004" class="edge">
<title>Node1&#45;&gt;Node4</title>
<g id="a_edge3_Node000001_Node000004"><a xlink:title=" ">
<path fill="none" stroke="#63b8ff" d="M375.79,-168.76C320.82,-159.82 239.88,-145.97 160.39,-129.18"/>
<polygon fill="#63b8ff" stroke="#63b8ff" points="160.72,-125.67 150.21,-127.01 159.26,-132.51 160.72,-125.67"/>
</a>
</g>
</g>
<!-- Node5 -->
<g id="Node000005" class="node">
<title>Node5</title>
<g id="a_Node000005"><a xlink:title=" ">
<polygon fill="#e0e0e0" stroke="#999999" points="215.5,-129 168.5,-129 168.5,-110 215.5,-110 215.5,-129"/>
<text text-anchor="middle" x="192" y="-117" font-family="Helvetica,sans-Serif" font-size="10.00">cerrno</text>
</a>
</g>
</g>
<!-- Node1&#45;&gt;Node5 -->
<g id="edge4_Node000001_Node000005" class="edge">
<title>Node1&#45;&gt;Node5</title>
<g id="a_edge4_Node000001_Node000005"><a xlink:title=" ">
<path fill="none" stroke="#63b8ff" d="M378.52,-164.96C337.7,-155.7 282.98,-143.09 225.73,-129.13"/>
<polygon fill="#63b8ff" stroke="#63b8ff" points="226.32,-125.67 215.78,-126.7 224.66,-132.47 226.32,-125.67"/>
</a>
</g>
</g>
<!-- Node6 -->
<g id="Node000006" class="node">
<title>Node6</title>
<g id="a_Node000006"><a xlink:title=" ">
<polygon fill="#e0e0e0" stroke="#999999" points="284,-129 234,-129 234,-110 284,-110 284,-129"/>
<text text-anchor="middle" x="259" y="-117" font-family="Helvetica,sans-Serif" font-size="10.00">cstdint</text>
</a>
</g>
</g>
<!-- Node1&#45;&gt;Node6 -->
<g id="edge5_Node000001_Node000006" class="edge">
<title>Node1&#45;&gt;Node6</title>
<g id="a_edge5_Node000001_Node000006"><a xlink:title=" ">
<path fill="none" stroke="#63b8ff" d="M397.41,-164.99C365.7,-154.8 323.35,-141.18 293.88,-131.71"/>
<polygon fill="#63b8ff" stroke="#63b8ff" points="294.63,-128.27 284.03,-128.55 292.48,-134.94 294.63,-128.27"/>
</a>
</g>
</g>
<!-- Node7 -->
<g id="Node000007" class="node">
<title>Node7</title>
<g id="a_Node000007"><a xlink:title=" ">
<polygon fill="#e0e0e0" stroke="#999999" points="357.5,-129 302.5,-129 302.5,-110 357.5,-110 357.5,-129"/>
<text text-anchor="middle" x="330" y="-117" font-family="Helvetica,sans-Serif" font-size="10.00">fstream</text>
</a>
</g>
</g>
<!-- Node1&#45;&gt;Node7 -->
<g id="edge6_Node000001_Node000007" class="edge">
<title>Node1&#45;&gt;Node7</title>
<g id="a_edge6_Node000001_Node000007"><a xlink:title=" ">
<path fill="none" stroke="#63b8ff" d="M414.41,-164.99C396.55,-155.58 373.16,-143.24 355.52,-133.95"/>
<polygon fill="#63b8ff" stroke="#63b8ff" points="356.87,-130.71 346.39,-129.14 353.61,-136.9 356.87,-130.71"/>
</a>
</g>
</g>
<!-- Node8 -->
<g id="Node000008" class="node">
<title>Node8</title>
<g id="a_Node000008"><a xlink:title=" ">
<polygon fill="#e0e0e0" stroke="#999999" points="432,-129 376,-129 376,-110 432,-110 432,-129"/>
<text text-anchor="middle" x="404" y="-117" font-family="Helvetica,sans-Serif" font-size="10.00">sstream</text>
</a>
</g>
</g>
<!-- Node1&#45;&gt;Node8 -->
<g id="edge7_Node000001_Node000008" class="edge">
<title>Node1&#45;&gt;Node8</title>
<g id="a_edge7_Node000001_Node000008"><a xlink:title=" ">
<path fill="none" stroke="#63b8ff" d="M432.04,-164.84C426.89,-156.69 420.38,-146.4 414.93,-137.78"/>
<polygon fill="#63b8ff" stroke="#63b8ff" points="417.85,-135.85 409.54,-129.27 411.93,-139.59 417.85,-135.85"/>
</a>
</g>
</g>
<!-- Node9 -->
<g id="Node000009" class="node">
<title>Node9</title>
<g id="a_Node000009"><a xlink:title=" ">
<polygon fill="#e0e0e0" stroke="#999999" points="506,-129 450,-129 450,-110 506,-110 506,-129"/>
<text text-anchor="middle" x="478" y="-117" font-family="Helvetica,sans-Serif" font-size="10.00">iomanip</text>
</a>
</g>
</g>
<!-- Node1&#45;&gt;Node9 -->
<g id="edge8_Node000001_Node000009" class="edge">
<title>Node1&#45;&gt;Node9</title>
<g id="a_edge8_Node000001_Node000009"><a xlink:title=" ">
<path fill="none" stroke="#63b8ff" d="M449.96,-164.84C455.11,-156.69 461.62,-146.4 467.07,-137.78"/>
<polygon fill="#63b8ff" stroke="#63b8ff" points="470.07,-139.59 472.46,-129.27 464.15,-135.85 470.07,-139.59"/>
</a>
</g>
</g>
<!-- Node10 -->
<g id="Node000010" class="node">
<title>Node10</title>
<g id="a_Node000010"><a xlink:title=" ">
<polygon fill="#e0e0e0" stroke="#999999" points="571.5,-129 524.5,-129 524.5,-110 571.5,-110 571.5,-129"/>
<text text-anchor="middle" x="548" y="-117" font-family="Helvetica,sans-Serif" font-size="10.00">vector</text>
</a>
</g>
</g>
<!-- Node1&#45;&gt;Node10 -->
<g id="edge9_Node000001_Node000010" class="edge">
<title>Node1&#45;&gt;Node10</title>
<g id="a_edge9_Node000001_Node000010"><a xlink:title=" ">
<path fill="none" stroke="#63b8ff" d="M466.63,-164.99C483.84,-155.58 506.4,-143.24 523.4,-133.95"/>
<polygon fill="#63b8ff" stroke="#63b8ff" points="525.1,-137.01 532.2,-129.14 521.75,-130.87 525.1,-137.01"/>
</a>
</g>
</g>
<!-- Node11 -->
<g id="Node000011" class="node">
<title>Node11</title>
<g id="a_Node000011"><a xlink:title=" ">
<polygon fill="#e0e0e0" stroke="#999999" points="654,-129 590,-129 590,-110 654,-110 654,-129"/>
<text text-anchor="middle" x="622" y="-117" font-family="Helvetica,sans-Serif" font-size="10.00">sys/stat.h</text>
</a>
</g>
</g>
<!-- Node1&#45;&gt;Node11 -->
<g id="edge10_Node000001_Node000011" class="edge">
<title>Node1&#45;&gt;Node11</title>
<g id="a_edge10_Node000001_Node000011"><a xlink:title=" ">
<path fill="none" stroke="#63b8ff" d="M484.35,-164.99C515.32,-154.98 556.5,-141.67 585.73,-132.22"/>
<polygon fill="#63b8ff" stroke="#63b8ff" points="587.1,-135.46 595.53,-129.05 584.94,-128.8 587.1,-135.46"/>
</a>
</g>
</g>
<!-- Node12 -->
<g id="Node000012" class="node">
<title>Node12</title>
<g id="a_Node000012"><a xlink:href="config_8hpp.html" target="_top" xlink:title=" ">
<polygon fill="white" stroke="#666666" points="739.5,-129 672.5,-129 672.5,-110 739.5,-110 739.5,-129"/>
<text text-anchor="middle" x="706" y="-117" font-family="Helvetica,sans-Serif" font-size="10.00">config.hpp</text>
</a>
</g>
</g>
<!-- Node1&#45;&gt;Node12 -->
<g id="edge11_Node000001_Node000012" class="edge">
<title>Node1&#45;&gt;Node12</title>
<g id="a_edge11_Node000001_Node000012"><a xlink:title=" ">
<path fill="none" stroke="#63b8ff" d="M504.47,-164.99C553.24,-154.22 619.31,-139.64 662.29,-130.15"/>
<polygon fill="#63b8ff" stroke="#63b8ff" points="663.15,-133.54 672.16,-127.97 661.64,-126.71 663.15,-133.54"/>
</a>
</g>
</g>
<!-- Node13 -->
<g id="Node000013" class="node">
<title>Node13</title>
<g id="a_Node000013"><a xlink:href="mpi__config_8hpp.html" target="_top" xlink:title=" ">
<polygon fill="white" stroke="#666666" points="465.5,-74 374.5,-74 374.5,-55 465.5,-55 465.5,-74"/>
<text text-anchor="middle" x="420" y="-62" font-family="Helvetica,sans-Serif" font-size="10.00">mpi_config.hpp</text>
</a>
</g>
</g>
<!-- Node1&#45;&gt;Node13 -->
<g id="edge12_Node000001_Node000013" class="edge">
<title>Node1&#45;&gt;Node13</title>
<g id="a_edge12_Node000001_Node000013"><a xlink:title=" ">
<path fill="none" stroke="#63b8ff" d="M375.97,-179.43C285.09,-178.48 127.14,-170.68 91,-129 85.47,-122.62 85.44,-116.36 91,-110 125.82,-70.16 279.9,-64.58 364.28,-64.6"/>
<polygon fill="#63b8ff" stroke="#63b8ff" points="364.46,-68.1 374.47,-64.64 364.48,-61.1 364.46,-68.1"/>
</a>
</g>
</g>
<!-- Node16 -->
<g id="Node000016" class="node">
<title>Node16</title>
<g id="a_Node000016"><a xlink:href="mhd_8hpp.html" target="_top" xlink:title=" ">
<polygon fill="white" stroke="#666666" points="958.5,-129 899.5,-129 899.5,-110 958.5,-110 958.5,-129"/>
<text text-anchor="middle" x="929" y="-117" font-family="Helvetica,sans-Serif" font-size="10.00">mhd.hpp</text>
</a>
</g>
</g>
<!-- Node1&#45;&gt;Node16 -->
<g id="edge15_Node000001_Node000016" class="edge">
<title>Node1&#45;&gt;Node16</title>
<g id="a_edge15_Node000001_Node000016"><a xlink:title=" ">
<path fill="none" stroke="#63b8ff" d="M506.32,-171.87C590.31,-162.59 740.64,-145.59 869,-129 875.5,-128.16 882.4,-127.22 889.11,-126.29"/>
<polygon fill="#63b8ff" stroke="#63b8ff" points="890,-129.7 899.42,-124.84 889.03,-122.77 890,-129.7"/>
</a>
</g>
</g>
<!-- Node20 -->
<g id="Node000020" class="node">
<title>Node20</title>
<g id="a_Node000020"><a xlink:href="output_8hpp.html" target="_top" xlink:title=" ">
<polygon fill="white" stroke="#666666" points="826.5,-129 757.5,-129 757.5,-110 826.5,-110 826.5,-129"/>
<text text-anchor="middle" x="792" y="-117" font-family="Helvetica,sans-Serif" font-size="10.00">output.hpp</text>
</a>
</g>
</g>
<!-- Node1&#45;&gt;Node20 -->
<g id="edge20_Node000001_Node000020" class="edge">
<title>Node1&#45;&gt;Node20</title>
<g id="a_edge20_Node000001_Node000020"><a xlink:title=" ">
<path fill="none" stroke="#63b8ff" d="M506,-169.11C566.16,-159.8 658.34,-145.17 747.3,-129.26"/>
<polygon fill="#63b8ff" stroke="#63b8ff" points="748.06,-132.68 757.29,-127.47 746.82,-125.79 748.06,-132.68"/>
</a>
</g>
</g>
<!-- Node14 -->
<g id="Node000014" class="node">
<title>Node14</title>
<g id="a_Node000014"><a xlink:title=" ">
<polygon fill="#e0e0e0" stroke="#999999" points="409,-19 365,-19 365,0 409,0 409,-19"/>
<text text-anchor="middle" x="387" y="-7" font-family="Helvetica,sans-Serif" font-size="10.00">mpi.h</text>
</a>
</g>
</g>
<!-- Node13&#45;&gt;Node14 -->
<g id="edge13_Node000013_Node000014" class="edge">
<title>Node13&#45;&gt;Node14</title>
<g id="a_edge13_Node000013_Node000014"><a xlink:title=" ">
<path fill="none" stroke="#63b8ff" d="M414.55,-54.75C409.99,-47.42 403.33,-36.73 397.71,-27.7"/>
<polygon fill="#63b8ff" stroke="#63b8ff" points="400.6,-25.73 392.35,-19.09 394.66,-29.43 400.6,-25.73"/>
</a>
</g>
</g>
<!-- Node15 -->
<g id="Node000015" class="node">
<title>Node15</title>
<g id="a_Node000015"><a xlink:title=" ">
<polygon fill="#e0e0e0" stroke="#999999" points="480.5,-19 427.5,-19 427.5,0 480.5,0 480.5,-19"/>
<text text-anchor="middle" x="454" y="-7" font-family="Helvetica,sans-Serif" font-size="10.00">cstddef</text>
</a>
</g>
</g>
<!-- Node13&#45;&gt;Node15 -->
<g id="edge14_Node000013_Node000015" class="edge">
<title>Node13&#45;&gt;Node15</title>
<g id="a_edge14_Node000013_Node000015"><a xlink:title=" ">
<path fill="none" stroke="#63b8ff" d="M425.61,-54.75C430.32,-47.42 437.17,-36.73 442.97,-27.7"/>
<polygon fill="#63b8ff" stroke="#63b8ff" points="446.04,-29.4 448.49,-19.09 440.14,-25.62 446.04,-29.4"/>
</a>
</g>
</g>
<!-- Node16&#45;&gt;Node3 -->
<g id="edge17_Node000016_Node000003" class="edge">
<title>Node16&#45;&gt;Node3</title>
<g id="a_edge17_Node000016_Node000003"><a xlink:title=" ">
<path fill="none" stroke="#63b8ff" d="M914.38,-109.98C900.14,-101.69 878.25,-88.94 861.55,-79.22"/>
<polygon fill="#63b8ff" stroke="#63b8ff" points="863.29,-76.18 852.89,-74.17 859.77,-82.23 863.29,-76.18"/>
</a>
</g>
</g>
<!-- Node17 -->
<g id="Node000017" class="node">
<title>Node17</title>
<g id="a_Node000017"><a xlink:title=" ">
<polygon fill="#e0e0e0" stroke="#999999" points="1044.5,-74 997.5,-74 997.5,-55 1044.5,-55 1044.5,-74"/>
<text text-anchor="middle" x="1021" y="-62" font-family="Helvetica,sans-Serif" font-size="10.00">cmath</text>
</a>
</g>
</g>
<!-- Node16&#45;&gt;Node17 -->
<g id="edge16_Node000016_Node000017" class="edge">
<title>Node16&#45;&gt;Node17</title>
<g id="a_edge16_Node000016_Node000017"><a xlink:title=" ">
<path fill="none" stroke="#63b8ff" d="M943.78,-109.98C958.18,-101.69 980.31,-88.94 997.19,-79.22"/>
<polygon fill="#63b8ff" stroke="#63b8ff" points="999.03,-82.19 1005.95,-74.17 995.54,-76.13 999.03,-82.19"/>
</a>
</g>
</g>
<!-- Node18 -->
<g id="Node000018" class="node">
<title>Node18</title>
<g id="a_Node000018"><a xlink:title=" ">
<polygon fill="#e0e0e0" stroke="#999999" points="1127,-74 1063,-74 1063,-55 1127,-55 1127,-74"/>
<text text-anchor="middle" x="1095" y="-62" font-family="Helvetica,sans-Serif" font-size="10.00">algorithm</text>
</a>
</g>
</g>
<!-- Node16&#45;&gt;Node18 -->
<g id="edge18_Node000016_Node000018" class="edge">
<title>Node16&#45;&gt;Node18</title>
<g id="a_edge18_Node000016_Node000018"><a xlink:title=" ">
<path fill="none" stroke="#63b8ff" d="M955.67,-109.98C983.54,-101.09 1027.45,-87.07 1058.52,-77.15"/>
<polygon fill="#63b8ff" stroke="#63b8ff" points="1059.66,-80.46 1068.12,-74.08 1057.53,-73.79 1059.66,-80.46"/>
</a>
</g>
</g>
<!-- Node19 -->
<g id="Node000019" class="node">
<title>Node19</title>
<g id="a_Node000019"><a xlink:title=" ">
<polygon fill="#e0e0e0" stroke="#999999" points="979,-74 879,-74 879,-55 979,-55 979,-74"/>
<text text-anchor="middle" x="929" y="-62" font-family="Helvetica,sans-Serif" font-size="10.00">Kokkos_Core.hpp</text>
</a>
</g>
</g>
<!-- Node16&#45;&gt;Node19 -->
<g id="edge19_Node000016_Node000019" class="edge">
<title>Node16&#45;&gt;Node19</title>
<g id="a_edge19_Node000016_Node000019"><a xlink:title=" ">
<path fill="none" stroke="#63b8ff" d="M929,-109.75C929,-102.8 929,-92.85 929,-84.13"/>
<polygon fill="#63b8ff" stroke="#63b8ff" points="932.5,-84.09 929,-74.09 925.5,-84.09 932.5,-84.09"/>
</a>
</g>
</g>
<!-- Node20&#45;&gt;Node13 -->
<g id="edge21_Node000020_Node000013" class="edge">
<title>Node20&#45;&gt;Node13</title>
<g id="a_edge21_Node000020_Node000013"><a xlink:title=" ">
<path fill="none" stroke="#63b8ff" d="M757.3,-111.45C754.5,-110.94 751.7,-110.45 749,-110 653.34,-94.09 541.31,-79.87 475.75,-71.99"/>
<polygon fill="#63b8ff" stroke="#63b8ff" points="475.98,-68.5 465.63,-70.78 475.15,-75.45 475.98,-68.5"/>
</a>
</g>
</g>
</g>
</svg>
